GeoramaSemiCondensed-BlackItalic.ufo
<glyph name="exclam" format="2">
  <advance width="230.0"/>
  <unicode hex="0021"/>
  <outline>
    <contour>
      <point x="29.799999999999997" y="259.0" type="line"/>
      <point x="189.4" y="259.0" type="line"/>
      <point x="284.6" y="740.0" type="line"/>
      <point x="96.0" y="740.0" type="line"/>
    </contour>
    <contour>
      <point x="-15.799999999999999" y="69.4" type="curve" smooth="yes"/>
      <point x="-15.799999999999999" y="16.8"/>
      <point x="10.200000000000003" y="-10.0"/>
      <point x="69.4" y="-10.0" type="curve" smooth="yes"/>
      <point x="157.6" y="-10.0"/>
      <point x="191.4" y="73.2"/>
      <point x="191.4" y="144.4" type="curve" smooth="yes"/>
      <point x="191.4" y="197.0"/>
      <point x="165.4" y="223.8"/>
      <point x="106.4" y="223.8" type="curve" smooth="yes"/>
      <point x="18.8" y="223.8"/>
      <point x="-15.799999999999999" y="141.2"/>
    </contour>
  </outline>
</glyph>
<glyph name="numbersign" format="2">
  <advance width="546.0"/>
  <unicode hex="0023"/>
  <outline>
    <contour>
      <point x="90.0" y="394.8" type="line"/>
      <point x="132.6" y="394.8" type="line"/>
      <point x="108.0" y="297.4" type="line"/>
      <point x="62.8" y="297.4" type="line"/>
      <point x="37.4" y="137.8" type="line"/>
      <point x="70.80000000000001" y="137.8" type="line"/>
      <point x="38.99999999999999" y="0.0" type="line"/>
      <point x="185.6" y="0.0" type="line"/>
      <point x="217.4" y="137.8" type="line"/>
      <point x="253.4" y="137.8" type="line"/>
      <point x="221.6" y="0.0" type="line"/>
      <point x="367.4" y="0.0" type="line"/>
      <point x="399.2" y="137.8" type="line"/>
      <point x="454.2" y="137.8" type="line"/>
      <point x="479.40000000000003" y="297.4" type="line"/>
      <point x="436.79999999999995" y="297.4" type="line"/>
      <point x="461.0" y="394.8" type="line"/>
      <point x="506.59999999999997" y="394.8" type="line"/>
      <point x="532.8" y="555.6" type="line"/>
      <point x="498.2" y="555.6" type="line"/>
      <point x="532.0" y="700.0" type="line"/>
      <point x="385.40000000000003" y="700.0" type="line"/>
      <point x="351.59999999999997" y="555.6" type="line"/>
      <point x="315.6" y="555.6" type="line"/>
      <point x="349.40000000000003" y="700.0" type="line"/>
      <point x="203.60000000000002" y="700.0" type="line"/>
      <point x="169.79999999999998" y="555.6" type="line"/>
      <point x="116.0" y="555.6" type="line"/>
    </contour>
    <contour>
      <point x="278.4" y="394.8" type="line"/>
      <point x="314.4" y="394.8" type="line"/>
      <point x="290.59999999999997" y="297.4" type="line"/>
      <point x="254.6" y="297.4" type="line"/>
    </contour>
  </outline>
</glyph>
<glyph name="dollar" format="2">
  <advance width="546.0"/>
  <unicode hex="0024"/>
  <outline>
    <contour>
      <point x="533.8000000000001" y="672.6" type="line"/>
      <point x="505.6" y="685.4000000000001"/>
      <point x="462.6" y="699.5999999999999"/>
      <point x="412.6" y="705.6" type="curve"/>
      <point x="427.8" y="803.4" type="line"/>
      <point x="274.8" y="803.4" type="line"/>
      <point x="257.2" y="695.8000000000001" type="line"/>
      <point x="148.39999999999998" y="667.6"/>
      <point x="76.80000000000001" y="592.6"/>
      <point x="76.80000000000001" y="483.4" type="curve" smooth="yes"/>
      <point x="76.80000000000001" y="282.8"/>
      <point x="300.8" y="269.2"/>
      <point x="300.8" y="204.2" type="curve" smooth="yes"/>
      <point x="300.8" y="173.8"/>
      <point x="279.2" y="160.20000000000002"/>
      <point x="234.0" y="160.20000000000002" type="curve" smooth="yes"/>
      <point x="179.0" y="160.20000000000002"/>
      <point x="122.39999999999999" y="173.6"/>
      <point x="62.8" y="197.8" type="curve"/>
      <point x="4.800000000000001" y="35.4" type="line"/>
      <point x="46.199999999999996" y="14.2"/>
      <point x="97.0" y="0.8"/>
      <point x="146.2" y="-5.0" type="curve"/>
      <point x="131.2" y="-105.0" type="line"/>
      <point x="284.0" y="-105.0" type="line"/>
      <point x="299.0" y="-1.6" type="line"/>
      <point x="416.6" y="26.0"/>
      <point x="491.4" y="107.6"/>
      <point x="491.4" y="216.79999999999998" type="curve" smooth="yes"/>
      <point x="491.4" y="416.20000000000005"/>
      <point x="273.8" y="422.0"/>
      <point x="273.8" y="490.20000000000005" type="curve" smooth="yes"/>
      <point x="273.8" y="518.6"/>
      <point x="298.2" y="531.5999999999999"/>
      <point x="342.6" y="531.5999999999999" type="curve" smooth="yes"/>
      <point x="377.2" y="531.5999999999999"/>
      <point x="425.40000000000003" y="526.4"/>
      <point x="474.8" y="505.59999999999997" type="curve"/>
    </contour>
  </outline>
</glyph>
<glyph name="ampersand" format="2">
  <advance width="623.0"/>
  <unicode hex="0026"/>
  <outline>
    <contour>
      <point x="266.79999999999995" y="-10.0" type="curve" smooth="yes"/>
      <point x="461.40000000000003" y="-10.0"/>
      <point x="578.6" y="142.2"/>
      <point x="541.0" y="300.8" type="curve"/>
      <point x="396.8" y="287.40000000000003" type="line"/>
      <point x="447.0" y="215.20000000000002"/>
      <point x="374.4" y="152.2"/>
      <point x="295.0" y="152.2" type="curve" smooth="yes"/>
      <point x="224.0" y="152.2"/>
      <point x="188.0" y="188.6"/>
      <point x="188.0" y="241.20000000000002" type="curve" smooth="yes"/>
      <point x="188.0" y="296.0"/>
      <point x="221.4" y="349.4"/>
      <point x="279.0" y="349.4" type="curve" smooth="yes"/>
      <point x="309.4" y="349.4" type="line"/>
      <point x="339.0" y="468.0" type="line"/>
      <point x="318.8" y="471.79999999999995" type="line" smooth="yes"/>
      <point x="281.0" y="478.2"/>
      <point x="267.40000000000003" y="494.6"/>
      <point x="267.40000000000003" y="514.6" type="curve" smooth="yes"/>
      <point x="267.40000000000003" y="540.2"/>
      <point x="291.59999999999997" y="554.2"/>
      <point x="317.4" y="554.2" type="curve" smooth="yes"/>
      <point x="341.4" y="554.2"/>
      <point x="362.4" y="550.0"/>
      <point x="389.0" y="533.0" type="curve"/>
      <point x="476.0" y="665.4" type="line"/>
      <point x="420.0" y="695.2"/>
      <point x="368.2" y="710.0"/>
      <point x="297.40000000000003" y="710.0" type="curve" smooth="yes"/>
      <point x="168.6" y="710.0"/>
      <point x="88.6" y="629.1999999999999"/>
      <point x="88.6" y="541.1999999999999" type="curve" smooth="yes"/>
      <point x="88.6" y="493.4"/>
      <point x="112.6" y="457.40000000000003"/>
      <point x="163.20000000000002" y="423.2" type="curve"/>
      <point x="71.6" y="397.4"/>
      <point x="4.799999999999999" y="327.0"/>
      <point x="4.799999999999999" y="206.4" type="curve" smooth="yes"/>
      <point x="4.799999999999999" y="83.6"/>
      <point x="91.39999999999999" y="-10.0"/>
    </contour>
    <contour>
      <point x="373.0" y="205.20000000000002" type="line"/>
      <point x="375.59999999999997" y="237.60000000000002"/>
      <point x="386.40000000000003" y="259.59999999999997"/>
      <point x="413.2" y="259.59999999999997" type="curve" smooth="yes"/>
      <point x="449.2" y="259.59999999999997"/>
      <point x="491.59999999999997" y="256.40000000000003"/>
      <point x="519.2" y="256.40000000000003" type="curve" smooth="yes"/>
      <point x="599.2" y="256.40000000000003"/>
      <point x="651.6" y="342.2"/>
      <point x="633.1999999999999" y="432.40000000000003" type="curve"/>
      <point x="522.5999999999999" y="432.40000000000003" type="line"/>
      <point x="520.8000000000001" y="375.6"/>
      <point x="498.19999999999993" y="367.4"/>
      <point x="450.79999999999995" y="367.4" type="curve" smooth="yes"/>
      <point x="430.6" y="367.4"/>
      <point x="411.0" y="371.0"/>
      <point x="390.8" y="371.0" type="curve" smooth="yes"/>
      <point x="298.6" y="371.0"/>
      <point x="265.40000000000003" y="297.59999999999997"/>
      <point x="262.8" y="225.8" type="curve"/>
    </contour>
  </outline>
</glyph>
<glyph name="parenleft" format="2">
  <advance width="291.20000000000005"/>
  <unicode hex="0028"/>
  <outline>
    <contour>
      <point x="14.4" y="64.6" type="curve" smooth="yes"/>
      <point x="14.4" y="-96.4"/>
      <point x="67.19999999999999" y="-202.6"/>
      <point x="194.4" y="-220.0" type="curve"/>
      <point x="221.2" y="-61.6" type="line"/>
      <point x="181.2" y="-40.199999999999996"/>
      <point x="162.6" y="-6.399999999999999"/>
      <point x="162.6" y="69.4" type="curve" smooth="yes"/>
      <point x="162.6" y="182.20000000000002"/>
      <point x="217.2" y="582.4000000000001"/>
      <point x="325.8" y="590.0" type="curve"/>
      <point x="351.0" y="750.0" type="line"/>
      <point x="96.8" y="750.4"/>
      <point x="14.4" y="314.6"/>
    </contour>
  </outline>
</glyph>
<glyph name="parenright" format="2">
  <advance width="291.20000000000005"/>
  <unicode hex="0029"/>
  <outline>
    <contour>
      <point x="273.6" y="465.4" type="curve" smooth="yes"/>
      <point x="273.6" y="627.4"/>
      <point x="220.79999999999998" y="732.6"/>
      <point x="93.6" y="750.0" type="curve"/>
      <point x="66.8" y="590.5999999999999" type="line"/>
      <point x="106.8" y="569.1999999999999"/>
      <point x="125.4" y="535.4"/>
      <point x="125.4" y="459.6" type="curve" smooth="yes"/>
      <point x="125.4" y="346.8"/>
      <point x="70.8" y="-52.4"/>
      <point x="-37.8" y="-60.0" type="curve"/>
      <point x="-63.0" y="-220.0" type="line"/>
      <point x="191.2" y="-218.8"/>
      <point x="273.6" y="217.4"/>
    </contour>
  </outline>
</glyph>
<glyph name="asterisk" format="2">
  <advance width="354.0"/>
  <unicode hex="002A"/>
  <outline>
    <contour>
      <point x="133.0" y="398.8" type="line"/>
      <point x="207.0" y="469.2" type="line"/>
      <point x="257.4" y="398.8" type="line"/>
      <point x="332.0" y="448.8" type="line"/>
      <point x="302.0" y="533.8" type="line"/>
      <point x="390.8" y="576.1999999999999" type="line"/>
      <point x="379.0" y="659.4000000000001" type="line"/>
      <point x="287.8" y="642.6" type="line"/>
      <point x="292.2" y="738.0" type="line"/>
      <point x="209.20000000000002" y="738.0" type="line"/>
      <point x="181.6" y="642.6" type="line"/>
      <point x="98.0" y="659.4" type="line"/>
      <point x="58.6" y="576.2" type="line"/>
      <point x="130.2" y="533.8000000000001" type="line"/>
      <point x="74.60000000000001" y="448.8" type="line"/>
    </contour>
  </outline>
</glyph>
<glyph name="plus" format="2">
  <advance width="458.0"/>
  <unicode hex="002B"/>
  <outline>
    <contour>
      <point x="128.0" y="147.8" type="line"/>
      <point x="289.4" y="147.8" type="line"/>
      <point x="304.6" y="244.0" type="line"/>
      <point x="407.0" y="244.0" type="line"/>
      <point x="433.8" y="413.0" type="line"/>
      <point x="331.4" y="413.0" type="line"/>
      <point x="346.8" y="509.0" type="line"/>
      <point x="185.79999999999998" y="509.0" type="line"/>
      <point x="170.0" y="413.0" type="line"/>
      <point x="68.2" y="413.0" type="line"/>
      <point x="41.4" y="244.0" type="line"/>
      <point x="143.6" y="244.0" type="line"/>
    </contour>
  </outline>
</glyph>
<glyph name="comma" format="2">
  <advance width="226.2"/>
  <unicode hex="002C"/>
  <outline>
    <contour>
      <point x="0.20000000000000018" y="111.0" type="line"/>
      <point x="-0.8000000000000003" y="77.0"/>
      <point x="-4.8" y="46.800000000000004"/>
      <point x="-8.0" y="30.4" type="curve" smooth="yes"/>
      <point x="-18.0" y="-24.6"/>
      <point x="-51.400000000000006" y="-100.4"/>
      <point x="-82.0" y="-148.2" type="curve"/>
      <point x="52.8" y="-181.6" type="line"/>
      <point x="119.2" y="-101.39999999999999"/>
      <point x="170.8" y="-20.400000000000002"/>
      <point x="170.8" y="79.2" type="curve" smooth="yes"/>
      <point x="170.8" y="91.0"/>
      <point x="169.79999999999998" y="102.0"/>
      <point x="169.2" y="112.0" type="curve"/>
    </contour>
  </outline>
</glyph>
<glyph name="hyphen" format="2">
  <advance width="332.40000000000003"/>
  <unicode hex="002D"/>
  <outline>
    <contour>
      <point x="29.6" y="230.0" type="line"/>
      <point x="287.4" y="230.0" type="line"/>
      <point x="317.4" y="410.79999999999995" type="line"/>
      <point x="59.60000000000001" y="410.79999999999995" type="line"/>
    </contour>
  </outline>
</glyph>
<glyph name="period" format="2">
  <advance width="228.8"/>
  <unicode hex="002E"/>
  <outline>
    <contour>
      <point x="-15.2" y="71.8" type="curve" smooth="yes"/>
      <point x="-15.2" y="18.400000000000002"/>
      <point x="10.000000000000002" y="-7.6"/>
      <point x="70.0" y="-7.6" type="curve" smooth="yes"/>
      <point x="158.20000000000002" y="-7.6"/>
      <point x="191.2" y="75.6"/>
      <point x="191.2" y="148.4" type="curve" smooth="yes"/>
      <point x="191.2" y="200.2"/>
      <point x="166.0" y="226.2"/>
      <point x="107.0" y="226.2" type="curve" smooth="yes"/>
      <point x="18.6" y="226.2"/>
      <point x="-15.2" y="143.6"/>
    </contour>
  </outline>
</glyph>
<glyph name="slash" format="2">
  <advance width="415.8"/>
  <unicode hex="002F"/>
  <outline>
    <contour>
      <point x="-83.0" y="-210.0" type="line"/>
      <point x="70.80000000000001" y="-210.0" type="line"/>
      <point x="495.8" y="740.0" type="line"/>
      <point x="340.2" y="740.0" type="line"/>
    </contour>
  </outline>
</glyph>
<glyph name="zero" format="2">
  <advance width="546.0"/>
  <unicode hex="0030"/>
  <outline>
    <contour>
      <point x="247.00000000000003" y="-10.0" type="curve" smooth="yes"/>
      <point x="455.5" y="-10.0"/>
      <point x="540.0" y="246.5"/>
      <point x="540.0" y="472.5" type="curve" smooth="yes"/>
      <point x="540.0" y="632.5"/>
      <point x="474.0" y="710.0"/>
      <point x="321.99999999999994" y="710.0" type="curve" smooth="yes"/>
      <point x="118.5" y="710.0"/>
      <point x="29.0" y="453.5"/>
      <point x="29.0" y="227.5" type="curve" smooth="yes"/>
      <point x="29.0" y="67.5"/>
      <point x="95.0" y="-10.0"/>
    </contour>
    <contour>
      <point x="256.0" y="164.0" type="curve" smooth="yes"/>
      <point x="233.5" y="164.0"/>
      <point x="219.50000000000003" y="173.0"/>
      <point x="219.5" y="210.99999999999997" type="curve" smooth="yes"/>
      <point x="219.5" y="294.0"/>
      <point x="259.0" y="536.0"/>
      <point x="315.49999999999994" y="536.0" type="curve" smooth="yes"/>
      <point x="337.0" y="536.0"/>
      <point x="350.5" y="526.5"/>
      <point x="350.5" y="490.00000000000006" type="curve" smooth="yes"/>
      <point x="350.5" y="411.0"/>
      <point x="309.5" y="164.0"/>
    </contour>
  </outline>
</glyph>
<glyph name="one" format="2">
  <advance width="546.0"/>
  <unicode hex="0031"/>
  <outline>
    <contour>
      <point x="53.6" y="0.0" type="line"/>
      <point x="436.2" y="0.0" type="line"/>
      <point x="463.59999999999997" y="168.0" type="line"/>
      <point x="371.20000000000005" y="168.0" type="line"/>
      <point x="457.2" y="700.0" type="line"/>
      <point x="364.6" y="700.0" type="line"/>
      <point x="131.2" y="628.1999999999999" type="line"/>
      <point x="139.20000000000002" y="439.6" type="line"/>
      <point x="231.60000000000002" y="466.8" type="line"/>
      <point x="183.0" y="168.0" type="line"/>
      <point x="80.2" y="168.0" type="line"/>
    </contour>
  </outline>
</glyph>
<glyph name="two" format="2">
  <advance width="546.0"/>
  <unicode hex="0032"/>
  <outline>
    <contour>
      <point x="41.00000000000001" y="134.5" type="curve"/>
      <point x="20.0" y="0.0" type="line"/>
      <point x="436.00000000000006" y="0.0" type="line"/>
      <point x="462.5" y="156.5" type="line"/>
      <point x="284.0" y="156.5" type="line"/>
      <point x="396.49999999999994" y="273.5"/>
      <point x="501.00000000000006" y="384.0"/>
      <point x="501.00000000000006" y="534.0" type="curve" smooth="yes"/>
      <point x="501.00000000000006" y="645.5"/>
      <point x="430.00000000000006" y="710.0"/>
      <point x="326.0" y="710.0" type="curve" smooth="yes"/>
      <point x="245.0" y="710.0"/>
      <point x="163.49999999999997" y="682.5"/>
      <point x="103.0" y="644.0" type="curve"/>
      <point x="132.99999999999997" y="456.00000000000006" type="line"/>
      <point x="171.0" y="475.0"/>
      <point x="208.0" y="491.0"/>
      <point x="244.5" y="491.0" type="curve" smooth="yes"/>
      <point x="279.5" y="491.0"/>
      <point x="292.0" y="470.0"/>
      <point x="292.0" y="449.0" type="curve" smooth="yes"/>
      <point x="292.0" y="359.00000000000006"/>
      <point x="140.49999999999997" y="199.0"/>
    </contour>
  </outline>
</glyph>
<glyph name="three" format="2">
  <advance width="546.0"/>
  <unicode hex="0033"/>
  <outline>
    <contour>
      <point x="2.5" y="39.0" type="line"/>
      <point x="55.5" y="7.5"/>
      <point x="114.0" y="-10.0"/>
      <point x="196.0" y="-10.0" type="curve" smooth="yes"/>
      <point x="323.0" y="-10.0"/>
      <point x="478.5" y="59.5"/>
      <point x="478.5" y="227.0" type="curve" smooth="yes"/>
      <point x="478.5" y="312.0"/>
      <point x="441.0" y="349.0"/>
      <point x="400.0" y="371.0" type="curve"/>
      <point x="471.5" y="414.0"/>
      <point x="519.0" y="469.0"/>
      <point x="519.0" y="555.0" type="curve" smooth="yes"/>
      <point x="519.0" y="656.5"/>
      <point x="452.0" y="710.0"/>
      <point x="320.0" y="710.0" type="curve" smooth="yes"/>
      <point x="233.5" y="710.0"/>
      <point x="154.5" y="688.0"/>
      <point x="103.0" y="654.5" type="curve"/>
      <point x="124.0" y="508.5" type="line"/>
      <point x="157.0" y="520.0"/>
      <point x="198.5" y="529.0"/>
      <point x="243.5" y="529.0" type="curve" smooth="yes"/>
      <point x="290.5" y="529.0"/>
      <point x="323.0" y="514.0"/>
      <point x="323.0" y="479.5" type="curve" smooth="yes"/>
      <point x="323.0" y="446.5"/>
      <point x="296.5" y="423.5"/>
      <point x="238.0" y="423.5" type="curve" smooth="yes"/>
      <point x="168.0" y="423.5" type="line"/>
      <point x="144.5" y="280.5" type="line"/>
      <point x="231.0" y="280.5" type="line" smooth="yes"/>
      <point x="278.5" y="280.5"/>
      <point x="296.0" y="259.0"/>
      <point x="296.0" y="231.5" type="curve" smooth="yes"/>
      <point x="296.0" y="188.0"/>
      <point x="263.5" y="164.5"/>
      <point x="200.5" y="164.5" type="curve" smooth="yes"/>
      <point x="156.0" y="164.5"/>
      <point x="115.0" y="172.5"/>
      <point x="80.0" y="189.5" type="curve"/>
    </contour>
  </outline>
</glyph>
<glyph name="four" format="2">
  <advance width="546.0"/>
  <unicode hex="0034"/>
  <outline>
    <contour>
      <point x="-0.5" y="82.5" type="line"/>
      <point x="221.0" y="82.5" type="line"/>
      <point x="208.0" y="0.0" type="line"/>
      <point x="403.0" y="0.0" type="line"/>
      <point x="416.0" y="82.5" type="line"/>
      <point x="478.5" y="82.5" type="line"/>
      <point x="502.5" y="236.0" type="line"/>
      <point x="441.0" y="236.0" type="line"/>
      <point x="516.5" y="700.0" type="line"/>
      <point x="325.5" y="700.0" type="line"/>
      <point x="22.5" y="228.0" type="line"/>
    </contour>
    <contour>
      <point x="153.0" y="236.0" type="line"/>
      <point x="290.5" y="461.0" type="line"/>
      <point x="252.5" y="236.0" type="line"/>
    </contour>
  </outline>
</glyph>
<glyph name="five" format="2">
  <advance width="546.0"/>
  <unicode hex="0035"/>
  <outline>
    <contour>
      <point x="5.5" y="31.499999999999996" type="line"/>
      <point x="57.0" y="2.5"/>
      <point x="115.5" y="-10.0"/>
      <point x="197.0" y="-10.0" type="curve" smooth="yes"/>
      <point x="399.5" y="-10.0"/>
      <point x="487.49999999999994" y="124.5"/>
      <point x="487.49999999999994" y="274.50000000000006" type="curve" smooth="yes"/>
      <point x="487.49999999999994" y="386.99999999999994"/>
      <point x="431.0" y="431.0"/>
      <point x="330.0" y="435.0" type="curve" smooth="yes"/>
      <point x="281.0" y="436.5" type="line"/>
      <point x="299.5" y="523.0" type="line"/>
      <point x="504.5" y="523.0" type="line"/>
      <point x="532.0" y="700.0" type="line"/>
      <point x="192.0" y="700.0" type="line"/>
      <point x="85.0" y="289.0" type="line"/>
      <point x="90.5" y="277.5" type="line"/>
      <point x="219.5" y="277.5" type="line" smooth="yes"/>
      <point x="274.50000000000006" y="277.5"/>
      <point x="291.5" y="263.0"/>
      <point x="291.5" y="229.0" type="curve" smooth="yes"/>
      <point x="291.5" y="197.5"/>
      <point x="269.5" y="166.0"/>
      <point x="195.0" y="166.0" type="curve" smooth="yes"/>
      <point x="143.5" y="166.0"/>
      <point x="98.0" y="180.0"/>
      <point x="66.5" y="193.0" type="curve"/>
    </contour>
  </outline>
</glyph>
<glyph name="six" format="2">
  <advance width="546.0"/>
  <unicode hex="0036"/>
  <note>
14
</note>
  <outline>
    <contour>
      <point x="250.5" y="-10.0" type="curve" smooth="yes"/>
      <point x="414.0" y="-10.0"/>
      <point x="509.0" y="114.5"/>
      <point x="509.0" y="302.5" type="curve" smooth="yes"/>
      <point x="509.0" y="411.5"/>
      <point x="452.5" y="461.0"/>
      <point x="365.0" y="461.0" type="curve" smooth="yes"/>
      <point x="314.5" y="461.0"/>
      <point x="270.5" y="448.0"/>
      <point x="229.5" y="413.0" type="curve"/>
      <point x="216.5" y="285.0" type="line"/>
      <point x="237.0" y="302.0"/>
      <point x="258.5" y="312.0"/>
      <point x="280.5" y="312.0" type="curve" smooth="yes"/>
      <point x="317.0" y="312.0"/>
      <point x="328.5" y="296.0"/>
      <point x="328.5" y="262.0" type="curve" smooth="yes"/>
      <point x="328.5" y="211.5"/>
      <point x="300.0" y="154.0"/>
      <point x="266.0" y="154.0" type="curve" smooth="yes"/>
      <point x="234.0" y="154.0"/>
      <point x="220.0" y="171.5"/>
      <point x="220.0" y="204.0" type="curve" smooth="yes"/>
      <point x="220.0" y="271.5"/>
      <point x="234.0" y="341.0"/>
      <point x="266.0" y="429.5" type="curve" smooth="yes"/>
      <point x="291.5" y="499.0"/>
      <point x="332.5" y="537.0"/>
      <point x="404.5" y="537.0" type="curve" smooth="yes"/>
      <point x="441.0" y="537.0"/>
      <point x="467.0" y="526.5"/>
      <point x="493.0" y="514.0" type="curve"/>
      <point x="562.0" y="670.0" type="line"/>
      <point x="537.0" y="687.0"/>
      <point x="471.5" y="710.0"/>
      <point x="396.0" y="710.0" type="curve" smooth="yes"/>
      <point x="157.5" y="710.0"/>
      <point x="38.0" y="489.0"/>
      <point x="38.0" y="219.0" type="curve" smooth="yes"/>
      <point x="38.0" y="62.0"/>
      <point x="114.0" y="-10.0"/>
    </contour>
  </outline>
</glyph>
<glyph name="seven" format="2">
  <advance width="546.0"/>
  <unicode hex="0037"/>
  <note>
9
</note>
  <outline>
    <contour>
      <point x="82.6" y="0.0" type="curve"/>
      <point x="281.2" y="0.0" type="line"/>
      <point x="303.59999999999997" y="121.4"/>
      <point x="337.2" y="202.2"/>
      <point x="424.8" y="359.0" type="curve" smooth="yes"/>
      <point x="539.5999999999999" y="562.8" type="line"/>
      <point x="561.1999999999999" y="700.0" type="line"/>
      <point x="127.60000000000001" y="700.0" type="line"/>
      <point x="99.2" y="522.8" type="line"/>
      <point x="326.0" y="522.8" type="line"/>
      <point x="224.59999999999997" y="362.8" type="line" smooth="yes"/>
      <point x="144.0" y="235.4"/>
      <point x="104.19999999999999" y="131.4"/>
    </contour>
  </outline>
</glyph>
<glyph name="eight" format="2">
  <advance width="577.0"/>
  <unicode hex="0038"/>
  <outline>
    <contour>
      <point x="267.0" y="-10.0" type="curve" smooth="yes"/>
      <point x="416.0" y="-10.0"/>
      <point x="529.5" y="43.5"/>
      <point x="529.5" y="213.0" type="curve" smooth="yes"/>
      <point x="529.5" y="436.5"/>
      <point x="248.0" y="398.0"/>
      <point x="248.0" y="516.0" type="curve" smooth="yes"/>
      <point x="248.0" y="544.5"/>
      <point x="292.5" y="552.0"/>
      <point x="336.0" y="552.0" type="curve" smooth="yes"/>
      <point x="387.0" y="552.0"/>
      <point x="417.5" y="532.0"/>
      <point x="417.5" y="497.5" type="curve" smooth="yes"/>
      <point x="417.5" y="456.5"/>
      <point x="376.5" y="440.0"/>
      <point x="355.5" y="424.0" type="curve"/>
      <point x="424.5" y="354.0" type="line"/>
      <point x="493.5" y="394.0"/>
      <point x="568.5" y="450.0"/>
      <point x="568.5" y="543.5" type="curve" smooth="yes"/>
      <point x="568.5" y="632.0"/>
      <point x="506.5" y="710.0"/>
      <point x="344.5" y="710.0" type="curve" smooth="yes"/>
      <point x="183.5" y="710.0"/>
      <point x="89.0" y="634.0"/>
      <point x="89.0" y="507.5" type="curve" smooth="yes"/>
      <point x="89.0" y="286.0"/>
      <point x="367.5" y="325.5"/>
      <point x="367.5" y="198.5" type="curve" smooth="yes"/>
      <point x="367.5" y="146.0"/>
      <point x="324.5" y="141.0"/>
      <point x="274.0" y="141.0" type="curve" smooth="yes"/>
      <point x="217.0" y="141.0"/>
      <point x="180.5" y="167.5"/>
      <point x="180.5" y="199.5" type="curve" smooth="yes"/>
      <point x="180.5" y="255.0"/>
      <point x="230.0" y="273.0"/>
      <point x="259.0" y="281.5" type="curve"/>
      <point x="186.0" y="366.0" type="line"/>
      <point x="94.0" y="350.0"/>
      <point x="17.0" y="269.0"/>
      <point x="17.0" y="178.5" type="curve" smooth="yes"/>
      <point x="17.0" y="74.5"/>
      <point x="89.5" y="-10.0"/>
    </contour>
  </outline>
</glyph>
<glyph name="nine" format="2">
  <advance width="546.0"/>
  <unicode hex="0039"/>
  <outline>
    <contour>
      <point x="322.5" y="710.0" type="curve" smooth="yes"/>
      <point x="161.0" y="710.0"/>
      <point x="64.0" y="586.5"/>
      <point x="64.0" y="405.0" type="curve" smooth="yes"/>
      <point x="64.0" y="287.0"/>
      <point x="125.5" y="239.0"/>
      <point x="213.0" y="239.0" type="curve" smooth="yes"/>
      <point x="263.5" y="239.0"/>
      <point x="302.5" y="252.0"/>
      <point x="343.5" y="287.0" type="curve"/>
      <point x="356.5" y="415.0" type="line"/>
      <point x="336.0" y="398.0"/>
      <point x="314.5" y="388.0"/>
      <point x="292.5" y="388.0" type="curve" smooth="yes"/>
      <point x="256.0" y="388.0"/>
      <point x="244.5" y="404.0"/>
      <point x="244.5" y="438.0" type="curve" smooth="yes"/>
      <point x="244.5" y="488.5"/>
      <point x="273.0" y="546.0"/>
      <point x="306.5" y="546.0" type="curve" smooth="yes"/>
      <point x="337.5" y="546.0"/>
      <point x="352.5" y="528.0"/>
      <point x="352.5" y="497.0" type="curve" smooth="yes"/>
      <point x="352.5" y="438.0"/>
      <point x="341.0" y="358.0"/>
      <point x="309.0" y="269.5" type="curve" smooth="yes"/>
      <point x="284.0" y="199.5"/>
      <point x="248.5" y="161.5"/>
      <point x="171.5" y="161.5" type="curve" smooth="yes"/>
      <point x="135.0" y="161.5"/>
      <point x="106.0" y="173.5"/>
      <point x="80.0" y="186.0" type="curve"/>
      <point x="11.0" y="30.0" type="line"/>
      <point x="36.5" y="13.0"/>
      <point x="104.0" y="-10.0"/>
      <point x="182.0" y="-10.0" type="curve" smooth="yes"/>
      <point x="417.0" y="-10.0"/>
      <point x="534.5" y="211.0"/>
      <point x="534.5" y="481.0" type="curve" smooth="yes"/>
      <point x="534.5" y="638.0"/>
      <point x="459.0" y="710.0"/>
    </contour>
  </outline>
</glyph>
<glyph name="less" format="2">
  <advance width="454.0"/>
  <unicode hex="003C"/>
  <outline>
    <contour>
      <point x="395.8" y="90.6" type="line"/>
      <point x="420.2" y="246.8" type="line"/>
      <point x="199.6" y="313.2" type="line"/>
      <point x="442.0" y="380.2" type="line"/>
      <point x="466.4" y="536.0" type="line"/>
      <point x="48.2" y="399.59999999999997" type="line"/>
      <point x="21.200000000000003" y="229.2" type="line"/>
    </contour>
  </outline>
</glyph>
<glyph name="equal" format="2">
  <advance width="424.6"/>
  <unicode hex="003D"/>
  <outline>
    <contour>
      <point x="378.6" y="283.8" type="line"/>
      <point x="49.8" y="283.8" type="line"/>
      <point x="24.6" y="114.80000000000001" type="line"/>
      <point x="353.40000000000003" y="114.80000000000001" type="line"/>
    </contour>
    <contour>
      <point x="411.6" y="512.6" type="line"/>
      <point x="83.39999999999999" y="512.6" type="line"/>
      <point x="57.599999999999994" y="343.6" type="line"/>
      <point x="386.40000000000003" y="343.6" type="line"/>
    </contour>
  </outline>
</glyph>
<glyph name="greater" format="2">
  <advance width="454.0"/>
  <unicode hex="003E"/>
  <outline>
    <contour>
      <point x="417.6" y="229.2" type="line"/>
      <point x="444.2" y="396.6" type="line"/>
      <point x="70.8" y="534.0" type="line"/>
      <point x="46.0" y="380.2" type="line"/>
      <point x="267.6" y="313.2" type="line"/>
      <point x="24.6" y="246.8" type="line"/>
      <point x="0.0" y="90.60000000000001" type="line"/>
    </contour>
  </outline>
</glyph>
<glyph name="question" format="2">
  <advance width="421.2"/>
  <unicode hex="003F"/>
  <outline>
    <contour>
      <point x="104.80000000000001" y="259.0" type="line"/>
      <point x="265.2" y="259.0" type="line"/>
      <point x="276.8" y="326.2" type="line"/>
      <point x="380.8" y="364.0"/>
      <point x="455.20000000000005" y="461.2"/>
      <point x="455.20000000000005" y="573.4" type="curve" smooth="yes"/>
      <point x="455.20000000000005" y="693.0"/>
      <point x="384.2" y="750.0"/>
      <point x="274.8" y="750.0" type="curve" smooth="yes"/>
      <point x="201.20000000000002" y="750.0"/>
      <point x="124.80000000000001" y="728.8"/>
      <point x="73.39999999999999" y="690.0" type="curve"/>
      <point x="107.2" y="520.2" type="line"/>
      <point x="142.4" y="542.1999999999999"/>
      <point x="171.20000000000002" y="555.0"/>
      <point x="199.20000000000002" y="555.0" type="curve" smooth="yes"/>
      <point x="229.6" y="555.0"/>
      <point x="243.2" y="539.6"/>
      <point x="243.2" y="519.6" type="curve" smooth="yes"/>
      <point x="243.2" y="471.2"/>
      <point x="194.2" y="436.8"/>
      <point x="126.8" y="415.0" type="curve"/>
    </contour>
    <contour>
      <point x="58.000000000000014" y="67.80000000000001" type="curve" smooth="yes"/>
      <point x="58.0" y="16.0"/>
      <point x="83.19999999999999" y="-10.0"/>
      <point x="141.6" y="-10.0" type="curve" smooth="yes"/>
      <point x="229.79999999999998" y="-10.0"/>
      <point x="263.59999999999997" y="70.0"/>
      <point x="263.6" y="143.6" type="curve" smooth="yes"/>
      <point x="263.6" y="197.0"/>
      <point x="239.20000000000002" y="223.8"/>
      <point x="181.0" y="223.8" type="curve" smooth="yes"/>
      <point x="91.0" y="223.8"/>
      <point x="58.0" y="141.2"/>
    </contour>
  </outline>
</glyph>
<glyph name="at" format="2">
  <advance width="904.0"/>
  <unicode hex="0040"/>
  <outline>
    <contour>
      <point x="402.5" y="-122.5" type="curve" smooth="yes"/>
      <point x="455.0" y="-122.5"/>
      <point x="551.0" y="-106.0"/>
      <point x="606.5" y="-85.5" type="curve"/>
      <point x="590.5" y="-16.5" type="line"/>
      <point x="526.0" y="-33.0"/>
      <point x="461.0" y="-43.0"/>
      <point x="404.0" y="-43.0" type="curve" smooth="yes"/>
      <point x="243.0" y="-43.0"/>
      <point x="117.5" y="35.0"/>
      <point x="117.5" y="243.5" type="curve" smooth="yes"/>
      <point x="117.5" y="411.0"/>
      <point x="249.5" y="640.0"/>
      <point x="506.5" y="640.0" type="curve" smooth="yes"/>
      <point x="699.0" y="640.0"/>
      <point x="796.0" y="537.0"/>
      <point x="796.0" y="354.5" type="curve" smooth="yes"/>
      <point x="796.0" y="298.0"/>
      <point x="784.0" y="159.0"/>
      <point x="687.5" y="159.0" type="curve" smooth="yes"/>
      <point x="631.5" y="159.0"/>
      <point x="624.0" y="192.0"/>
      <point x="639.5" y="254.0" type="curve" smooth="yes"/>
      <point x="709.0" y="519.5" type="line"/>
      <point x="651.0" y="547.0"/>
      <point x="590.0" y="564.5"/>
      <point x="515.0" y="564.5" type="curve" smooth="yes"/>
      <point x="301.5" y="564.5"/>
      <point x="214.5" y="336.5"/>
      <point x="214.5" y="194.0" type="curve" smooth="yes"/>
      <point x="214.5" y="96.0"/>
      <point x="262.0" y="46.0"/>
      <point x="341.5" y="46.0" type="curve" smooth="yes"/>
      <point x="404.0" y="46.0"/>
      <point x="457.0" y="90.0"/>
      <point x="501.0" y="134.5" type="curve"/>
      <point x="522.0" y="61.5"/>
      <point x="575.0" y="41.5"/>
      <point x="649.0" y="41.5" type="curve" smooth="yes"/>
      <point x="819.0" y="41.5"/>
      <point x="879.5" y="213.0"/>
      <point x="879.5" y="368.0" type="curve" smooth="yes"/>
      <point x="879.5" y="588.5"/>
      <point x="726.5" y="718.0"/>
      <point x="524.0" y="718.0" type="curve" smooth="yes"/>
      <point x="197.5" y="718.0"/>
      <point x="32.5" y="463.5"/>
      <point x="32.5" y="225.0" type="curve" smooth="yes"/>
      <point x="32.5" y="7.0"/>
      <point x="169.5" y="-122.5"/>
    </contour>
    <contour>
      <point x="428.0" y="211.0" type="curve" smooth="yes"/>
      <point x="401.5" y="211.0"/>
      <point x="387.0" y="224.5"/>
      <point x="387.0" y="246.5" type="curve" smooth="yes"/>
      <point x="387.0" y="274.0"/>
      <point x="441.0" y="434.0"/>
      <point x="500.5" y="434.0" type="curve" smooth="yes"/>
      <point x="515.0" y="434.0"/>
      <point x="524.0" y="431.5"/>
      <point x="537.0" y="426.0" type="curve"/>
      <point x="484.5" y="221.0" type="line" smooth="yes"/>
      <point x="472.5" y="218.0"/>
      <point x="449.0" y="211.0"/>
    </contour>
  </outline>
</glyph>
<glyph name="A" format="2">
  <advance width="540.8"/>
  <unicode hex="0041"/>
  <anchor x="227.1" y="0.0" name="bottom"/>
  <anchor x="494.6" y="0.0" name="ogonek"/>
  <anchor x="332.7" y="700.0" name="top"/>
  <outline>
    <contour>
      <point x="-41.8" y="0.0" type="line"/>
      <point x="159.8" y="0.0" type="line"/>
      <point x="187.5" y="96.8" type="line"/>
      <point x="295.1" y="96.8" type="line"/>
      <point x="292.5" y="0.0" type="line"/>
      <point x="494.6" y="0.0" type="line"/>
      <point x="467.9" y="702.0" type="line"/>
      <point x="198.5" y="702.0" type="line"/>
    </contour>
    <contour>
      <point x="238.2" y="262.8" type="line"/>
      <point x="313.1" y="561.3" type="line"/>
      <point x="299.2" y="262.8" type="line"/>
    </contour>
  </outline>
</glyph>
<glyph name="B" format="2">
  <advance width="519.4"/>
  <unicode hex="0042"/>
  <outline>
    <contour>
      <point x="-9.399999999999999" y="5.0" type="line"/>
      <point x="80.4" y="-5.6000000000000005"/>
      <point x="136.0" y="-10.0"/>
      <point x="220.20000000000002" y="-10.0" type="curve" smooth="yes"/>
      <point x="398.2" y="-10.0"/>
      <point x="504.80000000000007" y="97.4"/>
      <point x="504.80000000000007" y="255.6" type="curve" smooth="yes"/>
      <point x="504.80000000000007" y="317.6"/>
      <point x="480.8" y="368.4"/>
      <point x="431.59999999999997" y="388.79999999999995" type="curve"/>
      <point x="496.2" y="427.8"/>
      <point x="531.2" y="486.59999999999997"/>
      <point x="531.2" y="561.4" type="curve" smooth="yes"/>
      <point x="531.2" y="652.6"/>
      <point x="470.59999999999997" y="710.0"/>
      <point x="322.0" y="710.0" type="curve" smooth="yes"/>
      <point x="278.8" y="710.0"/>
      <point x="203.0" y="706.8000000000001"/>
      <point x="99.8" y="695.0" type="curve"/>
    </contour>
    <contour>
      <point x="246.4" y="426.0" type="line"/>
      <point x="264.4" y="542.1999999999999" type="line"/>
      <point x="282.2" y="544.4"/>
      <point x="287.6" y="546.2"/>
      <point x="304.0" y="546.2" type="curve" smooth="yes"/>
      <point x="336.40000000000003" y="546.2"/>
      <point x="346.79999999999995" y="536.8000000000001"/>
      <point x="346.79999999999995" y="506.6" type="curve" smooth="yes"/>
      <point x="346.79999999999995" y="448.0"/>
      <point x="318.2" y="426.0"/>
      <point x="292.40000000000003" y="426.0" type="curve" smooth="yes"/>
    </contour>
    <contour>
      <point x="222.0" y="273.59999999999997" type="line"/>
      <point x="271.0" y="273.59999999999997" type="line" smooth="yes"/>
      <point x="302.59999999999997" y="273.59999999999997"/>
      <point x="313.40000000000003" y="261.4"/>
      <point x="313.40000000000003" y="236.0" type="curve" smooth="yes"/>
      <point x="313.40000000000003" y="176.2"/>
      <point x="287.4" y="152.0"/>
      <point x="238.20000000000002" y="152.0" type="curve" smooth="yes"/>
      <point x="231.4" y="152.0"/>
      <point x="215.8" y="152.4"/>
      <point x="203.0" y="155.20000000000002" type="curve"/>
    </contour>
  </outline>
</glyph>
<glyph name="C" format="2">
  <advance width="467.0"/>
  <unicode hex="0043"/>
  <anchor x="234.5" y="0.0" name="bottom"/>
  <anchor x="349.5" y="700.0" name="top"/>
  <outline>
    <contour>
      <point x="277.5" y="-10.0" type="curve" smooth="yes"/>
      <point x="327.5" y="-10.0"/>
      <point x="370.5" y="-4.999999999999999"/>
      <point x="418.0" y="9.0" type="curve"/>
      <point x="410.0" y="171.5" type="line"/>
      <point x="378.99999999999994" y="165.5"/>
      <point x="348.0" y="160.0"/>
      <point x="319.0" y="160.0" type="curve" smooth="yes"/>
      <point x="252.0" y="160.0"/>
      <point x="216.0" y="178.99999999999997"/>
      <point x="216.0" y="264.5" type="curve" smooth="yes"/>
      <point x="216.0" y="412.5"/>
      <point x="265.5" y="540.0"/>
      <point x="361.0" y="540.0" type="curve" smooth="yes"/>
      <point x="396.0" y="540.0"/>
      <point x="431.0" y="532.5"/>
      <point x="461.0" y="522.0" type="curve"/>
      <point x="514.5" y="677.0" type="line"/>
      <point x="466.0" y="700.5"/>
      <point x="405.99999999999994" y="710.0"/>
      <point x="347.5" y="710.0" type="curve" smooth="yes"/>
      <point x="145.0" y="710.0"/>
      <point x="21.5" y="523.0"/>
      <point x="21.5" y="233.5" type="curve" smooth="yes"/>
      <point x="21.5" y="66.0"/>
      <point x="112.0" y="-10.0"/>
    </contour>
  </outline>
</glyph>
<glyph name="D" format="2">
  <advance width="547.4999999999999"/>
  <unicode hex="0044"/>
  <anchor x="225.00000000000003" y="0.0" name="bottom"/>
  <anchor x="285.4395" y="350.0" name="center"/>
  <anchor x="310.0" y="700.0" name="top"/>
  <outline>
    <contour>
      <point x="211.5" y="-10.0" type="curve" smooth="yes"/>
      <point x="437.5" y="-10.0"/>
      <point x="546.5" y="176.0"/>
      <point x="546.5" y="449.0" type="curve" smooth="yes"/>
      <point x="546.5" y="627.0"/>
      <point x="464.0" y="710.0"/>
      <point x="291.0" y="710.0" type="curve" smooth="yes"/>
      <point x="231.5" y="710.0"/>
      <point x="173.5" y="707.0"/>
      <point x="100.0" y="698.5" type="curve"/>
      <point x="-11.0" y="4.0" type="line"/>
      <point x="55.0" y="-5.0"/>
      <point x="125.5" y="-10.0"/>
    </contour>
    <contour>
      <point x="236.50000000000003" y="148.0" type="curve" smooth="yes"/>
      <point x="220.0" y="148.0"/>
      <point x="213.5" y="149.5"/>
      <point x="201.49999999999997" y="150.5" type="curve"/>
      <point x="264.0" y="542.0" type="line"/>
      <point x="273.0" y="543.0"/>
      <point x="283.00000000000006" y="544.0"/>
      <point x="298.0" y="544.0" type="curve" smooth="yes"/>
      <point x="338.0" y="544.0"/>
      <point x="355.0" y="513.5"/>
      <point x="355.0" y="447.49999999999994" type="curve" smooth="yes"/>
      <point x="355.0" y="308.50000000000006"/>
      <point x="305.0" y="148.0"/>
    </contour>
  </outline>
</glyph>
<glyph name="E" format="2">
  <advance width="461.40000000000003"/>
  <unicode hex="0045"/>
  <anchor x="195.40000000000003" y="0.0" name="bottom"/>
  <anchor x="401.20000000000005" y="0.0" name="ogonek"/>
  <anchor x="301.4" y="700.0" name="top"/>
  <anchor x="87.313" y="700.0" name="topleft"/>
  <outline>
    <contour>
      <point x="-11.2" y="0.0" type="line"/>
      <point x="401.20000000000005" y="0.0" type="line"/>
      <point x="428.0" y="167.4" type="line"/>
      <point x="203.0" y="167.4" type="line"/>
      <point x="219.2" y="271.4" type="line"/>
      <point x="408.0" y="271.4" type="line"/>
      <point x="434.0" y="425.8" type="line"/>
      <point x="244.4" y="425.8" type="line"/>
      <point x="260.6" y="528.6" type="line"/>
      <point x="472.8" y="528.6" type="line"/>
      <point x="501.2" y="700.0" type="line"/>
      <point x="99.8" y="700.0" type="line"/>
    </contour>
  </outline>
</glyph>
<glyph name="F" format="2">
  <advance width="444.8"/>
  <unicode hex="0046"/>
  <outline>
    <contour>
      <point x="-12.0" y="0.0" type="line"/>
      <point x="177.6" y="0.0" type="line"/>
      <point x="211.2" y="209.60000000000002" type="line"/>
      <point x="387.6" y="209.60000000000002" type="line"/>
      <point x="415.40000000000003" y="382.0" type="line"/>
      <point x="238.20000000000002" y="382.0" type="line"/>
      <point x="261.2" y="525.6" type="line"/>
      <point x="468.8" y="525.6" type="line"/>
      <point x="497.8" y="700.0" type="line"/>
      <point x="99.8" y="700.0" type="line"/>
    </contour>
  </outline>
</glyph>
<glyph name="G" format="2">
  <advance width="514.8"/>
  <unicode hex="0047"/>
  <anchor x="261.8" y="0.0" name="bottom"/>
  <anchor x="355.8" y="700.0" name="top"/>
  <outline>
    <contour>
      <point x="262.40000000000003" y="-10.0" type="curve" smooth="yes"/>
      <point x="337.20000000000005" y="-10.0"/>
      <point x="408.0" y="5.0"/>
      <point x="455.00000000000006" y="35.6" type="curve"/>
      <point x="516.2" y="417.6" type="line"/>
      <point x="292.8" y="417.6" type="line"/>
      <point x="269.20000000000005" y="268.0" type="line"/>
      <point x="325.8" y="268.0" type="line"/>
      <point x="307.80000000000007" y="155.6" type="line"/>
      <point x="300.8" y="152.0"/>
      <point x="285.40000000000003" y="149.4"/>
      <point x="269.6" y="149.4" type="curve" smooth="yes"/>
      <point x="227.0" y="149.4"/>
      <point x="206.20000000000002" y="169.20000000000002"/>
      <point x="206.20000000000002" y="244.79999999999998" type="curve" smooth="yes"/>
      <point x="206.20000000000002" y="390.4"/>
      <point x="257.0" y="540.0"/>
      <point x="361.0" y="540.0" type="curve" smooth="yes"/>
      <point x="409.8" y="540.0"/>
      <point x="448.4" y="527.8"/>
      <point x="480.0" y="518.6" type="curve"/>
      <point x="537.4" y="678.6" type="line"/>
      <point x="480.6" y="701.6"/>
      <point x="419.6" y="710.0"/>
      <point x="354.0" y="710.0" type="curve" smooth="yes"/>
      <point x="108.8" y="710.0"/>
      <point x="19.4" y="443.79999999999995"/>
      <point x="19.4" y="232.8" type="curve" smooth="yes"/>
      <point x="19.4" y="73.4"/>
      <point x="110.19999999999999" y="-10.0"/>
    </contour>
  </outline>
</glyph>
<glyph name="H" format="2">
  <advance width="540.8"/>
  <unicode hex="0048"/>
  <anchor x="226.844" y="0.0" name="bottom"/>
  <anchor x="282.279" y="350.0" name="center"/>
  <anchor x="337.713" y="700.0" name="top"/>
  <anchor x="87.313" y="700.0" name="topleft"/>
  <outline>
    <contour>
      <point x="-12.0" y="0.0" type="line"/>
      <point x="177.6" y="0.0" type="line"/>
      <point x="214.79999999999998" y="237.4" type="line"/>
      <point x="313.79999999999995" y="237.4" type="line"/>
      <point x="277.0" y="0.0" type="line"/>
      <point x="464.0" y="0.0" type="line"/>
      <point x="575.8" y="700.0" type="line"/>
      <point x="388.2" y="700.0" type="line"/>
      <point x="341.2" y="407.6" type="line"/>
      <point x="242.20000000000002" y="407.6" type="line"/>
      <point x="289.40000000000003" y="700.0" type="line"/>
      <point x="99.8" y="700.0" type="line"/>
    </contour>
  </outline>
</glyph>
<glyph name="I" format="2">
  <advance width="254.4"/>
  <unicode hex="0049"/>
  <anchor x="83.55520000000001" y="0.0" name="bottom"/>
  <anchor x="180.0224" y="8.0" name="ogonek"/>
  <anchor x="194.4504" y="700.0" name="top"/>
  <anchor x="87.25040000000001" y="700.0" name="topleft"/>
  <outline>
    <contour>
      <point x="-12.0" y="0.0" type="line"/>
      <point x="177.60000000000002" y="0.0" type="line"/>
      <point x="289.40000000000003" y="700.0" type="line"/>
      <point x="99.8" y="700.0" type="line"/>
    </contour>
  </outline>
</glyph>
<glyph name="J" format="2">
  <advance width="402.20000000000005"/>
  <unicode hex="004A"/>
  <anchor x="157.1552" y="0.0" name="bottom"/>
  <anchor x="276.2" y="700.0" name="top"/>
  <outline>
    <contour>
      <point x="-34.800000000000004" y="26.799999999999997" type="line"/>
      <point x="13.4" y="5.4"/>
      <point x="70.80000000000001" y="-10.0"/>
      <point x="139.60000000000002" y="-10.0" type="curve" smooth="yes"/>
      <point x="263.0" y="-10.0"/>
      <point x="338.0" y="65.80000000000001"/>
      <point x="363.0" y="217.20000000000002" type="curve" smooth="yes"/>
      <point x="440.4" y="700.0" type="line"/>
      <point x="114.4" y="700.0" type="line"/>
      <point x="87.4" y="533.4" type="line"/>
      <point x="223.8" y="533.4" type="line"/>
      <point x="183.8" y="282.2" type="line" smooth="yes"/>
      <point x="169.8" y="194.6"/>
      <point x="149.0" y="175.6"/>
      <point x="105.2" y="175.6" type="curve" smooth="yes"/>
      <point x="84.2" y="175.6"/>
      <point x="51.8" y="182.8"/>
      <point x="17.6" y="192.60000000000002" type="curve"/>
    </contour>
  </outline>
</glyph>
<glyph name="K" format="2">
  <advance width="545.9"/>
  <unicode hex="004B"/>
  <anchor x="249.5" y="0.0" name="bottom"/>
  <anchor x="342.7" y="700.0" name="top"/>
  <outline>
    <contour>
      <point x="-12.3" y="0.0" type="line"/>
      <point x="177.8" y="0.0" type="line"/>
      <point x="289.1" y="700.0" type="line"/>
      <point x="100.2" y="700.0" type="line"/>
    </contour>
    <contour>
      <point x="429.4" y="-9.8" type="curve" smooth="yes"/>
      <point x="448.3" y="-9.8"/>
      <point x="481.2" y="-2.5"/>
      <point x="490.3" y="1.2" type="curve"/>
      <point x="512.9" y="217.6" type="line"/>
      <point x="507.2" y="217.7"/>
      <point x="502.0" y="217.5"/>
      <point x="496.8" y="217.5" type="curve" smooth="yes"/>
      <point x="467.8" y="217.5"/>
      <point x="434.9" y="231.0"/>
      <point x="397.8" y="276.4" type="curve" smooth="yes"/>
      <point x="219.7" y="491.7" type="line"/>
      <point x="187.3" y="244.1" type="line"/>
      <point x="311.5" y="61.4" type="line" smooth="yes"/>
      <point x="342.0" y="16.2"/>
      <point x="378.2" y="-9.8"/>
    </contour>
    <contour>
      <point x="335.3" y="275.4" type="line"/>
      <point x="463.1" y="382.4"/>
      <point x="550.7" y="501.3"/>
      <point x="591.0" y="635.4" type="curve"/>
      <point x="434.8" y="703.8" type="line"/>
      <point x="385.2" y="586.7"/>
      <point x="320.8" y="478.7"/>
      <point x="245.6" y="414.0" type="curve"/>
    </contour>
  </outline>
</glyph>
<glyph name="L" format="2">
  <advance width="436.0"/>
  <unicode hex="004C"/>
  <anchor x="192.8" y="0.0" name="bottom"/>
  <anchor x="229.87900000000002" y="350.0" name="center"/>
  <anchor x="194.6" y="700.0" name="top"/>
  <anchor x="338.59999999999997" y="700.0" name="topright"/>
  <outline>
    <contour>
      <point x="-12.0" y="0.0" type="line"/>
      <point x="376.8" y="0.0" type="line"/>
      <point x="404.8" y="171.4" type="line"/>
      <point x="205.2" y="171.4" type="line"/>
      <point x="289.4" y="700.0" type="line"/>
      <point x="99.8" y="700.0" type="line"/>
    </contour>
  </outline>
</glyph>
<glyph name="M" format="2">
  <advance width="634.7"/>
  <unicode hex="004D"/>
  <outline>
    <contour>
      <point x="-12.3" y="0.0" type="line"/>
      <point x="160.8" y="0.0" type="line"/>
      <point x="219.0" y="379.3" type="line"/>
      <point x="248.3" y="121.8" type="line"/>
      <point x="332.0" y="121.8" type="line"/>
      <point x="445.9" y="376.9" type="line"/>
      <point x="384.9" y="0.0" type="line"/>
      <point x="557.9" y="0.0" type="line"/>
      <point x="669.7" y="700.0" type="line"/>
      <point x="464.6" y="700.0" type="line"/>
      <point x="331.5" y="404.4" type="line"/>
      <point x="290.3" y="700.0" type="line"/>
      <point x="99.8" y="700.0" type="line"/>
    </contour>
  </outline>
</glyph>
<glyph name="N" format="2">
  <advance width="539.5"/>
  <unicode hex="004E"/>
  <anchor x="231.0" y="0.0" name="bottom"/>
  <anchor x="337.5" y="700.0" name="top"/>
  <outline>
    <contour>
      <point x="-12.0" y="0.0" type="line"/>
      <point x="156.5" y="0.0" type="line"/>
      <point x="207.5" y="310.0" type="line"/>
      <point x="280.5" y="0.0" type="line"/>
      <point x="462.5" y="0.0" type="line"/>
      <point x="574.5" y="700.0" type="line"/>
      <point x="405.5" y="700.0" type="line"/>
      <point x="349.0" y="361.0" type="line"/>
      <point x="282.0" y="700.0" type="line"/>
      <point x="100.0" y="700.0" type="line"/>
    </contour>
  </outline>
</glyph>
<glyph name="O" format="2">
  <advance width="548.5"/>
  <unicode hex="004F"/>
  <note>
8
</note>
  <anchor x="230.0" y="0.0" name="bottom"/>
  <anchor x="285.0" y="350.0" name="center"/>
  <anchor x="316.5" y="2.0" name="ogonek"/>
  <anchor x="337.5" y="700.0" name="top"/>
  <anchor x="85.5" y="700.0" name="topleft"/>
  <anchor x="471.0" y="697.5" name="topright"/>
  <outline>
    <contour>
      <point x="247.0" y="-8.0" type="curve" smooth="yes"/>
      <point x="457.0" y="-8.0"/>
      <point x="544.5" y="220.5"/>
      <point x="550.0" y="458.5" type="curve" smooth="yes"/>
      <point x="554.0" y="621.5"/>
      <point x="483.0" y="708.0"/>
      <point x="325.5" y="708.0" type="curve" smooth="yes"/>
      <point x="115.5" y="708.0"/>
      <point x="28.0" y="479.5"/>
      <point x="22.5" y="241.5" type="curve" smooth="yes"/>
      <point x="18.5" y="78.5"/>
      <point x="89.5" y="-8.0"/>
    </contour>
    <contour>
      <point x="258.5" y="167.0" type="curve" smooth="yes"/>
      <point x="228.0" y="167.0"/>
      <point x="214.0" y="178.5"/>
      <point x="214.0" y="230.5" type="curve" smooth="yes"/>
      <point x="214.0" y="325.0"/>
      <point x="258.0" y="533.0"/>
      <point x="314.0" y="533.0" type="curve" smooth="yes"/>
      <point x="344.5" y="533.0"/>
      <point x="358.5" y="521.0"/>
      <point x="358.5" y="469.0" type="curve" smooth="yes"/>
      <point x="358.5" y="374.5"/>
      <point x="314.5" y="167.0"/>
    </contour>
  </outline>
</glyph>
<glyph name="P" format="2">
  <advance width="538.0"/>
  <unicode hex="0050"/>
  <outline>
    <contour>
      <point x="-11.5" y="0.0" type="line"/>
      <point x="177.5" y="0.0" type="line"/>
      <point x="203.5" y="159.0" type="line"/>
      <point x="241.5" y="155.0"/>
      <point x="250.5" y="155.0"/>
      <point x="275.0" y="155.0" type="curve" smooth="yes"/>
      <point x="455.5" y="155.0"/>
      <point x="557.0" y="291.5"/>
      <point x="557.0" y="504.0" type="curve" smooth="yes"/>
      <point x="557.0" y="644.0"/>
      <point x="490.5" y="710.0"/>
      <point x="329.5" y="710.0" type="curve" smooth="yes"/>
      <point x="282.0" y="710.0"/>
      <point x="195.0" y="707.0"/>
      <point x="100.5" y="701.5" type="curve"/>
    </contour>
    <contour>
      <point x="265.0" y="542.0" type="line"/>
      <point x="290.5" y="544.0"/>
      <point x="297.5" y="545.0"/>
      <point x="316.5" y="545.0" type="curve" smooth="yes"/>
      <point x="355.5" y="545.0"/>
      <point x="368.0" y="523.5"/>
      <point x="368.0" y="475.0" type="curve" smooth="yes"/>
      <point x="368.0" y="403.0"/>
      <point x="333.0" y="320.5"/>
      <point x="264.5" y="320.5" type="curve" smooth="yes"/>
      <point x="254.5" y="320.5"/>
      <point x="247.5" y="321.0"/>
      <point x="229.5" y="323.0" type="curve"/>
    </contour>
  </outline>
</glyph>
<glyph name="Q" format="2">
  <advance width="549.6"/>
  <unicode hex="0051"/>
  <note>
14
</note>
  <outline>
    <contour>
      <point x="389.0" y="-171.2" type="curve" smooth="yes"/>
      <point x="411.6" y="-171.2"/>
      <point x="434.8" y="-168.2"/>
      <point x="456.8" y="-162.0" type="curve"/>
      <point x="472.80000000000007" y="-2.1999999999999993" type="line"/>
      <point x="462.8" y="-5.6"/>
      <point x="449.8" y="-7.6"/>
      <point x="435.4" y="-7.6" type="curve" smooth="yes"/>
      <point x="396.0" y="-7.6"/>
      <point x="367.40000000000003" y="8.4"/>
      <point x="361.8" y="25.2" type="curve"/>
      <point x="204.20000000000002" y="16.8" type="line"/>
      <point x="210.6" y="-126.39999999999999"/>
      <point x="303.2" y="-171.2"/>
    </contour>
    <component base="O"/>
  </outline>
</glyph>
<glyph name="R" format="2">
  <advance width="551.0"/>
  <unicode hex="0052"/>
  <anchor x="250.0" y="0.0" name="bottom"/>
  <anchor x="310.5" y="700.0" name="top"/>
  <outline>
    <contour>
      <point x="-12.0" y="0.0" type="line"/>
      <point x="177.5" y="0.0" type="line"/>
      <point x="210.0" y="204.0" type="line"/>
      <point x="230.0" y="204.0"/>
      <point x="249.0" y="204.0"/>
      <point x="269.0" y="203.5" type="curve"/>
      <point x="289.0" y="229.0" type="line"/>
      <point x="449.0" y="229.0"/>
      <point x="557.0" y="334.0"/>
      <point x="557.0" y="506.0" type="curve" smooth="yes"/>
      <point x="557.0" y="634.5"/>
      <point x="479.5" y="710.0"/>
      <point x="320.5" y="710.0" type="curve" smooth="yes"/>
      <point x="257.0" y="710.0"/>
      <point x="187.5" y="705.5"/>
      <point x="100.0" y="699.0" type="curve"/>
    </contour>
    <contour>
      <point x="434.0" y="-10.0" type="curve" smooth="yes"/>
      <point x="446.5" y="-10.0"/>
      <point x="479.0" y="-6.0"/>
      <point x="490.5" y="0.0" type="curve"/>
      <point x="513.5" y="190.5" type="line"/>
      <point x="509.5" y="190.0"/>
      <point x="504.0" y="190.0"/>
      <point x="499.5" y="190.0" type="curve" smooth="yes"/>
      <point x="457.0" y="190.0"/>
      <point x="415.5" y="221.0"/>
      <point x="392.5" y="282.0" type="curve"/>
      <point x="221.5" y="237.0" type="line"/>
      <point x="290.0" y="24.0"/>
      <point x="350.0" y="-10.0"/>
    </contour>
    <contour>
      <point x="270.5" y="350.0" type="curve" smooth="yes"/>
      <point x="257.5" y="350.0"/>
      <point x="245.5" y="351.0"/>
      <point x="233.5" y="353.0" type="curve"/>
      <point x="264.5" y="546.0" type="line"/>
      <point x="290.0" y="548.0"/>
      <point x="298.0" y="549.0"/>
      <point x="316.0" y="549.0" type="curve" smooth="yes"/>
      <point x="351.0" y="549.0"/>
      <point x="363.5" y="524.5"/>
      <point x="363.5" y="493.0" type="curve" smooth="yes"/>
      <point x="363.5" y="415.5"/>
      <point x="324.0" y="350.0"/>
    </contour>
  </outline>
</glyph>
<glyph name="S" format="2">
  <advance width="486.0"/>
  <unicode hex="0053"/>
  <anchor x="217.0" y="0.0" name="bottom"/>
  <anchor x="316.5" y="700.0" name="top"/>
  <outline>
    <contour>
      <point x="507.5" y="670.5" type="line"/>
      <point x="459.0" y="694.5"/>
      <point x="395.5" y="710.0"/>
      <point x="321.5" y="710.0" type="curve" smooth="yes"/>
      <point x="140.0" y="710.0"/>
      <point x="44.5" y="620.0"/>
      <point x="44.5" y="475.0" type="curve" smooth="yes"/>
      <point x="44.5" y="289.0"/>
      <point x="268.5" y="274.0"/>
      <point x="268.5" y="202.5" type="curve" smooth="yes"/>
      <point x="268.5" y="176.5"/>
      <point x="248.5" y="155.0"/>
      <point x="196.0" y="155.0" type="curve" smooth="yes"/>
      <point x="143.5" y="155.0"/>
      <point x="93.0" y="167.0"/>
      <point x="27.5" y="192.0" type="curve"/>
      <point x="-28.5" y="37.0" type="line"/>
      <point x="28.5" y="7.0"/>
      <point x="104.0" y="-10.0"/>
      <point x="193.5" y="-10.0" type="curve" smooth="yes"/>
      <point x="372.5" y="-10.0"/>
      <point x="466.5" y="82.5"/>
      <point x="466.5" y="216.0" type="curve" smooth="yes"/>
      <point x="466.5" y="406.0"/>
      <point x="246.5" y="425.5"/>
      <point x="246.5" y="494.0" type="curve" smooth="yes"/>
      <point x="246.5" y="529.0"/>
      <point x="269.5" y="545.5"/>
      <point x="322.5" y="545.5" type="curve" smooth="yes"/>
      <point x="367.0" y="545.5"/>
      <point x="414.5" y="537.5"/>
      <point x="455.0" y="520.5" type="curve"/>
    </contour>
  </outline>
</glyph>
<glyph name="T" format="2">
  <advance width="488.79999999999995"/>
  <unicode hex="0054"/>
  <anchor x="200.7552" y="0.0" name="bottom"/>
  <anchor x="256.3032" y="350.0" name="center"/>
  <anchor x="311.6504" y="700.0" name="top"/>
  <outline>
    <contour>
      <point x="517.6" y="536.4" type="line"/>
      <point x="545.4" y="700.0" type="line"/>
      <point x="79.6" y="700.0" type="line"/>
      <point x="51.6" y="536.4" type="line"/>
      <point x="190.4" y="536.4" type="line"/>
      <point x="105.4" y="0.0" type="line"/>
      <point x="295.0" y="0.0" type="line"/>
      <point x="379.79999999999995" y="536.4" type="line"/>
    </contour>
  </outline>
</glyph>
<glyph name="U" format="2">
  <advance width="531.0"/>
  <unicode hex="0055"/>
  <anchor x="222.044" y="0.0" name="bottom"/>
  <anchor x="305.0" y="0.0" name="ogonek"/>
  <anchor x="332.913" y="700.0" name="top"/>
  <anchor x="544.8000000000001" y="700.0" name="topright"/>
  <outline>
    <contour>
      <point x="217.39999999999998" y="-10.0" type="curve" smooth="yes"/>
      <point x="381.40000000000003" y="-10.0"/>
      <point x="466.59999999999997" y="61.400000000000006"/>
      <point x="492.59999999999997" y="221.6" type="curve" smooth="yes"/>
      <point x="569.2" y="700.0" type="line"/>
      <point x="381.0" y="700.0" type="line"/>
      <point x="301.4" y="197.6" type="line" smooth="yes"/>
      <point x="297.40000000000003" y="168.6"/>
      <point x="279.59999999999997" y="155.8"/>
      <point x="246.60000000000002" y="155.8" type="curve" smooth="yes"/>
      <point x="214.0" y="155.8"/>
      <point x="199.6" y="170.4"/>
      <point x="204.6" y="197.60000000000002" type="curve" smooth="yes"/>
      <point x="285.40000000000003" y="700.0" type="line"/>
      <point x="97.2" y="700.0" type="line"/>
      <point x="20.6" y="221.6" type="line" smooth="yes"/>
      <point x="15.8" y="191.0"/>
      <point x="14.000000000000002" y="172.6"/>
      <point x="14.000000000000002" y="156.0" type="curve" smooth="yes"/>
      <point x="14.000000000000002" y="43.2"/>
      <point x="79.6" y="-10.0"/>
    </contour>
  </outline>
</glyph>
<glyph name="V" format="2">
  <advance width="533.5"/>
  <unicode hex="0056"/>
  <outline>
    <contour>
      <point x="335.5" y="0.0" type="line"/>
      <point x="506.0" y="327.5"/>
      <point x="564.5" y="478.0"/>
      <point x="592.0" y="677.0" type="curve" smooth="yes"/>
      <point x="593.0" y="685.0"/>
      <point x="594.0" y="692.0"/>
      <point x="594.5" y="700.0" type="curve"/>
      <point x="386.5" y="700.0" type="line"/>
      <point x="386.5" y="695.5"/>
      <point x="387.0" y="690.5"/>
      <point x="387.0" y="684.0" type="curve" smooth="yes"/>
      <point x="380.5" y="519.5"/>
      <point x="322.0" y="377.0"/>
      <point x="255.0" y="178.5" type="curve"/>
      <point x="278.5" y="700.0" type="line"/>
      <point x="65.0" y="700.0" type="line"/>
      <point x="97.0" y="0.0" type="line"/>
    </contour>
  </outline>
</glyph>
<glyph name="W" format="2">
  <advance width="807.0"/>
  <unicode hex="0057"/>
  <anchor x="355.5" y="0.0" name="bottom"/>
  <anchor x="466.5" y="700.0" name="top"/>
  <outline>
    <contour>
      <point x="638.0" y="0.0" type="line"/>
      <point x="812.0" y="454.5"/>
      <point x="856.0" y="570.5"/>
      <point x="864.0" y="687.0" type="curve" smooth="yes"/>
      <point x="864.0" y="691.0"/>
      <point x="864.0" y="696.0"/>
      <point x="864.5" y="700.0" type="curve"/>
      <point x="689.0" y="700.0" type="line"/>
      <point x="689.0" y="696.0"/>
      <point x="689.0" y="692.5"/>
      <point x="689.0" y="688.0" type="curve" smooth="yes"/>
      <point x="682.0" y="529.5"/>
      <point x="647.0" y="465.0"/>
      <point x="553.5" y="193.0" type="curve"/>
      <point x="547.0" y="658.0" type="line"/>
      <point x="379.0" y="658.0" type="line"/>
      <point x="343.5" y="509.0"/>
      <point x="286.5" y="303.0"/>
      <point x="237.0" y="188.5" type="curve"/>
      <point x="245.0" y="700.0" type="line"/>
      <point x="65.5" y="700.0" type="line"/>
      <point x="85.0" y="0.0" type="line"/>
      <point x="273.0" y="0.0" type="line"/>
      <point x="339.0" y="148.0"/>
      <point x="389.0" y="280.0"/>
      <point x="421.0" y="365.0" type="curve"/>
      <point x="439.0" y="0.0" type="line"/>
    </contour>
  </outline>
</glyph>
<glyph name="X" format="2">
  <advance width="563.0"/>
  <unicode hex="0058"/>
  <outline>
    <contour>
      <point x="340.0" y="-0.5" type="line"/>
      <point x="524.5" y="1.0" type="line"/>
      <point x="433.0" y="353.5" type="line"/>
      <point x="563.0" y="616.0"/>
      <point x="598.5" y="636.0"/>
      <point x="607.5" y="701.0" type="curve"/>
      <point x="431.5" y="702.5" type="line"/>
      <point x="420.5" y="628.0"/>
      <point x="373.0" y="559.0"/>
      <point x="304.5" y="460.0" type="curve"/>
      <point x="259.0" y="700.5" type="line"/>
      <point x="79.5" y="699.0" type="line"/>
      <point x="145.5" y="357.0" type="line"/>
      <point x="38.5" y="179.5"/>
      <point x="-10.0" y="112.0"/>
      <point x="-22.0" y="0.0" type="curve"/>
      <point x="161.5" y="0.0" type="line"/>
      <point x="173.5" y="103.5"/>
      <point x="196.0" y="129.5"/>
      <point x="280.0" y="250.5" type="curve"/>
    </contour>
  </outline>
</glyph>
<glyph name="Y" format="2">
  <advance width="517.7"/>
  <unicode hex="0059"/>
  <anchor x="216.3" y="0.0" name="bottom"/>
  <anchor x="329.1" y="700.0" name="top"/>
  <anchor x="88.9" y="700.0" name="topleft"/>
  <outline>
    <contour>
      <point x="119.3" y="0.0" type="line"/>
      <point x="305.7" y="0.0" type="line"/>
      <point x="340.5" y="211.6" type="line"/>
      <point x="467.4" y="395.6"/>
      <point x="527.2" y="518.3"/>
      <point x="580.5" y="669.6" type="curve" smooth="yes"/>
      <point x="583.2" y="679.3"/>
      <point x="587.5" y="690.5"/>
      <point x="590.7" y="700.7" type="curve"/>
      <point x="375.0" y="700.2" type="line"/>
      <point x="373.8" y="690.9"/>
      <point x="371.8" y="681.3"/>
      <point x="370.3" y="672.2" type="curve" smooth="yes"/>
      <point x="347.3" y="570.1"/>
      <point x="327.1" y="480.4"/>
      <point x="276.7" y="372.5" type="curve"/>
      <point x="282.2" y="699.8" type="line"/>
      <point x="63.7" y="699.8" type="line"/>
      <point x="154.0" y="211.6" type="line"/>
    </contour>
  </outline>
</glyph>
<glyph name="Z" format="2">
  <advance width="488.0"/>
  <unicode hex="005A"/>
  <anchor x="200.5" y="0.0" name="bottom"/>
  <anchor x="256.5" y="350.0" name="center"/>
  <anchor x="309.5" y="700.0" name="top"/>
  <outline>
    <contour>
      <point x="-28.0" y="0.0" type="line"/>
      <point x="425.0" y="0.0" type="line"/>
      <point x="452.5" y="164.5" type="line"/>
      <point x="219.5" y="164.5" type="line"/>
      <point x="506.0" y="532.0" type="line"/>
      <point x="533.0" y="700.0" type="line"/>
      <point x="95.5" y="700.0" type="line"/>
      <point x="68.0" y="535.5" type="line"/>
      <point x="290.0" y="535.5" type="line"/>
      <point x="-2.0" y="163.5" type="line"/>
    </contour>
  </outline>
</glyph>
<glyph name="bracketleft" format="2">
  <advance width="291.20000000000005"/>
  <unicode hex="005B"/>
  <outline>
    <contour>
      <point x="122.4" y="-60.0" type="line"/>
      <point x="228.2" y="590.0" type="line"/>
      <point x="326.4" y="590.0" type="line"/>
      <point x="351.4" y="740.0" type="line"/>
      <point x="105.4" y="740.0" type="line"/>
      <point x="-50.2" y="-210.0" type="line"/>
      <point x="194.79999999999998" y="-210.0" type="line"/>
      <point x="220.6" y="-60.0" type="line"/>
    </contour>
  </outline>
</glyph>
<glyph name="backslash" format="2">
  <advance width="365.2"/>
  <unicode hex="005C"/>
  <outline>
    <contour>
      <point x="218.6" y="740.0" type="line"/>
      <point x="70.8" y="740.0" type="line"/>
      <point x="182.2" y="-210.0" type="line"/>
      <point x="329.2" y="-210.0" type="line"/>
    </contour>
  </outline>
</glyph>
<glyph name="bracketright" format="2">
  <advance width="291.20000000000005"/>
  <unicode hex="005D"/>
  <outline>
    <contour>
      <point x="-38.2" y="-60.0" type="line"/>
      <point x="-62.99999999999999" y="-210.0" type="line"/>
      <point x="182.0" y="-210.0" type="line"/>
      <point x="338.6" y="740.0" type="line"/>
      <point x="92.60000000000001" y="740.0" type="line"/>
      <point x="66.80000000000001" y="590.0" type="line"/>
      <point x="165.0" y="590.0" type="line"/>
      <point x="58.39999999999999" y="-60.0" type="line"/>
    </contour>
  </outline>
</glyph>
<glyph name="asciicircum" format="2">
  <advance width="458.0"/>
  <unicode hex="005E"/>
  <outline>
    <contour>
      <point x="42.8" y="234.0" type="line"/>
      <point x="176.20000000000002" y="234.0" type="line"/>
      <point x="264.2" y="504.59999999999997" type="line"/>
      <point x="269.8" y="234.0" type="line"/>
      <point x="402.4" y="234.0" type="line"/>
      <point x="375.59999999999997" y="700.0" type="line"/>
      <point x="210.0" y="700.0" type="line"/>
    </contour>
  </outline>
</glyph>
<glyph name="underscore" format="2">
  <advance width="633.2"/>
  <unicode hex="005F"/>
  <outline>
    <contour>
      <point x="-73.0" y="-209.2" type="line"/>
      <point x="550.6" y="-209.2" type="line"/>
      <point x="579.2" y="-41.199999999999996" type="line"/>
      <point x="-44.4" y="-41.199999999999996" type="line"/>
    </contour>
  </outline>
</glyph>
<glyph name="a" format="2">
  <advance width="500.5"/>
  <unicode hex="0061"/>
  <note>
15
</note>
  <anchor x="213.5" y="0.0" name="bottom"/>
  <anchor x="458.0" y="12.0" name="ogonek"/>
  <anchor x="290.5" y="550.0" name="top"/>
  <outline>
    <contour>
      <point x="367.5" y="-10.0" type="curve" smooth="yes"/>
      <point x="400.5" y="-10.0"/>
      <point x="438.0" y="-0.5"/>
      <point x="457.5" y="12.0" type="curve"/>
      <point x="475.0" y="164.5" type="line"/>
      <point x="471.5" y="163.5"/>
      <point x="466.5" y="163.5"/>
      <point x="463.5" y="163.5" type="curve" smooth="yes"/>
      <point x="453.50000000000006" y="163.5"/>
      <point x="451.0" y="168.00000000000003"/>
      <point x="451.0" y="178.5" type="curve" smooth="yes"/>
      <point x="451.0" y="185.0"/>
      <point x="455.5" y="209.0"/>
      <point x="505.5" y="522.5" type="curve"/>
      <point x="451.99999999999994" y="542.0"/>
      <point x="370.0" y="560.0"/>
      <point x="293.5" y="560.0" type="curve" smooth="yes"/>
      <point x="118.49999999999999" y="560.0"/>
      <point x="10.0" y="433.00000000000006"/>
      <point x="10.0" y="170.99999999999997" type="curve" smooth="yes"/>
      <point x="10.0" y="53.5"/>
      <point x="64.5" y="-10.0"/>
      <point x="145.0" y="-10.0" type="curve" smooth="yes"/>
      <point x="192.5" y="-10.0"/>
      <point x="230.5" y="7.0"/>
      <point x="264.5" y="40.0" type="curve"/>
      <point x="287.0" y="5.5"/>
      <point x="321.5" y="-10.0"/>
    </contour>
    <contour>
      <point x="263.0" y="170.0" type="line"/>
      <point x="253.0" y="165.5"/>
      <point x="241.0" y="162.0"/>
      <point x="230.0" y="162.0" type="curve" smooth="yes"/>
      <point x="215.50000000000003" y="162.0"/>
      <point x="203.0" y="174.0"/>
      <point x="203.0" y="200.0" type="curve" smooth="yes"/>
      <point x="203.0" y="307.5"/>
      <point x="235.5" y="399.50000000000006"/>
      <point x="273.5" y="399.50000000000006" type="curve" smooth="yes"/>
      <point x="281.50000000000006" y="399.50000000000006"/>
      <point x="290.5" y="399.0"/>
      <point x="299.0" y="396.0" type="curve"/>
    </contour>
  </outline>
</glyph>
<glyph name="b" format="2">
  <advance width="489.0"/>
  <unicode hex="0062"/>
  <note>
12
</note>
  <outline>
    <contour>
      <point x="287.5" y="740.0" type="line"/>
      <point x="101.00000000000001" y="740.0" type="line"/>
      <point x="-13.0" y="19.999999999999996" type="line"/>
      <point x="28.5" y="6.5"/>
      <point x="96.5" y="-10.0"/>
      <point x="185.5" y="-10.0" type="curve" smooth="yes"/>
      <point x="395.5" y="-10.0"/>
      <point x="482.5" y="160.0"/>
      <point x="481.0" y="374.0" type="curve" smooth="yes"/>
      <point x="480.5" y="499.0"/>
      <point x="436.5" y="560.0"/>
      <point x="353.5" y="560.0" type="curve" smooth="yes"/>
      <point x="320.0" y="560.0"/>
      <point x="288.00000000000006" y="550.0"/>
      <point x="253.5" y="526.0" type="curve"/>
    </contour>
    <contour>
      <point x="261.5" y="385.50000000000006" type="curve" smooth="yes"/>
      <point x="281.99999999999994" y="385.50000000000006"/>
      <point x="291.0" y="371.5"/>
      <point x="291.0" y="342.99999999999994" type="curve" smooth="yes"/>
      <point x="291.0" y="245.0"/>
      <point x="264.5" y="146.49999999999997"/>
      <point x="217.5" y="146.49999999999997" type="curve" smooth="yes"/>
      <point x="210.00000000000003" y="146.49999999999997"/>
      <point x="202.0" y="147.50000000000003"/>
      <point x="194.5" y="150.00000000000003" type="curve"/>
      <point x="230.5" y="378.0" type="line"/>
      <point x="239.00000000000003" y="382.0"/>
      <point x="250.5" y="385.50000000000006"/>
    </contour>
  </outline>
</glyph>
<glyph name="c" format="2">
  <advance width="411.5"/>
  <unicode hex="0063"/>
  <note>
10
</note>
  <anchor x="199.99999999999997" y="0.0" name="bottom"/>
  <anchor x="288.5" y="550.0" name="top"/>
  <outline>
    <contour>
      <point x="216.0" y="-10.0" type="curve" smooth="yes"/>
      <point x="262.0" y="-10.0"/>
      <point x="323.00000000000006" y="-1.5"/>
      <point x="364.5" y="14.000000000000002" type="curve"/>
      <point x="349.0" y="174.0" type="line"/>
      <point x="317.5" y="168.5"/>
      <point x="296.5" y="167.0"/>
      <point x="270.0" y="167.0" type="curve" smooth="yes"/>
      <point x="225.0" y="167.0"/>
      <point x="206.0" y="196.0"/>
      <point x="206.0" y="238.5" type="curve" smooth="yes"/>
      <point x="206.0" y="315.00000000000006"/>
      <point x="236.00000000000003" y="383.0"/>
      <point x="300.0" y="383.0" type="curve" smooth="yes"/>
      <point x="329.0" y="383.0"/>
      <point x="355.50000000000006" y="380.00000000000006"/>
      <point x="384.0" y="370.5" type="curve"/>
      <point x="441.0" y="540.5" type="line"/>
      <point x="406.0" y="553.0"/>
      <point x="354.49999999999994" y="560.0"/>
      <point x="303.5" y="560.0" type="curve" smooth="yes"/>
      <point x="100.50000000000001" y="560.0"/>
      <point x="11.000000000000002" y="415.00000000000006"/>
      <point x="11.000000000000002" y="196.99999999999997" type="curve" smooth="yes"/>
      <point x="11.000000000000002" y="67.0"/>
      <point x="80.0" y="-10.0"/>
    </contour>
  </outline>
</glyph>
<glyph name="d" format="2">
  <advance width="498.5"/>
  <unicode hex="0064"/>
  <note>
17
</note>
  <anchor x="233.0" y="0.0" name="bottom"/>
  <anchor x="249.0" y="275.0" name="center"/>
  <anchor x="306.0" y="740.0" name="top"/>
  <anchor x="558.0" y="740.0" name="topright"/>
  <outline>
    <contour>
      <point x="366.0" y="-10.0" type="curve" smooth="yes"/>
      <point x="397.0" y="-10.0"/>
      <point x="435.0" y="-1.5"/>
      <point x="455.49999999999994" y="12.0" type="curve"/>
      <point x="473.0" y="164.5" type="line"/>
      <point x="469.0" y="163.5"/>
      <point x="464.5" y="163.5"/>
      <point x="462.0" y="163.5" type="curve" smooth="yes"/>
      <point x="452.0" y="163.5"/>
      <point x="450.0" y="168.0"/>
      <point x="450.0" y="175.0" type="curve" smooth="yes"/>
      <point x="450.0" y="193.0"/>
      <point x="537.5" y="740.0"/>
      <point x="537.5" y="740.0" type="curve"/>
      <point x="352.0" y="740.0" type="line"/>
      <point x="320.49999999999994" y="544.5" type="line"/>
      <point x="299.5" y="555.0"/>
      <point x="274.00000000000006" y="560.0"/>
      <point x="246.5" y="560.0" type="curve" smooth="yes"/>
      <point x="119.5" y="560.0"/>
      <point x="11.0" y="425.0"/>
      <point x="11.0" y="186.00000000000003" type="curve" smooth="yes"/>
      <point x="11.0" y="52.0"/>
      <point x="64.5" y="-10.0"/>
      <point x="147.0" y="-10.0" type="curve" smooth="yes"/>
      <point x="194.5" y="-10.0"/>
      <point x="233.5" y="12.5"/>
      <point x="262.49999999999994" y="40.0" type="curve"/>
      <point x="285.0" y="6.5"/>
      <point x="319.5" y="-10.0"/>
    </contour>
    <contour>
      <point x="228.0" y="162.0" type="curve" smooth="yes"/>
      <point x="212.0" y="162.0"/>
      <point x="200.99999999999997" y="176.0"/>
      <point x="200.99999999999997" y="196.0" type="curve" smooth="yes"/>
      <point x="200.99999999999997" y="291.0"/>
      <point x="230.5" y="399.50000000000006"/>
      <point x="273.0" y="399.50000000000006" type="curve" smooth="yes"/>
      <point x="281.0" y="399.50000000000006"/>
      <point x="289.0" y="399.0"/>
      <point x="297.0" y="396.0" type="curve"/>
      <point x="261.0" y="170.0" type="line"/>
      <point x="250.99999999999997" y="165.5"/>
      <point x="238.0" y="162.0"/>
    </contour>
  </outline>
</glyph>
<glyph name="e" format="2">
  <advance width="455.0"/>
  <unicode hex="0065"/>
  <note>
14 points
</note>
  <anchor x="211.0" y="0.0" name="bottom"/>
  <anchor x="336.0" y="1.0" name="ogonek"/>
  <anchor x="285.0" y="548.5" name="top"/>
  <outline>
    <contour>
      <point x="156.0" y="291.0" type="curve"/>
      <point x="133.5" y="185.5" type="line"/>
      <point x="174.5" y="181.5"/>
      <point x="216.0" y="185.0"/>
      <point x="260.0" y="194.0" type="curve" smooth="yes"/>
      <point x="384.0" y="221.5"/>
      <point x="464.5" y="305.0"/>
      <point x="464.5" y="416.49999999999994" type="curve" smooth="yes"/>
      <point x="464.5" y="501.0"/>
      <point x="403.5" y="558.5"/>
      <point x="288.0" y="558.5" type="curve" smooth="yes"/>
      <point x="101.0" y="558.5"/>
      <point x="10.0" y="394.0"/>
      <point x="10.0" y="201.0" type="curve" smooth="yes"/>
      <point x="10.0" y="66.0"/>
      <point x="87.0" y="-10.0"/>
      <point x="225.0" y="-10.0" type="curve" smooth="yes"/>
      <point x="282.5" y="-10.0"/>
      <point x="346.0" y="0.0"/>
      <point x="401.0" y="23.5" type="curve"/>
      <point x="377.5" y="186.5" type="line"/>
      <point x="329.5" y="169.0"/>
      <point x="286.0" y="162.5"/>
      <point x="258.0" y="162.5" type="curve" smooth="yes"/>
      <point x="209.5" y="162.5"/>
      <point x="190.00000000000003" y="167.0"/>
      <point x="192.0" y="236.0" type="curve" smooth="yes"/>
      <point x="195.0" y="344.0"/>
      <point x="229.0" y="406.00000000000006"/>
      <point x="265.50000000000006" y="405.50000000000006" type="curve" smooth="yes"/>
      <point x="279.50000000000006" y="405.50000000000006"/>
      <point x="286.0" y="398.5"/>
      <point x="286.0" y="381.5" type="curve" smooth="yes"/>
      <point x="285.0" y="349.50000000000006"/>
      <point x="259.5" y="310.5"/>
      <point x="215.0" y="296.5" type="curve" smooth="yes"/>
      <point x="198.0" y="291.5"/>
      <point x="169.0" y="288.0"/>
    </contour>
  </outline>
</glyph>
<glyph name="f" format="2">
  <advance width="329.0"/>
  <unicode hex="0066"/>
  <outline>
    <contour>
      <point x="-2.599999999999998" y="-220.0" type="curve" smooth="yes"/>
      <point x="114.2" y="-220.0"/>
      <point x="176.0" y="-147.8"/>
      <point x="199.6" y="0.0" type="curve" smooth="yes"/>
      <point x="257.2" y="364.2" type="line"/>
      <point x="329.0" y="364.2" type="line"/>
      <point x="354.0" y="520.0" type="line"/>
      <point x="282.0" y="520.0" type="line"/>
      <point x="289.0" y="565.4"/>
      <point x="304.6" y="575.0"/>
      <point x="332.6" y="575.0" type="curve" smooth="yes"/>
      <point x="349.0" y="575.0"/>
      <point x="370.8" y="570.8"/>
      <point x="386.8" y="565.0" type="curve"/>
      <point x="437.6" y="720.0" type="line"/>
      <point x="402.6" y="737.0"/>
      <point x="361.59999999999997" y="750.0"/>
      <point x="306.6" y="750.0" type="curve" smooth="yes"/>
      <point x="196.39999999999998" y="750.0"/>
      <point x="116.8" y="671.1999999999999"/>
      <point x="95.8" y="520.0" type="curve"/>
      <point x="45.0" y="510.40000000000003" type="line"/>
      <point x="20.6" y="364.2" type="line"/>
      <point x="70.8" y="364.2" type="line"/>
      <point x="15.200000000000001" y="9.6" type="line" smooth="yes"/>
      <point x="8.6" y="-30.799999999999997"/>
      <point x="-6.800000000000001" y="-44.6"/>
      <point x="-27.2" y="-44.6" type="curve" smooth="yes"/>
      <point x="-35.2" y="-44.6"/>
      <point x="-46.0" y="-44.199999999999996"/>
      <point x="-59.2" y="-39.599999999999994" type="curve"/>
      <point x="-105.60000000000001" y="-200.20000000000002" type="line"/>
      <point x="-71.4" y="-213.60000000000002"/>
      <point x="-38.599999999999994" y="-220.0"/>
    </contour>
  </outline>
</glyph>
<glyph name="g" format="2">
  <advance width="496.0"/>
  <unicode hex="0067"/>
  <note>
16
</note>
  <anchor x="166.0" y="-218.0" name="bottom"/>
  <anchor x="292.0" y="550.0" name="top"/>
  <outline>
    <contour>
      <point x="-25.5" y="-176.5" type="line"/>
      <point x="36.5" y="-204.0"/>
      <point x="107.5" y="-220.0"/>
      <point x="170.5" y="-220.0" type="curve" smooth="yes"/>
      <point x="318.0" y="-220.0"/>
      <point x="400.0" y="-142.0"/>
      <point x="426.5" y="25.0" type="curve" smooth="yes"/>
      <point x="508.5" y="532.0" type="line"/>
      <point x="473.5" y="545.5"/>
      <point x="381.50000000000006" y="560.0"/>
      <point x="315.5" y="560.0" type="curve" smooth="yes"/>
      <point x="102.00000000000001" y="560.0"/>
      <point x="11.5" y="421.5"/>
      <point x="11.5" y="183.5" type="curve" smooth="yes"/>
      <point x="11.5" y="82.5"/>
      <point x="55.00000000000001" y="18.5"/>
      <point x="141.0" y="18.5" type="curve" smooth="yes"/>
      <point x="166.0" y="18.5"/>
      <point x="211.0" y="27.500000000000004"/>
      <point x="245.0" y="48.00000000000001" type="curve"/>
      <point x="241.5" y="16.0" type="line" smooth="yes"/>
      <point x="235.0" y="-38.5"/>
      <point x="206.0" y="-50.0"/>
      <point x="167.5" y="-50.0" type="curve" smooth="yes"/>
      <point x="128.0" y="-50.0"/>
      <point x="68.0" y="-35.5"/>
      <point x="26.5" y="-21.0" type="curve"/>
    </contour>
    <contour>
      <point x="301.0" y="402.0" type="curve"/>
      <point x="265.5" y="177.5" type="line"/>
      <point x="255.5" y="173.0"/>
      <point x="244.5" y="170.5"/>
      <point x="237.5" y="170.5" type="curve" smooth="yes"/>
      <point x="215.0" y="170.5"/>
      <point x="205.5" y="186.0"/>
      <point x="205.5" y="217.0" type="curve" smooth="yes"/>
      <point x="205.5" y="306.5"/>
      <point x="236.5" y="406.0"/>
      <point x="277.99999999999994" y="406.0" type="curve" smooth="yes"/>
      <point x="288.5" y="406.0"/>
      <point x="295.0" y="404.5"/>
    </contour>
  </outline>
</glyph>
<glyph name="h" format="2">
  <advance width="486.0"/>
  <unicode hex="0068"/>
  <note>
16
</note>
  <anchor x="201.4" y="0.0" name="bottom"/>
  <anchor x="259.00120000000004" y="375.0" name="center"/>
  <anchor x="311.8" y="740.0" name="top"/>
  <outline>
    <contour>
      <point x="437.2" y="176.2" type="curve" smooth="yes"/>
      <point x="437.2" y="190.0"/>
      <point x="480.8" y="423.6"/>
      <point x="480.8" y="454.4" type="curve" smooth="yes"/>
      <point x="480.8" y="518.8"/>
      <point x="445.59999999999997" y="560.0"/>
      <point x="372.6" y="560.0" type="curve" smooth="yes"/>
      <point x="330.2" y="560.0"/>
      <point x="299.6" y="548.8"/>
      <point x="251.0" y="516.0" type="curve"/>
      <point x="287.4" y="740.0" type="line"/>
      <point x="101.0" y="740.0" type="line"/>
      <point x="-17.2" y="0.0" type="line"/>
      <point x="169.4" y="0.0" type="line"/>
      <point x="230.4" y="377.0" type="line"/>
      <point x="242.60000000000002" y="384.0"/>
      <point x="254.8" y="387.8"/>
      <point x="264.40000000000003" y="387.8" type="curve" smooth="yes"/>
      <point x="277.59999999999997" y="387.8"/>
      <point x="283.4" y="381.0"/>
      <point x="283.4" y="370.2" type="curve" smooth="yes"/>
      <point x="283.4" y="352.79999999999995"/>
      <point x="240.79999999999998" y="126.4"/>
      <point x="240.79999999999998" y="90.8" type="curve" smooth="yes"/>
      <point x="240.79999999999998" y="33.4"/>
      <point x="285.0" y="-10.0"/>
      <point x="354.6" y="-10.0" type="curve" smooth="yes"/>
      <point x="386.59999999999997" y="-10.0"/>
      <point x="420.59999999999997" y="-1.2000000000000002"/>
      <point x="444.40000000000003" y="12.0" type="curve"/>
      <point x="462.0" y="165.4" type="line"/>
      <point x="458.40000000000003" y="164.4"/>
      <point x="453.2" y="164.20000000000002"/>
      <point x="450.4" y="164.20000000000002" type="curve" smooth="yes"/>
      <point x="442.2" y="164.20000000000002"/>
      <point x="437.2" y="167.6"/>
    </contour>
  </outline>
</glyph>
<glyph name="i" format="2">
  <advance width="241.20000000000002"/>
  <unicode hex="0069"/>
  <note>
Ajuster pts sur points
8
</note>
  <anchor x="77.0888" y="0.0" name="bottom"/>
  <anchor x="170.39999999999998" y="0.0" name="ogonek"/>
  <anchor x="164.1112" y="550.0" name="top"/>
  <outline>
    <contour>
      <point x="-16.2" y="0.0" type="line"/>
      <point x="170.39999999999998" y="0.0" type="line"/>
      <point x="257.2" y="550.0" type="line"/>
      <point x="71.0" y="550.0" type="line"/>
    </contour>
    <contour>
      <point x="203.2" y="790.0" type="curve" smooth="yes"/>
      <point x="113.8" y="790.0"/>
      <point x="76.6" y="723.4"/>
      <point x="76.6" y="651.0" type="curve" smooth="yes"/>
      <point x="76.6" y="597.0"/>
      <point x="106.4" y="569.2"/>
      <point x="167.0" y="569.2" type="curve" smooth="yes"/>
      <point x="251.6" y="569.2"/>
      <point x="293.40000000000003" y="634.6"/>
      <point x="293.40000000000003" y="709.2" type="curve" smooth="yes"/>
      <point x="293.4" y="763.0"/>
      <point x="262.8" y="790.0"/>
    </contour>
  </outline>
</glyph>
<glyph name="j" format="2">
  <advance width="248.0"/>
  <unicode hex="006A"/>
  <note>
idem /i
12
</note>
  <outline>
    <contour>
      <point x="210.2" y="790.0" type="curve" smooth="yes"/>
      <point x="120.60000000000001" y="790.0"/>
      <point x="83.6" y="723.4"/>
      <point x="83.6" y="651.0" type="curve" smooth="yes"/>
      <point x="83.60000000000001" y="597.0"/>
      <point x="114.4" y="569.2"/>
      <point x="175.0" y="569.2" type="curve" smooth="yes"/>
      <point x="258.8" y="569.2"/>
      <point x="300.4" y="634.6"/>
      <point x="300.4" y="709.2" type="curve" smooth="yes"/>
      <point x="300.4" y="763.0"/>
      <point x="269.8" y="790.0"/>
    </contour>
    <contour>
      <point x="265.2" y="550.0" type="line"/>
      <point x="78.0" y="550.0" type="line"/>
      <point x="-7.399999999999999" y="15.600000000000001" type="line" smooth="yes"/>
      <point x="-14.2" y="-26.200000000000003"/>
      <point x="-27.599999999999998" y="-44.6"/>
      <point x="-50.0" y="-44.6" type="curve" smooth="yes"/>
      <point x="-58.0" y="-44.6"/>
      <point x="-68.8" y="-44.4"/>
      <point x="-80.8" y="-40.0" type="curve"/>
      <point x="-124.60000000000001" y="-205.0" type="line"/>
      <point x="-90.2" y="-216.0"/>
      <point x="-51.2" y="-220.0"/>
      <point x="-27.200000000000003" y="-220.0" type="curve" smooth="yes"/>
      <point x="101.60000000000001" y="-220.0"/>
      <point x="153.79999999999998" y="-144.2"/>
      <point x="179.79999999999998" y="19.6" type="curve" smooth="yes"/>
    </contour>
  </outline>
</glyph>
<glyph name="k" format="2">
  <advance width="470.0"/>
  <unicode hex="006B"/>
  <anchor x="208.5" y="0.0" name="bottom"/>
  <anchor x="194.5" y="740.0" name="top"/>
  <outline>
    <contour>
      <point x="-16.0" y="0.0" type="line"/>
      <point x="170.0" y="0.0" type="line"/>
      <point x="287.5" y="740.0" type="line"/>
      <point x="101.0" y="740.0" type="line"/>
    </contour>
    <contour>
      <point x="365.5" y="-10.0" type="curve" smooth="yes"/>
      <point x="381.5" y="-10.0"/>
      <point x="397.0" y="-8.0"/>
      <point x="414.5" y="-2.0" type="curve"/>
      <point x="444.0" y="193.5" type="line"/>
      <point x="436.5" y="193.5"/>
      <point x="430.0" y="194.0"/>
      <point x="423.5" y="195.0" type="curve" smooth="yes"/>
      <point x="393.0" y="199.5"/>
      <point x="365.0" y="211.5"/>
      <point x="310.5" y="283.5" type="curve" smooth="yes"/>
      <point x="219.5" y="404.0" type="line"/>
      <point x="178.5" y="188.0" type="line"/>
      <point x="237.5" y="86.0" type="line" smooth="yes"/>
      <point x="272.0" y="26.0"/>
      <point x="313.5" y="-10.0"/>
    </contour>
    <contour>
      <point x="313.0" y="237.5" type="line"/>
      <point x="401.5" y="323.5"/>
      <point x="479.5" y="446.0"/>
      <point x="506.5" y="546.0" type="curve"/>
      <point x="318.5" y="560.0" type="line"/>
      <point x="296.5" y="463.0"/>
      <point x="262.0" y="407.0"/>
      <point x="212.5" y="347.5" type="curve"/>
    </contour>
  </outline>
</glyph>
<glyph name="l" format="2">
  <advance width="264.8"/>
  <unicode hex="006C"/>
  <anchor x="106.2" y="0.0" name="bottom"/>
  <anchor x="151.6012" y="375.0" name="center"/>
  <anchor x="194.0" y="740.0" name="top"/>
  <anchor x="307.6" y="740.0" name="topright"/>
  <outline>
    <contour>
      <point x="100.80000000000001" y="740.0" type="line"/>
      <point x="6.6000000000000005" y="144.8" type="line" smooth="yes"/>
      <point x="4.000000000000001" y="128.4"/>
      <point x="2.3999999999999995" y="111.2"/>
      <point x="2.3999999999999995" y="97.8" type="curve" smooth="yes"/>
      <point x="2.3999999999999995" y="28.400000000000002"/>
      <point x="38.4" y="-10.0"/>
      <point x="111.19999999999999" y="-10.0" type="curve" smooth="yes"/>
      <point x="150.4" y="-10.0"/>
      <point x="194.6" y="0.8"/>
      <point x="224.0" y="17.0" type="curve"/>
      <point x="241.6" y="172.60000000000002" type="line"/>
      <point x="230.60000000000002" y="170.0"/>
      <point x="222.6" y="169.0"/>
      <point x="216.0" y="169.0" type="curve" smooth="yes"/>
      <point x="205.6" y="169.0"/>
      <point x="200.4" y="174.4"/>
      <point x="200.4" y="187.4" type="curve" smooth="yes"/>
      <point x="200.4" y="192.39999999999998"/>
      <point x="201.2" y="199.2"/>
      <point x="202.39999999999998" y="206.8" type="curve" smooth="yes"/>
      <point x="287.20000000000005" y="740.0" type="line"/>
    </contour>
  </outline>
</glyph>
<glyph name="m" format="2">
  <advance width="714.6"/>
  <unicode hex="006D"/>
  <note>
24&gt;23 points
un point de trop dans la jointure avec 2e jambage
</note>
  <outline>
    <contour>
      <point x="580.8" y="-10.0" type="curve" smooth="yes"/>
      <point x="612.8000000000001" y="-10.0"/>
      <point x="651.5999999999999" y="-1.2000000000000002"/>
      <point x="673.0" y="12.0" type="curve"/>
      <point x="690.6" y="165.4" type="line"/>
      <point x="687.0" y="164.4"/>
      <point x="681.8" y="164.20000000000002"/>
      <point x="679.0" y="164.20000000000002" type="curve" smooth="yes"/>
      <point x="670.8000000000001" y="164.20000000000002"/>
      <point x="665.8000000000001" y="170.0"/>
      <point x="665.8000000000001" y="181.0" type="curve" smooth="yes"/>
      <point x="665.8000000000001" y="209.20000000000002"/>
      <point x="709.4" y="429.2"/>
      <point x="709.4" y="459.2" type="curve" smooth="yes"/>
      <point x="709.4" y="517.1999999999999"/>
      <point x="674.0" y="560.0"/>
      <point x="600.2" y="560.0" type="curve" smooth="yes"/>
      <point x="555.4" y="560.0"/>
      <point x="515.6" y="547.0"/>
      <point x="461.8" y="504.6" type="curve"/>
      <point x="449.59999999999997" y="539.0"/>
      <point x="421.0" y="560.0"/>
      <point x="370.6" y="560.0" type="curve" smooth="yes"/>
      <point x="329.8" y="560.0"/>
      <point x="286.2" y="548.0"/>
      <point x="232.6" y="508.4" type="curve"/>
      <point x="239.4" y="550.0" type="line"/>
      <point x="70.80000000000001" y="550.0" type="line"/>
      <point x="-16.2" y="0.0" type="line"/>
      <point x="170.2" y="0.0" type="line"/>
      <point x="230.39999999999998" y="378.8" type="line"/>
      <point x="239.79999999999998" y="384.2"/>
      <point x="249.8" y="387.8"/>
      <point x="258.40000000000003" y="387.8" type="curve" smooth="yes"/>
      <point x="271.2" y="387.8"/>
      <point x="277.2" y="380.8"/>
      <point x="277.2" y="368.40000000000003" type="curve" smooth="yes"/>
      <point x="277.2" y="358.79999999999995"/>
      <point x="243.2" y="153.2"/>
      <point x="217.8" y="0.0" type="curve"/>
      <point x="402.59999999999997" y="0.0" type="line"/>
      <point x="421.8" y="116.60000000000001"/>
      <point x="440.2" y="234.20000000000002"/>
      <point x="459.4" y="350.8" type="curve" smooth="yes"/>
      <point x="460.4" y="357.4"/>
      <point x="462.8" y="371.8"/>
      <point x="463.8" y="377.20000000000005" type="curve"/>
      <point x="474.6" y="384.6"/>
      <point x="483.6" y="387.2"/>
      <point x="491.8" y="387.2" type="curve" smooth="yes"/>
      <point x="505.40000000000003" y="387.2"/>
      <point x="510.99999999999994" y="380.2"/>
      <point x="510.99999999999994" y="369.20000000000005" type="curve" smooth="yes"/>
      <point x="510.99999999999994" y="352.0"/>
      <point x="468.6" y="134.0"/>
      <point x="468.6" y="93.19999999999999" type="curve" smooth="yes"/>
      <point x="468.6" y="28.599999999999998"/>
      <point x="511.2" y="-10.0"/>
    </contour>
  </outline>
</glyph>
<glyph name="n" format="2">
  <advance width="486.0"/>
  <unicode hex="006E"/>
  <note>
16
</note>
  <anchor x="209.6" y="0.0" name="bottom"/>
  <anchor x="282.40000000000003" y="550.0" name="top"/>
  <outline>
    <contour>
      <point x="70.80000000000001" y="550.0" type="line"/>
      <point x="-16.2" y="0.0" type="line"/>
      <point x="170.0" y="0.0" type="line"/>
      <point x="231.2" y="377.0" type="line"/>
      <point x="241.39999999999998" y="383.4"/>
      <point x="254.4" y="387.8"/>
      <point x="265.0" y="387.8" type="curve" smooth="yes"/>
      <point x="278.0" y="387.8"/>
      <point x="284.2" y="381.59999999999997"/>
      <point x="284.2" y="370.20000000000005" type="curve" smooth="yes"/>
      <point x="284.2" y="343.2"/>
      <point x="241.59999999999997" y="136.0"/>
      <point x="241.59999999999997" y="86.8" type="curve" smooth="yes"/>
      <point x="241.59999999999997" y="34.199999999999996"/>
      <point x="284.2" y="-10.0"/>
      <point x="353.8" y="-10.0" type="curve" smooth="yes"/>
      <point x="385.8" y="-10.0"/>
      <point x="423.0" y="-1.2000000000000002"/>
      <point x="444.4" y="12.0" type="curve"/>
      <point x="462.0" y="165.4" type="line"/>
      <point x="458.4" y="164.4"/>
      <point x="453.2" y="164.20000000000002"/>
      <point x="450.40000000000003" y="164.20000000000002" type="curve" smooth="yes"/>
      <point x="442.2" y="164.20000000000002"/>
      <point x="437.20000000000005" y="167.6"/>
      <point x="437.20000000000005" y="176.2" type="curve" smooth="yes"/>
      <point x="437.20000000000005" y="190.0"/>
      <point x="481.59999999999997" y="423.6"/>
      <point x="481.59999999999997" y="454.4" type="curve" smooth="yes"/>
      <point x="481.59999999999997" y="521.6"/>
      <point x="441.8" y="560.0"/>
      <point x="372.4" y="560.0" type="curve" smooth="yes"/>
      <point x="328.2" y="560.0"/>
      <point x="280.8" y="547.4"/>
      <point x="233.0" y="508.40000000000003" type="curve"/>
      <point x="239.0" y="550.0" type="line"/>
    </contour>
  </outline>
</glyph>
<glyph name="o" format="2">
  <advance width="481.0"/>
  <unicode hex="006F"/>
  <note>
8
</note>
  <anchor x="196.72199999999998" y="0.0" name="bottom"/>
  <anchor x="240.5" y="275.0" name="center"/>
  <anchor x="286.5" y="0.0" name="ogonek"/>
  <anchor x="272.5" y="550.0" name="top"/>
  <anchor x="394.5" y="540.0" name="topright"/>
  <outline>
    <contour>
      <point x="215.5" y="-9.5" type="curve" smooth="yes"/>
      <point x="393.0" y="-9.5"/>
      <point x="469.5" y="156.0"/>
      <point x="469.5" y="364.5" type="curve" smooth="yes"/>
      <point x="469.5" y="492.5"/>
      <point x="403.5" y="560.5"/>
      <point x="269.5" y="560.5" type="curve" smooth="yes"/>
      <point x="88.0" y="560.5"/>
      <point x="11.5" y="395.5"/>
      <point x="11.5" y="185.5" type="curve" smooth="yes"/>
      <point x="11.5" y="58.5"/>
      <point x="77.5" y="-9.5"/>
    </contour>
    <contour>
      <point x="224.0" y="150.0" type="curve" smooth="yes"/>
      <point x="210.0" y="149.5"/>
      <point x="197.5" y="155.5"/>
      <point x="196.5" y="178.0" type="curve" smooth="yes"/>
      <point x="194.5" y="231.5"/>
      <point x="219.0" y="400.0"/>
      <point x="257.0" y="401.0" type="curve" smooth="yes"/>
      <point x="270.5" y="401.5"/>
      <point x="283.5" y="395.5"/>
      <point x="284.5" y="373.0" type="curve" smooth="yes"/>
      <point x="286.5" y="319.5"/>
      <point x="262.0" y="151.0"/>
    </contour>
  </outline>
</glyph>
<glyph name="p" format="2">
  <advance width="489.5"/>
  <unicode hex="0070"/>
  <note>
14 point
</note>
  <outline>
    <contour>
      <point x="-49.0" y="-210.0" type="line"/>
      <point x="136.5" y="-210.0" type="line"/>
      <point x="169.49999999999997" y="-2.0" type="line"/>
      <point x="184.49999999999997" y="-5.0"/>
      <point x="206.5" y="-8.5"/>
      <point x="235.5" y="-8.5" type="curve" smooth="yes"/>
      <point x="404.0" y="-8.5"/>
      <point x="481.0" y="169.0"/>
      <point x="481.0" y="370.50000000000006" type="curve" smooth="yes"/>
      <point x="481.0" y="495.0"/>
      <point x="440.49999999999994" y="560.0"/>
      <point x="355.0" y="560.0" type="curve" smooth="yes"/>
      <point x="303.5" y="560.0"/>
      <point x="270.0" y="537.0"/>
      <point x="242.5" y="514.5" type="curve"/>
      <point x="241.0" y="550.0" type="line"/>
      <point x="71.0" y="550.0" type="line"/>
    </contour>
    <contour>
      <point x="217.5" y="146.49999999999997" type="curve" smooth="yes"/>
      <point x="210.0" y="146.49999999999997"/>
      <point x="202.0" y="147.5"/>
      <point x="194.5" y="150.0" type="curve"/>
      <point x="230.5" y="378.5" type="line"/>
      <point x="238.5" y="382.0"/>
      <point x="250.50000000000003" y="385.50000000000006"/>
      <point x="262.5" y="385.50000000000006" type="curve" smooth="yes"/>
      <point x="282.0" y="385.50000000000006"/>
      <point x="291.0" y="375.5"/>
      <point x="291.0" y="337.99999999999994" type="curve" smooth="yes"/>
      <point x="291.0" y="254.5"/>
      <point x="266.0" y="146.49999999999997"/>
    </contour>
  </outline>
</glyph>
<glyph name="q" format="2">
  <advance width="493.00000000000006"/>
  <unicode hex="0071"/>
  <note>
12
</note>
  <outline>
    <contour>
      <point x="505.5" y="530.0" type="line"/>
      <point x="460.5" y="543.5"/>
      <point x="381.5" y="560.0"/>
      <point x="302.5" y="560.0" type="curve" smooth="yes"/>
      <point x="112.5" y="560.0"/>
      <point x="9.0" y="416.5"/>
      <point x="9.0" y="170.99999999999997" type="curve" smooth="yes"/>
      <point x="9.0" y="53.49999999999999"/>
      <point x="55.0" y="-10.0"/>
      <point x="148.0" y="-10.0" type="curve" smooth="yes"/>
      <point x="179.5" y="-10.0"/>
      <point x="209.5" y="2.5"/>
      <point x="238.0" y="23.500000000000004" type="curve"/>
      <point x="201.5" y="-210.0" type="line"/>
      <point x="386.0" y="-210.0" type="line"/>
    </contour>
    <contour>
      <point x="297.49999999999994" y="396.50000000000006" type="curve"/>
      <point x="261.5" y="170.5" type="line"/>
      <point x="252.00000000000003" y="166.00000000000003"/>
      <point x="240.5" y="162.5"/>
      <point x="230.5" y="162.5" type="curve" smooth="yes"/>
      <point x="212.99999999999997" y="162.5"/>
      <point x="201.0" y="173.0"/>
      <point x="201.0" y="206.5" type="curve" smooth="yes"/>
      <point x="201.0" y="286.0"/>
      <point x="226.5" y="400.50000000000006"/>
      <point x="274.0" y="400.50000000000006" type="curve" smooth="yes"/>
      <point x="284.5" y="400.50000000000006"/>
      <point x="291.0" y="399.0"/>
    </contour>
  </outline>
</glyph>
<glyph name="r" format="2">
  <advance width="341.0"/>
  <unicode hex="0072"/>
  <anchor x="74.8" y="0.0" name="bottom"/>
  <anchor x="246.39999999999998" y="550.0" name="top"/>
  <outline>
    <contour>
      <point x="237.39999999999998" y="550.0" type="line"/>
      <point x="71.2" y="550.0" type="line"/>
      <point x="-16.4" y="0.0" type="line"/>
      <point x="167.8" y="0.0" type="line"/>
      <point x="224.2" y="346.2" type="line"/>
      <point x="247.4" y="357.8"/>
      <point x="264.2" y="360.6"/>
      <point x="282.8" y="360.6" type="curve" smooth="yes"/>
      <point x="294.6" y="360.6"/>
      <point x="313.4" y="358.6"/>
      <point x="330.2" y="353.6" type="curve"/>
      <point x="388.2" y="550.1999999999999" type="line"/>
      <point x="369.79999999999995" y="558.2"/>
      <point x="354.4" y="560.0"/>
      <point x="337.2" y="560.0" type="curve" smooth="yes"/>
      <point x="304.40000000000003" y="560.0"/>
      <point x="275.40000000000003" y="543.0"/>
      <point x="229.2" y="497.0" type="curve"/>
    </contour>
  </outline>
</glyph>
<glyph name="s" format="2">
  <advance width="437.0"/>
  <unicode hex="0073"/>
  <anchor x="182.5" y="0.0" name="bottom"/>
  <anchor x="269.5" y="550.0" name="top"/>
  <outline>
    <contour>
      <point x="-25.5" y="31.5" type="line"/>
      <point x="25.5" y="7.0"/>
      <point x="85.5" y="-10.0"/>
      <point x="178.5" y="-10.0" type="curve" smooth="yes"/>
      <point x="316.0" y="-10.0"/>
      <point x="411.5" y="39.5"/>
      <point x="411.5" y="194.5" type="curve" smooth="yes"/>
      <point x="411.5" y="399.5"/>
      <point x="181.0" y="318.0"/>
      <point x="181.0" y="385.0" type="curve" smooth="yes"/>
      <point x="181.0" y="400.0"/>
      <point x="204.0" y="398.5"/>
      <point x="256.5" y="398.5" type="curve" smooth="yes"/>
      <point x="299.0" y="398.5"/>
      <point x="350.5" y="388.5"/>
      <point x="393.5" y="372.5" type="curve"/>
      <point x="436.5" y="529.0" type="line"/>
      <point x="398.0" y="546.5"/>
      <point x="332.5" y="560.0"/>
      <point x="265.0" y="560.0" type="curve" smooth="yes"/>
      <point x="98.5" y="560.0"/>
      <point x="24.5" y="479.0"/>
      <point x="24.5" y="363.0" type="curve" smooth="yes"/>
      <point x="24.5" y="168.0"/>
      <point x="256.0" y="228.5"/>
      <point x="256.0" y="158.0" type="curve" smooth="yes"/>
      <point x="256.0" y="144.0"/>
      <point x="233.0" y="146.5"/>
      <point x="181.5" y="146.5" type="curve" smooth="yes"/>
      <point x="125.5" y="146.5"/>
      <point x="62.0" y="162.5"/>
      <point x="23.0" y="181.0" type="curve"/>
    </contour>
  </outline>
</glyph>
<glyph name="t" format="2">
  <advance width="321.20000000000005"/>
  <unicode hex="0074"/>
  <anchor x="138.6" y="0.0" name="bottom"/>
  <anchor x="159.8" y="275.0" name="center"/>
  <anchor x="213.4" y="656.2" name="top"/>
  <anchor x="348.8" y="770.0" name="topright"/>
  <outline>
    <contour>
      <point x="286.40000000000003" y="170.0" type="line"/>
      <point x="268.6" y="166.4"/>
      <point x="258.4" y="164.2"/>
      <point x="248.79999999999998" y="164.2" type="curve" smooth="yes"/>
      <point x="227.2" y="164.2"/>
      <point x="220.0" y="176.6"/>
      <point x="220.0" y="194.39999999999998" type="curve" smooth="yes"/>
      <point x="220.0" y="201.0"/>
      <point x="220.8" y="208.4"/>
      <point x="221.79999999999998" y="216.8" type="curve" smooth="yes"/>
      <point x="251.4" y="394.2" type="line"/>
      <point x="324.4" y="394.2" type="line"/>
      <point x="351.4" y="550.0" type="line"/>
      <point x="277.8" y="550.0" type="line"/>
      <point x="294.4" y="656.2" type="line"/>
      <point x="132.20000000000002" y="656.2" type="line"/>
      <point x="93.2" y="550.0" type="line"/>
      <point x="44.4" y="541.2" type="line"/>
      <point x="18.8" y="395.0" type="line"/>
      <point x="65.6" y="395.0" type="line"/>
      <point x="33.800000000000004" y="198.20000000000002" type="line" smooth="yes"/>
      <point x="28.800000000000004" y="167.39999999999998"/>
      <point x="24.4" y="127.0"/>
      <point x="24.4" y="103.8" type="curve" smooth="yes"/>
      <point x="24.4" y="11.2"/>
      <point x="84.6" y="-10.0"/>
      <point x="141.8" y="-10.0" type="curve" smooth="yes"/>
      <point x="190.20000000000002" y="-10.0"/>
      <point x="230.8" y="-1.0"/>
      <point x="269.0" y="16.4" type="curve"/>
    </contour>
  </outline>
</glyph>
<glyph name="u" format="2">
  <advance width="485.2"/>
  <unicode hex="0075"/>
  <note>
15
</note>
  <anchor x="202.6" y="0.0" name="bottom"/>
  <anchor x="443.0" y="17.2" name="ogonek"/>
  <anchor x="284.0448" y="550.0" name="top"/>
  <anchor x="471.6" y="550.0" name="topright"/>
  <outline>
    <contour>
      <point x="118.4" y="-10.0" type="curve" smooth="yes"/>
      <point x="165.2" y="-10.0"/>
      <point x="205.0" y="9.2"/>
      <point x="249.2" y="50.4" type="curve"/>
      <point x="263.0" y="17.200000000000003"/>
      <point x="300.0" y="-10.0"/>
      <point x="348.4" y="-10.0" type="curve" smooth="yes"/>
      <point x="382.0" y="-10.0"/>
      <point x="419.6" y="1.2000000000000002"/>
      <point x="443.0" y="19.4" type="curve"/>
      <point x="460.2" y="164.6" type="line"/>
      <point x="455.2" y="163.0"/>
      <point x="450.8" y="163.0"/>
      <point x="448.6" y="163.0" type="curve" smooth="yes"/>
      <point x="441.0" y="163.0"/>
      <point x="436.59999999999997" y="168.20000000000002"/>
      <point x="436.59999999999997" y="180.4" type="curve" smooth="yes"/>
      <point x="436.59999999999997" y="185.20000000000002"/>
      <point x="437.6" y="193.2"/>
      <point x="495.6" y="550.0" type="curve"/>
      <point x="311.40000000000003" y="550.0" type="line"/>
      <point x="249.79999999999998" y="170.8" type="line"/>
      <point x="239.8" y="164.4"/>
      <point x="228.0" y="160.20000000000002"/>
      <point x="216.20000000000002" y="160.20000000000002" type="curve" smooth="yes"/>
      <point x="202.6" y="160.20000000000002"/>
      <point x="195.20000000000002" y="168.2"/>
      <point x="196.8" y="183.8" type="curve" smooth="yes"/>
      <point x="211.20000000000002" y="282.2"/>
      <point x="230.8" y="401.59999999999997"/>
      <point x="255.2" y="550.0" type="curve"/>
      <point x="70.19999999999999" y="550.0" type="line"/>
      <point x="22.200000000000003" y="254.79999999999998"/>
      <point x="1.1999999999999993" y="153.4"/>
      <point x="1.1999999999999993" y="97.8" type="curve" smooth="yes"/>
      <point x="1.1999999999999993" y="34.8"/>
      <point x="40.6" y="-10.0"/>
    </contour>
  </outline>
</glyph>
<glyph name="v" format="2">
  <advance width="458.9"/>
  <unicode hex="0076"/>
  <outline>
    <contour>
      <point x="288.3" y="0.19999999999999996" type="line"/>
      <point x="387.9" y="181.3"/>
      <point x="479.1" y="366.0"/>
      <point x="490.2" y="550.0" type="curve"/>
      <point x="296.5" y="550.0" type="line"/>
      <point x="293.9" y="417.6"/>
      <point x="250.3" y="291.4"/>
      <point x="201.7" y="171.0" type="curve"/>
      <point x="230.1" y="550.0" type="line"/>
      <point x="32.4" y="549.9" type="line"/>
      <point x="56.0" y="0.19999999999999996" type="line"/>
    </contour>
  </outline>
</glyph>
<glyph name="w" format="2">
  <advance width="686.0"/>
  <unicode hex="0077"/>
  <note>
15
</note>
  <anchor x="297.4" y="0.0" name="bottom"/>
  <anchor x="368.7" y="550.0" name="top"/>
  <outline>
    <contour>
      <point x="528.4" y="0.0" type="line"/>
      <point x="631.8" y="205.4"/>
      <point x="711.5" y="385.9"/>
      <point x="712.1" y="550.0" type="curve"/>
      <point x="531.4" y="550.0" type="line"/>
      <point x="526.4" y="422.5"/>
      <point x="492.1" y="298.5"/>
      <point x="443.8" y="173.7" type="curve"/>
      <point x="485.1" y="550.2" type="line"/>
      <point x="277.2" y="550.2" type="line"/>
      <point x="245.8" y="416.6"/>
      <point x="213.0" y="298.6"/>
      <point x="179.4" y="173.6" type="curve"/>
      <point x="224.8" y="550.0" type="line"/>
      <point x="35.8" y="549.9" type="line"/>
      <point x="31.299999999999997" y="0.0" type="line"/>
      <point x="261.8" y="0.0" type="line"/>
      <point x="288.6" y="95.0"/>
      <point x="317.5" y="203.1"/>
      <point x="339.1" y="294.3" type="curve"/>
      <point x="311.7" y="0.0" type="line"/>
    </contour>
  </outline>
</glyph>
<glyph name="x" format="2">
  <advance width="498.8"/>
  <unicode hex="0078"/>
  <outline>
    <contour>
      <point x="333.3" y="550.0" type="line"/>
      <point x="330.0" y="476.5"/>
      <point x="312.4" y="435.1"/>
      <point x="265.3" y="360.1" type="curve"/>
      <point x="265.2" y="550.1" type="line"/>
      <point x="59.2" y="550.4" type="line"/>
      <point x="100.9" y="278.3" type="line"/>
      <point x="47.6" y="199.3"/>
      <point x="-11.0" y="108.8"/>
      <point x="-28.5" y="0.0" type="curve"/>
      <point x="176.0" y="0.0" type="line"/>
      <point x="191.1" y="85.0"/>
      <point x="221.3" y="146.1"/>
      <point x="245.5" y="194.5" type="curve"/>
      <point x="249.3" y="-0.3999999999999999" type="line"/>
      <point x="459.0" y="-0.4" type="line"/>
      <point x="409.6" y="276.5" type="line"/>
      <point x="484.3" y="383.8"/>
      <point x="519.8" y="491.4"/>
      <point x="531.1" y="550.0" type="curve"/>
    </contour>
  </outline>
</glyph>
<glyph name="y" format="2">
  <advance width="471.0"/>
  <unicode hex="0079"/>
  <anchor x="395.5" y="0.0" name="bottom"/>
  <anchor x="273.5" y="550.0" name="top"/>
  <outline>
    <contour>
      <point x="335.5" y="548.0" type="line"/>
      <point x="340.5" y="445.5"/>
      <point x="282.5" y="312.5"/>
      <point x="212.5" y="159.0" type="curve"/>
      <point x="206.0" y="550.0" type="line"/>
      <point x="34.0" y="549.0" type="line"/>
      <point x="83.0" y="-2.0" type="line"/>
      <point x="133.0" y="-2.0" type="line"/>
      <point x="104.0" y="-60.5"/>
      <point x="67.0" y="-122.0"/>
      <point x="12.0" y="-209.0" type="curve"/>
      <point x="176.0" y="-210.0" type="line"/>
      <point x="346.5" y="116.5"/>
      <point x="494.0" y="347.5"/>
      <point x="505.5" y="549.0" type="curve"/>
    </contour>
  </outline>
</glyph>
<glyph name="z" format="2">
  <advance width="438.7"/>
  <unicode hex="007A"/>
  <anchor x="183.6" y="0.0" name="bottom"/>
  <anchor x="219.7" y="275.0" name="center"/>
  <anchor x="263.6" y="550.0" name="top"/>
  <outline>
    <contour>
      <point x="-19.0" y="0.0" type="line"/>
      <point x="376.6" y="0.0" type="line"/>
      <point x="401.8" y="160.5" type="line"/>
      <point x="222.3" y="160.5" type="line"/>
      <point x="423.4" y="396.2" type="line"/>
      <point x="453.7" y="550.0" type="line"/>
      <point x="71.3" y="550.0" type="line"/>
      <point x="45.1" y="387.9" type="line"/>
      <point x="211.8" y="387.9" type="line"/>
      <point x="3.4" y="143.0" type="line"/>
    </contour>
  </outline>
</glyph>
<glyph name="braceleft" format="2">
  <advance width="291.2"/>
  <unicode hex="007B"/>
  <outline>
    <contour>
      <point x="-3.1999999999999993" y="-83.0" type="curve" smooth="yes"/>
      <point x="-3.1999999999999993" y="-175.0"/>
      <point x="48.4" y="-210.0"/>
      <point x="112.0" y="-210.0" type="curve" smooth="yes"/>
      <point x="195.60000000000002" y="-210.0" type="line"/>
      <point x="221.4" y="-60.0" type="line"/>
      <point x="190.39999999999998" y="-60.0" type="line" smooth="yes"/>
      <point x="171.2" y="-60.0"/>
      <point x="162.6" y="-48.6"/>
      <point x="162.6" y="-26.799999999999997" type="curve" smooth="yes"/>
      <point x="162.6" y="41.0"/>
      <point x="214.6" y="94.8"/>
      <point x="214.6" y="163.20000000000002" type="curve" smooth="yes"/>
      <point x="214.6" y="201.6"/>
      <point x="202.6" y="236.8"/>
      <point x="169.6" y="265.0" type="curve"/>
      <point x="228.2" y="307.59999999999997"/>
      <point x="258.4" y="366.0"/>
      <point x="258.4" y="432.8" type="curve" smooth="yes"/>
      <point x="258.4" y="460.6"/>
      <point x="252.2" y="483.40000000000003"/>
      <point x="252.2" y="514.2" type="curve" smooth="yes"/>
      <point x="252.2" y="546.0"/>
      <point x="262.2" y="590.0"/>
      <point x="297.8" y="590.0" type="curve" smooth="yes"/>
      <point x="327.2" y="590.0" type="line"/>
      <point x="351.4" y="740.0" type="line"/>
      <point x="267.8" y="740.0" type="line" smooth="yes"/>
      <point x="143.8" y="740.0"/>
      <point x="93.4" y="626.1999999999999"/>
      <point x="93.4" y="506.8" type="curve" smooth="yes"/>
      <point x="93.4" y="469.6"/>
      <point x="101.8" y="443.40000000000003"/>
      <point x="101.8" y="410.8" type="curve" smooth="yes"/>
      <point x="101.8" y="377.2"/>
      <point x="94.0" y="343.0"/>
      <point x="62.4" y="343.0" type="curve" smooth="yes"/>
      <point x="48.0" y="343.0" type="line"/>
      <point x="23.0" y="186.20000000000002" type="line"/>
      <point x="37.400000000000006" y="186.20000000000002" type="line" smooth="yes"/>
      <point x="55.800000000000004" y="186.20000000000002"/>
      <point x="62.0" y="177.6"/>
      <point x="62.0" y="159.6" type="curve" smooth="yes"/>
      <point x="62.0" y="102.60000000000001"/>
      <point x="-3.1999999999999993" y="15.6"/>
    </contour>
  </outline>
</glyph>
<glyph name="bar" format="2">
  <advance width="198.39999999999998"/>
  <unicode hex="007C"/>
  <outline>
    <contour>
      <point x="258.6" y="790.8" type="line"/>
      <point x="103.6" y="790.8" type="line"/>
      <point x="-56.0" y="-210.0" type="line"/>
      <point x="99.6" y="-210.0" type="line"/>
    </contour>
  </outline>
</glyph>
<glyph name="braceright" format="2">
  <advance width="291.2"/>
  <unicode hex="007D"/>
  <outline>
    <contour>
      <point x="291.4" y="613.0" type="curve" smooth="yes"/>
      <point x="291.4" y="705.8"/>
      <point x="239.0" y="740.8"/>
      <point x="175.4" y="740.8" type="curve" smooth="yes"/>
      <point x="91.8" y="740.8" type="line"/>
      <point x="66.0" y="590.8" type="line"/>
      <point x="89.0" y="590.8" type="line" smooth="yes"/>
      <point x="109.0" y="590.8"/>
      <point x="118.39999999999999" y="578.6"/>
      <point x="118.39999999999999" y="556.8" type="curve" smooth="yes"/>
      <point x="118.39999999999999" y="487.4"/>
      <point x="66.4" y="449.59999999999997"/>
      <point x="66.4" y="364.4" type="curve" smooth="yes"/>
      <point x="66.4" y="328.40000000000003"/>
      <point x="77.6" y="293.2"/>
      <point x="112.20000000000002" y="265.8" type="curve"/>
      <point x="53.6" y="222.4"/>
      <point x="22.600000000000005" y="165.6"/>
      <point x="22.600000000000005" y="98.0" type="curve" smooth="yes"/>
      <point x="22.600000000000005" y="70.2"/>
      <point x="28.799999999999997" y="47.400000000000006"/>
      <point x="28.799999999999997" y="18.2" type="curve" smooth="yes"/>
      <point x="28.799999999999997" y="-13.6"/>
      <point x="19.6" y="-59.2"/>
      <point x="-16.0" y="-59.2" type="curve" smooth="yes"/>
      <point x="-39.0" y="-59.2" type="line"/>
      <point x="-63.2" y="-210.0" type="line"/>
      <point x="19.6" y="-210.0" type="line" smooth="yes"/>
      <point x="143.6" y="-210.0"/>
      <point x="194.0" y="-85.80000000000001"/>
      <point x="194.0" y="8.0" type="curve" smooth="yes"/>
      <point x="194.0" y="66.8"/>
      <point x="185.6" y="96.2"/>
      <point x="185.6" y="123.2" type="curve" smooth="yes"/>
      <point x="185.6" y="155.2"/>
      <point x="195.0" y="187.8"/>
      <point x="225.0" y="187.8" type="curve" smooth="yes"/>
      <point x="239.4" y="187.8" type="line"/>
      <point x="264.4" y="343.79999999999995" type="line"/>
      <point x="250.0" y="343.79999999999995" type="line" smooth="yes"/>
      <point x="231.6" y="343.79999999999995"/>
      <point x="225.4" y="352.40000000000003"/>
      <point x="225.4" y="370.40000000000003" type="curve" smooth="yes"/>
      <point x="225.4" y="428.2"/>
      <point x="291.4" y="503.2"/>
    </contour>
  </outline>
</glyph>
<glyph name="asciitilde" format="2">
  <advance width="460.4"/>
  <unicode hex="007E"/>
  <outline>
    <contour>
      <point x="400.2" y="232.8" type="curve"/>
      <point x="425.4" y="398.8" type="line"/>
      <point x="396.6" y="373.8"/>
      <point x="368.2" y="365.20000000000005"/>
      <point x="337.0" y="365.20000000000005" type="curve" smooth="yes"/>
      <point x="258.2" y="365.20000000000005"/>
      <point x="233.39999999999998" y="432.8"/>
      <point x="165.4" y="432.8" type="curve" smooth="yes"/>
      <point x="120.8" y="432.8"/>
      <point x="81.0" y="407.0"/>
      <point x="74.4" y="400.0" type="curve"/>
      <point x="48.2" y="234.0" type="line"/>
      <point x="60.599999999999994" y="244.2"/>
      <point x="97.60000000000001" y="266.0"/>
      <point x="139.2" y="266.0" type="curve" smooth="yes"/>
      <point x="215.6" y="266.0"/>
      <point x="239.2" y="198.4"/>
      <point x="314.40000000000003" y="198.4" type="curve" smooth="yes"/>
      <point x="342.0" y="198.4"/>
      <point x="372.8" y="208.6"/>
    </contour>
  </outline>
</glyph>
<glyph name="cent" format="2">
  <advance width="546.0"/>
  <unicode hex="00A2"/>
  <outline>
    <contour>
      <point x="156.6" y="-105.6" type="line"/>
      <point x="310.0" y="-105.6" type="line"/>
      <point x="326.0" y="-3.4000000000000004" type="line"/>
      <point x="361.40000000000003" y="0.19999999999999973"/>
      <point x="394.59999999999997" y="6.399999999999999"/>
      <point x="421.0" y="17.0" type="curve"/>
      <point x="421.0" y="193.79999999999998" type="line"/>
      <point x="384.6" y="187.0"/>
      <point x="360.0" y="182.0"/>
      <point x="336.8" y="182.0" type="curve" smooth="yes"/>
      <point x="296.0" y="182.0"/>
      <point x="281.0" y="207.4"/>
      <point x="281.0" y="239.0" type="curve" smooth="yes"/>
      <point x="281.0" y="295.0"/>
      <point x="304.59999999999997" y="366.2"/>
      <point x="363.6" y="366.2" type="curve" smooth="yes"/>
      <point x="388.40000000000003" y="366.2"/>
      <point x="408.2" y="363.40000000000003"/>
      <point x="439.4" y="355.0" type="curve"/>
      <point x="496.59999999999997" y="539.8000000000001" type="line"/>
      <point x="472.2" y="547.4"/>
      <point x="448.0" y="553.1999999999999"/>
      <point x="414.8" y="556.0" type="curve"/>
      <point x="431.0" y="654.2" type="line"/>
      <point x="277.6" y="654.2" type="line"/>
      <point x="259.2" y="541.0" type="line"/>
      <point x="133.20000000000002" y="477.0"/>
      <point x="82.8" y="298.2"/>
      <point x="82.8" y="168.2" type="curve" smooth="yes"/>
      <point x="82.8" y="80.19999999999999"/>
      <point x="114.39999999999999" y="28.6"/>
      <point x="173.79999999999998" y="5.6" type="curve"/>
    </contour>
  </outline>
</glyph>
<glyph name="sterling" format="2">
  <advance width="546.0"/>
  <unicode hex="00A3"/>
  <outline>
    <contour>
      <point x="31.8" y="0.0" type="line"/>
      <point x="425.8" y="0.0" type="line"/>
      <point x="451.8" y="166.0" type="line"/>
      <point x="274.8" y="166.0" type="line"/>
      <point x="307.6" y="201.6"/>
      <point x="331.8" y="243.20000000000002"/>
      <point x="331.8" y="300.0" type="curve" smooth="yes"/>
      <point x="331.8" y="340.2"/>
      <point x="316.4" y="398.0"/>
      <point x="316.4" y="439.6" type="curve" smooth="yes"/>
      <point x="316.4" y="498.2"/>
      <point x="347.79999999999995" y="527.0"/>
      <point x="402.2" y="527.0" type="curve" smooth="yes"/>
      <point x="431.0" y="527.0"/>
      <point x="453.6" y="524.1999999999999"/>
      <point x="481.6" y="513.2" type="curve"/>
      <point x="533.8" y="674.2" type="line"/>
      <point x="491.6" y="698.0"/>
      <point x="444.2" y="710.0"/>
      <point x="386.6" y="710.0" type="curve" smooth="yes"/>
      <point x="233.4" y="710.0"/>
      <point x="136.2" y="589.4000000000001"/>
      <point x="136.2" y="466.40000000000003" type="curve" smooth="yes"/>
      <point x="136.2" y="398.6"/>
      <point x="160.0" y="337.4"/>
      <point x="160.0" y="284.2" type="curve" smooth="yes"/>
      <point x="160.0" y="218.2"/>
      <point x="110.00000000000001" y="162.79999999999998"/>
      <point x="51.2" y="126.0" type="curve"/>
    </contour>
    <contour>
      <point x="76.6" y="307.6" type="line"/>
      <point x="424.4" y="307.59999999999997" type="line"/>
      <point x="439.2" y="402.6" type="line"/>
      <point x="91.2" y="402.6" type="line"/>
    </contour>
  </outline>
</glyph>
<glyph name="currency" format="2">
  <advance width="421.8"/>
  <unicode hex="00A4"/>
  <outline>
    <contour>
      <point x="102.6" y="94.2" type="line"/>
      <point x="163.0" y="151.6" type="line"/>
      <point x="171.6" y="149.6"/>
      <point x="181.39999999999998" y="149.4"/>
      <point x="192.0" y="149.4" type="curve" smooth="yes"/>
      <point x="201.4" y="149.4"/>
      <point x="210.6" y="149.6"/>
      <point x="219.8" y="151.0" type="curve"/>
      <point x="263.4" y="94.2" type="line"/>
      <point x="382.8" y="207.8" type="line"/>
      <point x="349.0" y="252.6" type="line"/>
      <point x="356.6" y="269.4"/>
      <point x="361.40000000000003" y="286.8"/>
      <point x="363.0" y="305.0" type="curve" smooth="yes"/>
      <point x="364.6" y="316.4"/>
      <point x="364.40000000000003" y="328.59999999999997"/>
      <point x="363.40000000000003" y="340.6" type="curve"/>
      <point x="411.40000000000003" y="385.4" type="line"/>
      <point x="327.8" y="499.0" type="line"/>
      <point x="268.6" y="444.6" type="line"/>
      <point x="259.59999999999997" y="446.0"/>
      <point x="249.6" y="447.0"/>
      <point x="239.2" y="447.0" type="curve" smooth="yes"/>
      <point x="227.79999999999998" y="447.0"/>
      <point x="217.20000000000002" y="445.2"/>
      <point x="206.8" y="444.0" type="curve"/>
      <point x="166.8" y="499.0" type="line"/>
      <point x="45.8" y="385.4" type="line"/>
      <point x="81.0" y="337.6" type="line"/>
      <point x="74.60000000000001" y="323.2"/>
      <point x="70.6" y="307.8"/>
      <point x="69.0" y="292.0" type="curve" smooth="yes"/>
      <point x="67.4" y="280.0"/>
      <point x="66.8" y="267.2"/>
      <point x="68.0" y="255.6" type="curve"/>
      <point x="17.0" y="207.8" type="line"/>
    </contour>
    <contour>
      <point x="211.2" y="267.4" type="curve" smooth="yes"/>
      <point x="194.39999999999998" y="267.4"/>
      <point x="185.79999999999998" y="277.6"/>
      <point x="188.2" y="296.0" type="curve" smooth="yes"/>
      <point x="190.6" y="314.2"/>
      <point x="203.0" y="328.2"/>
      <point x="220.6" y="328.2" type="curve" smooth="yes"/>
      <point x="237.6" y="328.2"/>
      <point x="245.4" y="315.2"/>
      <point x="243.0" y="298.59999999999997" type="curve" smooth="yes"/>
      <point x="240.60000000000002" y="278.2"/>
      <point x="228.39999999999998" y="267.4"/>
    </contour>
  </outline>
</glyph>
<glyph name="yen" format="2">
  <advance width="577.0"/>
  <unicode hex="00A5"/>
  <outline>
    <contour>
      <point x="74.5" y="285.0" type="line"/>
      <point x="209.5" y="285.0" type="line"/>
      <point x="205.5" y="255.5" type="line"/>
      <point x="70.0" y="255.5" type="line"/>
      <point x="56.0" y="164.5" type="line"/>
      <point x="191.5" y="164.5" type="line"/>
      <point x="164.5" y="0.0" type="line"/>
      <point x="326.5" y="0.0" type="line"/>
      <point x="354.5" y="164.5" type="line"/>
      <point x="488.0" y="164.5" type="line"/>
      <point x="502.0" y="255.5" type="line"/>
      <point x="367.5" y="255.5" type="line"/>
      <point x="371.5" y="285.0" type="line"/>
      <point x="507.0" y="285.0" type="line"/>
      <point x="521.0" y="376.5" type="line"/>
      <point x="386.0" y="376.5" type="line"/>
      <point x="614.5" y="699.0" type="line"/>
      <point x="440.5" y="700.0" type="line"/>
      <point x="321.5" y="484.5" type="line"/>
      <point x="272.5" y="701.0" type="line"/>
      <point x="97.0" y="698.5" type="line"/>
      <point x="224.5" y="376.5" type="line"/>
      <point x="88.5" y="376.5" type="line"/>
    </contour>
  </outline>
</glyph>
<glyph name="brokenbar" format="2">
  <advance width="202.4"/>
  <unicode hex="00A6"/>
  <outline>
    <contour>
      <point x="197.6" y="391.0" type="line"/>
      <point x="263.40000000000003" y="790.8" type="line"/>
      <point x="108.39999999999999" y="790.8" type="line"/>
      <point x="42.6" y="391.0" type="line"/>
    </contour>
    <contour>
      <point x="9.000000000000002" y="190.8" type="line"/>
      <point x="-55.99999999999999" y="-210.0" type="line"/>
      <point x="98.80000000000001" y="-210.0" type="line"/>
      <point x="164.6" y="190.8" type="line"/>
    </contour>
  </outline>
</glyph>
<glyph name="section" format="2">
  <advance width="468.9"/>
  <unicode hex="00A7"/>
  <outline>
    <contour>
      <point x="17.8" y="2.1999999999999993" type="curve"/>
      <point x="-47.8" y="-186.8" type="line"/>
      <point x="-6.9" y="-206.2"/>
      <point x="66.3" y="-220.0"/>
      <point x="103.5" y="-220.0" type="curve" smooth="yes"/>
      <point x="312.0" y="-220.0"/>
      <point x="422.8" y="-16.6"/>
      <point x="422.8" y="161.4" type="curve" smooth="yes"/>
      <point x="422.8" y="285.3"/>
      <point x="350.6" y="379.5"/>
      <point x="350.6" y="475.6" type="curve" smooth="yes"/>
      <point x="350.6" y="514.4"/>
      <point x="369.6" y="546.2"/>
      <point x="402.6" y="546.2" type="curve" smooth="yes"/>
      <point x="413.7" y="546.2"/>
      <point x="420.4" y="541.8"/>
      <point x="433.2" y="535.0" type="curve"/>
      <point x="499.0" y="724.4" type="line"/>
      <point x="469.2" y="741.7"/>
      <point x="407.6" y="749.8"/>
      <point x="373.8" y="749.8" type="curve" smooth="yes"/>
      <point x="147.8" y="749.8"/>
      <point x="45.7" y="560.4"/>
      <point x="45.7" y="380.0" type="curve" smooth="yes"/>
      <point x="45.7" y="236.0"/>
      <point x="119.2" y="116.6"/>
      <point x="119.2" y="28.4" type="curve" smooth="yes"/>
      <point x="119.2" y="7.2"/>
      <point x="108.0" y="-18.6"/>
      <point x="79.6" y="-18.6" type="curve" smooth="yes"/>
      <point x="59.9" y="-18.6"/>
      <point x="38.9" y="-13.5"/>
    </contour>
    <contour>
      <point x="306.1" y="633.1" type="curve"/>
      <point x="241.2" y="583.8"/>
      <point x="221.2" y="510.4"/>
      <point x="221.2" y="447.4" type="curve" smooth="yes"/>
      <point x="221.2" y="343.8"/>
      <point x="285.6" y="227.0"/>
      <point x="285.6" y="128.4" type="curve" smooth="yes"/>
      <point x="285.6" y="24.2"/>
      <point x="234.6" y="-106.2"/>
      <point x="120.4" y="-114.8" type="curve"/>
      <point x="214.7" y="-84.5"/>
      <point x="250.4" y="3.6"/>
      <point x="250.4" y="81.2" type="curve" smooth="yes"/>
      <point x="250.4" y="190.1"/>
      <point x="184.6" y="297.0"/>
      <point x="184.6" y="404.0" type="curve" smooth="yes"/>
      <point x="184.6" y="491.2"/>
      <point x="217.7" y="596.0"/>
    </contour>
  </outline>
</glyph>
<glyph name="copyright" format="2">
  <advance width="726.4"/>
  <unicode hex="00A9"/>
  <outline>
    <contour>
      <point x="347.3" y="-10.2" type="curve" smooth="yes"/>
      <point x="591.8" y="-10.8"/>
      <point x="700.7" y="152.3"/>
      <point x="700.7" y="384.5" type="curve" smooth="yes"/>
      <point x="700.7" y="585.7"/>
      <point x="603.0" y="708.7"/>
      <point x="404.0" y="709.3" type="curve" smooth="yes"/>
      <point x="159.2" y="709.9"/>
      <point x="48.9" y="547.4"/>
      <point x="48.9" y="314.8" type="curve" smooth="yes"/>
      <point x="48.9" y="113.8"/>
      <point x="147.0" y="-9.6"/>
    </contour>
    <contour>
      <point x="360.9" y="124.8" type="curve" smooth="yes"/>
      <point x="395.3" y="124.8"/>
      <point x="433.3" y="133.0"/>
      <point x="456.7" y="145.7" type="curve"/>
      <point x="454.1" y="241.7" type="line"/>
      <point x="436.0" y="235.4"/>
      <point x="415.1" y="231.2"/>
      <point x="397.7" y="231.2" type="curve" smooth="yes"/>
      <point x="364.2" y="231.2"/>
      <point x="343.7" y="258.1"/>
      <point x="343.7" y="305.9" type="curve" smooth="yes"/>
      <point x="343.7" y="389.0"/>
      <point x="373.7" y="459.7"/>
      <point x="426.1" y="459.7" type="curve" smooth="yes"/>
      <point x="442.6" y="459.7"/>
      <point x="458.2" y="457.4"/>
      <point x="474.3" y="451.5" type="curve"/>
      <point x="506.3" y="562.0" type="line"/>
      <point x="488.8" y="570.1"/>
      <point x="463.2" y="576.7"/>
      <point x="426.1" y="576.7" type="curve" smooth="yes"/>
      <point x="321.1" y="576.7"/>
      <point x="225.7" y="470.3"/>
      <point x="225.7" y="303.8" type="curve" smooth="yes"/>
      <point x="225.7" y="183.9"/>
      <point x="276.7" y="124.8"/>
    </contour>
    <contour>
      <point x="354.3" y="49.5" type="curve" smooth="yes"/>
      <point x="190.9" y="49.5"/>
      <point x="113.7" y="145.6"/>
      <point x="113.7" y="315.4" type="curve" smooth="yes"/>
      <point x="113.7" y="509.7"/>
      <point x="191.6" y="649.6"/>
      <point x="397.1" y="649.6" type="curve" smooth="yes"/>
      <point x="557.5" y="649.6"/>
      <point x="635.9" y="553.5"/>
      <point x="635.9" y="384.3" type="curve" smooth="yes"/>
      <point x="635.9" y="190.4"/>
      <point x="559.4" y="49.5"/>
    </contour>
  </outline>
</glyph>
<glyph name="ordfeminine" format="2">
  <advance width="338.2"/>
  <unicode hex="00AA"/>
  <outline>
    <contour>
      <point x="19.4" y="226.79999999999998" type="line"/>
      <point x="303.8" y="226.79999999999998" type="line"/>
      <point x="318.40000000000003" y="322.6" type="line"/>
      <point x="34.0" y="322.6" type="line"/>
    </contour>
    <component base="a.superior" xOffset="8.0"/>
  </outline>
</glyph>
<glyph name="logicalnot" format="2">
  <advance width="457.8"/>
  <unicode hex="00AC"/>
  <outline>
    <contour>
      <point x="48.2" y="293.8" type="line"/>
      <point x="253.6" y="293.8" type="line"/>
      <point x="236.0" y="173.6" type="line"/>
      <point x="396.20000000000005" y="173.6" type="line"/>
      <point x="440.59999999999997" y="454.8" type="line"/>
      <point x="75.0" y="454.8" type="line"/>
    </contour>
  </outline>
</glyph>
<glyph name="registered" format="2">
  <advance width="653.2"/>
  <unicode hex="00AE"/>
  <outline>
    <contour>
      <point x="329.4" y="208.4" type="curve" smooth="yes"/>
      <point x="534.4" y="208.4"/>
      <point x="662.2" y="360.2"/>
      <point x="662.2" y="599.6" type="curve" smooth="yes"/>
      <point x="662.2" y="779.8"/>
      <point x="575.1" y="893.0"/>
      <point x="410.2" y="893.0" type="curve" smooth="yes"/>
      <point x="205.2" y="893.0"/>
      <point x="78.4" y="740.7"/>
      <point x="78.4" y="501.8" type="curve" smooth="yes"/>
      <point x="78.4" y="321.6"/>
      <point x="164.5" y="208.4"/>
    </contour>
    <contour>
      <point x="334.8" y="264.8" type="curve" smooth="yes"/>
      <point x="204.9" y="264.8"/>
      <point x="137.1" y="358.8"/>
      <point x="137.1" y="499.5" type="curve" smooth="yes"/>
      <point x="137.1" y="710.9"/>
      <point x="236.2" y="836.1"/>
      <point x="404.8" y="836.1" type="curve" smooth="yes"/>
      <point x="534.7" y="836.1"/>
      <point x="603.5" y="742.6"/>
      <point x="603.5" y="601.4" type="curve" smooth="yes"/>
      <point x="603.5" y="390.0"/>
      <point x="503.4" y="264.8"/>
    </contour>
    <contour>
      <point x="217.6" y="352.1" type="line"/>
      <point x="322.4" y="352.1" type="line"/>
      <point x="341.0" y="470.7" type="line"/>
      <point x="345.6" y="470.5"/>
      <point x="349.8" y="470.3"/>
      <point x="355.3" y="470.3" type="curve"/>
      <point x="377.8" y="483.8" type="line"/>
      <point x="462.3" y="483.7"/>
      <point x="524.8" y="543.0"/>
      <point x="524.8" y="647.4" type="curve" smooth="yes"/>
      <point x="524.8" y="721.9"/>
      <point x="482.5" y="763.5"/>
      <point x="398.8" y="763.5" type="curve" smooth="yes"/>
      <point x="361.7" y="763.5"/>
      <point x="325.6" y="761.0"/>
      <point x="282.3" y="756.6" type="curve"/>
    </contour>
    <contour>
      <point x="368.6" y="553.1" type="curve" smooth="yes"/>
      <point x="365.2" y="553.1"/>
      <point x="361.6" y="553.8"/>
      <point x="354.1" y="554.6" type="curve"/>
      <point x="373.0" y="668.9" type="line"/>
      <point x="383.9" y="669.8"/>
      <point x="388.4" y="670.8"/>
      <point x="396.1" y="670.8" type="curve" smooth="yes"/>
      <point x="413.5" y="670.8"/>
      <point x="420.2" y="659.7"/>
      <point x="420.2" y="642.4" type="curve" smooth="yes"/>
      <point x="420.2" y="596.7"/>
      <point x="401.4" y="553.1"/>
    </contour>
    <contour>
      <point x="455.1" y="346.4" type="curve" smooth="yes"/>
      <point x="461.3" y="346.4"/>
      <point x="477.1" y="348.5"/>
      <point x="484.4" y="351.9" type="curve"/>
      <point x="497.5" y="461.3" type="line"/>
      <point x="495.3" y="461.4"/>
      <point x="493.1" y="461.4"/>
      <point x="490.9" y="461.4" type="curve" smooth="yes"/>
      <point x="470.5" y="461.4"/>
      <point x="448.6" y="480.0"/>
      <point x="437.6" y="516.9" type="curve"/>
      <point x="344.0" y="490.3" type="line"/>
      <point x="378.6" y="363.2"/>
      <point x="411.5" y="346.4"/>
    </contour>
  </outline>
</glyph>
<glyph name="degree" format="2">
  <advance width="329.6"/>
  <unicode hex="00B0"/>
  <outline>
    <contour>
      <point x="180.4" y="359.6" type="curve" smooth="yes"/>
      <point x="296.79999999999995" y="359.6"/>
      <point x="349.4" y="482.0"/>
      <point x="349.4" y="580.4" type="curve" smooth="yes"/>
      <point x="349.4" y="651.1999999999999"/>
      <point x="318.8" y="709.6"/>
      <point x="232.0" y="709.6" type="curve" smooth="yes"/>
      <point x="116.4" y="709.6"/>
      <point x="62.2" y="588.8"/>
      <point x="62.2" y="490.4" type="curve" smooth="yes"/>
      <point x="62.2" y="416.4"/>
      <point x="96.8" y="359.6"/>
    </contour>
    <contour>
      <point x="198.8" y="490.4" type="curve" smooth="yes"/>
      <point x="185.2" y="490.4"/>
      <point x="177.8" y="501.4"/>
      <point x="177.8" y="519.4" type="curve" smooth="yes"/>
      <point x="177.8" y="545.0"/>
      <point x="188.4" y="575.6"/>
      <point x="212.0" y="575.6" type="curve" smooth="yes"/>
      <point x="226.39999999999998" y="575.6"/>
      <point x="233.8" y="564.6"/>
      <point x="233.8" y="547.4" type="curve" smooth="yes"/>
      <point x="233.8" y="522.6"/>
      <point x="222.4" y="490.4"/>
    </contour>
  </outline>
</glyph>
<glyph name="plusminus" format="2">
  <advance width="458.2"/>
  <unicode hex="00B1"/>
  <outline>
    <contour>
      <point x="368.0" y="-0.2" type="line"/>
      <point x="394.8" y="168.8" type="line"/>
      <point x="292.4" y="168.8" type="line"/>
      <point x="306.2" y="254.6" type="line"/>
      <point x="408.6" y="254.6" type="line"/>
      <point x="435.40000000000003" y="423.6" type="line"/>
      <point x="333.0" y="423.6" type="line"/>
      <point x="348.2" y="519.6" type="line"/>
      <point x="187.2" y="519.6" type="line"/>
      <point x="171.6" y="423.6" type="line"/>
      <point x="69.8" y="423.6" type="line"/>
      <point x="43.0" y="254.6" type="line"/>
      <point x="145.2" y="254.6" type="line"/>
      <point x="131.0" y="168.8" type="line"/>
      <point x="29.2" y="168.8" type="line"/>
      <point x="2.4000000000000004" y="-0.2" type="line"/>
    </contour>
  </outline>
</glyph>
<glyph name="uni00B2" format="2">
  <advance width="308.5"/>
  <unicode hex="00B2"/>
  <outline>
    <contour>
      <point x="36.5" y="369.9" type="line"/>
      <point x="297.8" y="369.9" type="line"/>
      <point x="313.9" y="457.9" type="line"/>
      <point x="202.8" y="457.9" type="line"/>
      <point x="274.9" y="524.1"/>
      <point x="337.8" y="589.3"/>
      <point x="337.8" y="678.6" type="curve" smooth="yes"/>
      <point x="337.8" y="739.4"/>
      <point x="289.7" y="773.9"/>
      <point x="225.4" y="773.9" type="curve" smooth="yes"/>
      <point x="176.5" y="773.9"/>
      <point x="123.2" y="758.2"/>
      <point x="86.5" y="736.1" type="curve"/>
      <point x="107.3" y="629.3" type="line"/>
      <point x="129.8" y="640.9"/>
      <point x="149.8" y="648.4"/>
      <point x="170.5" y="648.4" type="curve" smooth="yes"/>
      <point x="189.4" y="648.4"/>
      <point x="199.2" y="636.8"/>
      <point x="199.2" y="620.4" type="curve" smooth="yes"/>
      <point x="199.0" y="575.0"/>
      <point x="117.3" y="483.5"/>
      <point x="49.8" y="447.1" type="curve"/>
    </contour>
  </outline>
</glyph>
<glyph name="uni00B3" format="2">
  <advance width="331.5"/>
  <unicode hex="00B3"/>
  <outline>
    <contour>
      <point x="39.0" y="393.0" type="line"/>
      <point x="72.0" y="375.0"/>
      <point x="110.0" y="365.0"/>
      <point x="161.0" y="365.0" type="curve" smooth="yes"/>
      <point x="243.0" y="365.0"/>
      <point x="336.5" y="402.0"/>
      <point x="336.5" y="499.5" type="curve" smooth="yes"/>
      <point x="336.5" y="542.5"/>
      <point x="314.0" y="564.0"/>
      <point x="288.0" y="577.0" type="curve"/>
      <point x="332.5" y="601.5"/>
      <point x="363.0" y="632.0"/>
      <point x="363.0" y="686.0" type="curve" smooth="yes"/>
      <point x="363.0" y="740.0"/>
      <point x="312.5" y="775.5"/>
      <point x="234.0" y="775.5" type="curve" smooth="yes"/>
      <point x="184.0" y="775.5"/>
      <point x="133.5" y="762.5"/>
      <point x="102.0" y="744.0" type="curve"/>
      <point x="115.0" y="656.0" type="line"/>
      <point x="135.0" y="662.5"/>
      <point x="165.0" y="667.5"/>
      <point x="189.5" y="667.5" type="curve" smooth="yes"/>
      <point x="222.5" y="667.5"/>
      <point x="238.0" y="656.5"/>
      <point x="238.0" y="642.5" type="curve" smooth="yes"/>
      <point x="238.0" y="625.0"/>
      <point x="217.0" y="612.0"/>
      <point x="182.5" y="612.0" type="curve" smooth="yes"/>
      <point x="142.0" y="612.0" type="line"/>
      <point x="127.0" y="531.0" type="line"/>
      <point x="167.5" y="531.0" type="line" smooth="yes"/>
      <point x="208.0" y="531.0"/>
      <point x="221.0" y="518.0"/>
      <point x="221.0" y="503.0" type="curve" smooth="yes"/>
      <point x="221.0" y="482.0"/>
      <point x="198.5" y="467.5"/>
      <point x="159.5" y="467.5" type="curve" smooth="yes"/>
      <point x="133.0" y="467.5"/>
      <point x="109.0" y="472.5"/>
      <point x="87.5" y="482.5" type="curve"/>
    </contour>
  </outline>
</glyph>
<glyph name="uni00B5" format="2">
  <advance width="486.6"/>
  <unicode hex="00B5"/>
  <outline>
    <contour>
      <point x="-50.0" y="-210.0" type="line"/>
      <point x="134.6" y="-210.0" type="line"/>
      <point x="166.8" y="-9.6" type="line"/>
      <point x="169.6" y="-9.8"/>
      <point x="171.8" y="-10.0"/>
      <point x="174.79999999999998" y="-10.0" type="curve" smooth="yes"/>
      <point x="198.8" y="-10.0"/>
      <point x="230.0" y="3.6"/>
      <point x="257.8" y="40.8" type="curve"/>
      <point x="271.59999999999997" y="15.600000000000001"/>
      <point x="305.40000000000003" y="-10.0"/>
      <point x="349.8" y="-10.0" type="curve" smooth="yes"/>
      <point x="383.4" y="-10.0"/>
      <point x="421.0" y="1.2000000000000002"/>
      <point x="444.40000000000003" y="19.4" type="curve"/>
      <point x="461.59999999999997" y="164.6" type="line"/>
      <point x="456.6" y="163.0"/>
      <point x="452.2" y="163.0"/>
      <point x="450.0" y="163.0" type="curve" smooth="yes"/>
      <point x="442.40000000000003" y="163.0"/>
      <point x="438.0" y="168.20000000000002"/>
      <point x="438.0" y="180.4" type="curve" smooth="yes"/>
      <point x="438.0" y="185.20000000000002"/>
      <point x="439.0" y="193.2"/>
      <point x="497.0" y="550.0" type="curve"/>
      <point x="312.79999999999995" y="550.0" type="line"/>
      <point x="251.2" y="170.8" type="line"/>
      <point x="241.20000000000002" y="164.4"/>
      <point x="229.4" y="160.20000000000002"/>
      <point x="217.6" y="160.20000000000002" type="curve" smooth="yes"/>
      <point x="204.0" y="160.20000000000002"/>
      <point x="196.60000000000002" y="168.2"/>
      <point x="198.20000000000002" y="183.8" type="curve" smooth="yes"/>
      <point x="216.60000000000002" y="282.2"/>
      <point x="232.20000000000002" y="401.6"/>
      <point x="256.6" y="550.0" type="curve"/>
      <point x="71.60000000000001" y="550.0" type="line"/>
    </contour>
  </outline>
</glyph>
<glyph name="paragraph" format="2">
  <advance width="582.8"/>
  <unicode hex="00B6"/>
  <outline>
    <contour>
      <point x="331.0" y="-210.0" type="line"/>
      <point x="471.6" y="-210.0" type="line"/>
      <point x="624.1999999999999" y="740.0" type="line"/>
      <point x="483.6" y="740.0" type="line"/>
    </contour>
    <contour>
      <point x="249.0" y="369.0" type="line"/>
      <point x="235.2" y="373.6"/>
      <point x="220.79999999999998" y="399.59999999999997"/>
      <point x="220.79999999999998" y="442.4" type="curve" smooth="yes"/>
      <point x="220.79999999999998" y="490.2"/>
      <point x="235.0" y="567.8000000000001"/>
      <point x="290.8" y="569.4" type="curve"/>
      <point x="166.39999999999998" y="-210.0" type="line"/>
      <point x="307.0" y="-210.0" type="line"/>
      <point x="459.59999999999997" y="740.0" type="line"/>
      <point x="368.2" y="740.0" type="line" smooth="yes"/>
      <point x="169.2" y="740.0"/>
      <point x="61.400000000000006" y="610.5999999999999"/>
      <point x="61.400000000000006" y="432.40000000000003" type="curve" smooth="yes"/>
      <point x="61.400000000000006" y="335.59999999999997"/>
      <point x="108.0" y="267.0"/>
      <point x="210.0" y="245.6" type="curve"/>
    </contour>
  </outline>
</glyph>
<glyph name="periodcentered" format="2">
  <advance width="228.8"/>
  <unicode hex="00B7"/>
  <outline>
    <contour>
      <point x="18.8" y="290.0" type="curve" smooth="yes"/>
      <point x="18.8" y="236.2"/>
      <point x="45.0" y="209.2"/>
      <point x="104.0" y="209.2" type="curve" smooth="yes"/>
      <point x="192.20000000000002" y="209.2"/>
      <point x="225.20000000000002" y="293.4"/>
      <point x="225.2" y="363.4" type="curve" smooth="yes"/>
      <point x="225.20000000000002" y="416.0"/>
      <point x="199.0" y="443.0"/>
      <point x="141.0" y="443.0" type="curve" smooth="yes"/>
      <point x="53.8" y="443.0"/>
      <point x="18.8" y="359.2"/>
    </contour>
  </outline>
</glyph>
<glyph name="uni00B9" format="2">
  <advance width="287.2"/>
  <unicode hex="00B9"/>
  <outline>
    <contour>
      <point x="41.800000000000004" y="370.0" type="line"/>
      <point x="284.6" y="370.0" type="line"/>
      <point x="302.2" y="465.8" type="line"/>
      <point x="245.8" y="465.8" type="line"/>
      <point x="298.6" y="767.2" type="line"/>
      <point x="234.20000000000002" y="767.2" type="line"/>
      <point x="90.60000000000001" y="726.5999999999999" type="line"/>
      <point x="95.0" y="616.8" type="line"/>
      <point x="152.0" y="631.4" type="line"/>
      <point x="122.2" y="465.8" type="line"/>
      <point x="57.800000000000004" y="465.8" type="line"/>
    </contour>
  </outline>
</glyph>
<glyph name="ordmasculine" format="2">
  <advance width="313.20000000000005"/>
  <unicode hex="00BA"/>
  <outline>
    <contour>
      <point x="19.799999999999997" y="226.79999999999998" type="line"/>
      <point x="282.0" y="226.79999999999998" type="line"/>
      <point x="296.59999999999997" y="322.6" type="line"/>
      <point x="34.4" y="322.6" type="line"/>
    </contour>
    <component base="o.superior" xOffset="8.0"/>
  </outline>
</glyph>
<glyph name="AE" format="2">
  <advance width="738.0"/>
  <unicode hex="00C6"/>
  <anchor x="333.95520000000005" y="0.0" name="bottom"/>
  <anchor x="467.4" y="700.0" name="top"/>
  <outline>
    <contour>
      <point x="271.40000000000003" y="0.0" type="line"/>
      <point x="677.8000000000001" y="0.0" type="line"/>
      <point x="704.6" y="167.4" type="line"/>
      <point x="481.2" y="167.4" type="line"/>
      <point x="497.4" y="271.40000000000003" type="line"/>
      <point x="684.5999999999999" y="271.40000000000003" type="line"/>
      <point x="710.5999999999999" y="425.8" type="line"/>
      <point x="522.6" y="425.8" type="line"/>
      <point x="538.8" y="528.6" type="line"/>
      <point x="749.4000000000001" y="528.6" type="line"/>
      <point x="777.8" y="700.0" type="line"/>
      <point x="253.40000000000003" y="700.0" type="line"/>
      <point x="-44.0" y="0.0" type="line"/>
      <point x="154.6" y="0.0" type="line"/>
      <point x="198.39999999999998" y="107.0" type="line"/>
      <point x="288.2" y="107.0" type="line"/>
    </contour>
    <contour>
      <point x="260.2" y="271.20000000000005" type="line"/>
      <point x="360.4" y="564.2" type="line"/>
      <point x="313.59999999999997" y="271.20000000000005" type="line"/>
    </contour>
  </outline>
</glyph>
<glyph name="multiply" format="2">
  <advance width="433.0"/>
  <unicode hex="00D7"/>
  <outline>
    <contour>
      <point x="121.60000000000001" y="143.0" type="line"/>
      <point x="208.4" y="220.20000000000002" type="line"/>
      <point x="273.8" y="139.79999999999998" type="line"/>
      <point x="397.59999999999997" y="262.0" type="line"/>
      <point x="338.0" y="336.6" type="line"/>
      <point x="421.2" y="411.0" type="line"/>
      <point x="332.0" y="531.0" type="line"/>
      <point x="245.0" y="453.4" type="line"/>
      <point x="179.4" y="533.4" type="line"/>
      <point x="55.4" y="413.0" type="line"/>
      <point x="116.2" y="337.2" type="line"/>
      <point x="31.4" y="262.0" type="line"/>
    </contour>
  </outline>
</glyph>
<glyph name="Oslash" format="2">
  <advance width="548.5"/>
  <unicode hex="00D8"/>
  <anchor x="338.0" y="700.0" name="top"/>
  <outline>
    <contour>
      <point x="603.0" y="715.0" type="line"/>
      <point x="504.5" y="715.0" type="line"/>
      <point x="419.0" y="600.5" type="line"/>
      <point x="413.0" y="602.0" type="line"/>
      <point x="119.0" y="183.5" type="line"/>
      <point x="114.0" y="185.5" type="line"/>
      <point x="-27.0" y="-7.0" type="line"/>
      <point x="71.0" y="-7.0" type="line"/>
      <point x="165.5" y="118.5" type="line"/>
      <point x="171.5" y="117.0" type="line"/>
      <point x="456.5" y="522.0" type="line"/>
      <point x="461.0" y="520.0" type="line"/>
    </contour>
    <contour>
      <point x="247.0" y="-8.0" type="curve" smooth="yes"/>
      <point x="459.5" y="-8.0"/>
      <point x="546.0" y="220.5"/>
      <point x="551.5" y="458.5" type="curve" smooth="yes"/>
      <point x="555.5" y="621.5"/>
      <point x="482.5" y="708.0"/>
      <point x="328.5" y="708.0" type="curve" smooth="yes"/>
      <point x="119.5" y="708.0"/>
      <point x="29.5" y="479.5"/>
      <point x="24.0" y="241.5" type="curve" smooth="yes"/>
      <point x="20.0" y="78.5"/>
      <point x="93.0" y="-8.0"/>
    </contour>
    <contour>
      <point x="260.5" y="157.5" type="curve" smooth="yes"/>
      <point x="221.0" y="157.5"/>
      <point x="206.0" y="178.0"/>
      <point x="206.0" y="231.5" type="curve" smooth="yes"/>
      <point x="206.0" y="343.0"/>
      <point x="257.0" y="542.5"/>
      <point x="317.5" y="542.5" type="curve" smooth="yes"/>
      <point x="355.5" y="542.5"/>
      <point x="370.5" y="522.0"/>
      <point x="370.5" y="469.5" type="curve" smooth="yes"/>
      <point x="370.5" y="362.0"/>
      <point x="318.0" y="157.5"/>
    </contour>
  </outline>
</glyph>
<glyph name="Thorn" format="2">
  <advance width="540.0"/>
  <unicode hex="00DE"/>
  <outline>
    <contour>
      <point x="-12.0" y="0.0" type="line"/>
      <point x="177.5" y="0.0" type="line"/>
      <point x="190.5" y="80.5" type="line"/>
      <point x="230.0" y="76.5"/>
      <point x="238.5" y="76.0"/>
      <point x="262.0" y="76.0" type="curve" smooth="yes"/>
      <point x="442.5" y="76.0"/>
      <point x="545.5" y="214.0"/>
      <point x="545.5" y="421.0" type="curve" smooth="yes"/>
      <point x="545.5" y="555.5"/>
      <point x="485.5" y="631.5"/>
      <point x="318.5" y="631.5" type="curve" smooth="yes"/>
      <point x="309.5" y="631.5"/>
      <point x="296.0" y="631.0"/>
      <point x="279.5" y="631.0" type="curve"/>
      <point x="290.5" y="700.0" type="line"/>
      <point x="101.0" y="700.0" type="line"/>
    </contour>
    <contour>
      <point x="253.0" y="241.5" type="curve" smooth="yes"/>
      <point x="244.0" y="241.5"/>
      <point x="236.5" y="241.5"/>
      <point x="219.0" y="244.0" type="curve"/>
      <point x="252.0" y="463.0" type="line"/>
      <point x="277.5" y="465.5"/>
      <point x="284.0" y="466.5"/>
      <point x="302.5" y="466.5" type="curve" smooth="yes"/>
      <point x="342.0" y="466.5"/>
      <point x="356.5" y="441.0"/>
      <point x="356.5" y="404.0" type="curve" smooth="yes"/>
      <point x="356.5" y="306.0"/>
      <point x="321.0" y="241.5"/>
    </contour>
  </outline>
</glyph>
<glyph name="germandbls" format="2">
  <advance width="651.5"/>
  <unicode hex="00DF"/>
  <outline>
    <contour>
      <point x="14.7" y="9.600000000000001" type="line" smooth="yes"/>
      <point x="7.8" y="-30.6"/>
      <point x="-7.3" y="-44.5"/>
      <point x="-27.6" y="-44.5" type="curve" smooth="yes"/>
      <point x="-36.4" y="-44.5"/>
      <point x="-45.9" y="-44.1"/>
      <point x="-59.9" y="-39.7" type="curve"/>
      <point x="-106.1" y="-200.4" type="line"/>
      <point x="-71.9" y="-213.8"/>
      <point x="-39.4" y="-220.0"/>
      <point x="-3.299999999999999" y="-220.0" type="curve" smooth="yes"/>
      <point x="113.4" y="-220.0"/>
      <point x="173.7" y="-148.0"/>
      <point x="197.1" y="0.0" type="curve" smooth="yes"/>
      <point x="273.7" y="493.8" type="line" smooth="yes"/>
      <point x="283.0" y="551.2"/>
      <point x="325.2" y="582.7"/>
      <point x="392.5" y="582.7" type="curve" smooth="yes"/>
      <point x="443.8" y="582.7"/>
      <point x="459.9" y="567.2"/>
      <point x="459.9" y="552.4" type="curve" smooth="yes"/>
      <point x="459.9" y="534.1"/>
      <point x="450.3" y="526.2"/>
      <point x="391.0" y="504.8" type="curve" smooth="yes"/>
      <point x="326.7" y="481.0"/>
      <point x="285.7" y="436.1"/>
      <point x="285.7" y="346.7" type="curve" smooth="yes"/>
      <point x="285.7" y="264.1"/>
      <point x="328.5" y="230.2"/>
      <point x="387.8" y="209.0" type="curve" smooth="yes"/>
      <point x="438.8" y="190.0"/>
      <point x="447.6" y="186.3"/>
      <point x="447.6" y="169.2" type="curve" smooth="yes"/>
      <point x="447.6" y="161.0"/>
      <point x="430.0" y="149.1"/>
      <point x="395.8" y="149.1" type="curve" smooth="yes"/>
      <point x="355.7" y="149.1"/>
      <point x="305.7" y="157.8"/>
      <point x="268.6" y="168.6" type="curve"/>
      <point x="229.2" y="19.7" type="line"/>
      <point x="270.8" y="2.9"/>
      <point x="323.6" y="-9.8"/>
      <point x="392.3" y="-9.8" type="curve" smooth="yes"/>
      <point x="557.8" y="-9.8"/>
      <point x="636.1" y="62.6"/>
      <point x="636.1" y="188.2" type="curve" smooth="yes"/>
      <point x="636.1" y="276.0"/>
      <point x="595.2" y="315.7"/>
      <point x="531.1" y="334.9" type="curve" smooth="yes"/>
      <point x="472.1" y="352.4"/>
      <point x="462.4" y="357.6"/>
      <point x="462.4" y="372.0" type="curve" smooth="yes"/>
      <point x="462.4" y="384.6"/>
      <point x="470.7" y="389.1"/>
      <point x="528.8" y="404.6" type="curve" smooth="yes"/>
      <point x="603.8" y="424.8"/>
      <point x="648.0" y="470.9"/>
      <point x="648.0" y="568.2" type="curve" smooth="yes"/>
      <point x="648.0" y="679.2"/>
      <point x="561.0" y="750.0"/>
      <point x="400.2" y="750.0" type="curve" smooth="yes"/>
      <point x="213.6" y="750.0"/>
      <point x="118.7" y="669.7"/>
      <point x="96.0" y="523.1" type="curve" smooth="yes"/>
      <point x="95.8" y="520.0" type="line"/>
      <point x="44.4" y="510.5" type="line"/>
      <point x="19.7" y="363.9" type="line"/>
      <point x="70.1" y="363.9" type="line"/>
    </contour>
  </outline>
</glyph>
<glyph name="ae" format="2">
  <advance width="711.0"/>
  <unicode hex="00E6"/>
  <anchor x="320.0" y="0.0" name="bottom"/>
  <anchor x="406.5" y="550.0" name="top"/>
  <outline>
    <contour>
      <point x="139.0" y="-10.0" type="curve" smooth="yes"/>
      <point x="174.5" y="-10.0"/>
      <point x="205.5" y="0.5"/>
      <point x="243.5" y="40.0" type="curve"/>
      <point x="236.5" y="0.0" type="line"/>
      <point x="401.0" y="0.0" type="line"/>
      <point x="407.0" y="37.0" type="line"/>
      <point x="437.0" y="9.0"/>
      <point x="477.0" y="-8.5"/>
      <point x="525.5" y="-8.5" type="curve" smooth="yes"/>
      <point x="571.0" y="-8.5"/>
      <point x="618.5" y="2.0"/>
      <point x="661.5" y="26.5" type="curve"/>
      <point x="642.0" y="185.0" type="line"/>
      <point x="592.5" y="166.0"/>
      <point x="547.0" y="158.5"/>
      <point x="519.5" y="158.5" type="curve" smooth="yes"/>
      <point x="473.0" y="158.5"/>
      <point x="444.5" y="167.0"/>
      <point x="444.5" y="232.0" type="curve" smooth="yes"/>
      <point x="444.5" y="309.0"/>
      <point x="469.0" y="408.0"/>
      <point x="519.0" y="408.0" type="curve" smooth="yes"/>
      <point x="530.5" y="408.0"/>
      <point x="539.0" y="401.5"/>
      <point x="539.0" y="385.0" type="curve" smooth="yes"/>
      <point x="539.0" y="350.0"/>
      <point x="515.5" y="309.0"/>
      <point x="467.5" y="294.0" type="curve" smooth="yes"/>
      <point x="449.0" y="288.0"/>
      <point x="431.0" y="285.5"/>
      <point x="409.5" y="287.5" type="curve"/>
      <point x="390.0" y="185.0" type="line"/>
      <point x="431.0" y="181.5"/>
      <point x="473.0" y="186.0"/>
      <point x="516.5" y="196.5" type="curve" smooth="yes"/>
      <point x="638.5" y="226.0"/>
      <point x="714.5" y="315.5"/>
      <point x="714.5" y="432.0" type="curve" smooth="yes"/>
      <point x="714.5" y="510.0"/>
      <point x="670.5" y="560.0"/>
      <point x="587.5" y="560.0" type="curve" smooth="yes"/>
      <point x="547.0" y="560.0"/>
      <point x="514.0" y="547.5"/>
      <point x="484.0" y="529.0" type="curve"/>
      <point x="489.0" y="558.0" type="line"/>
      <point x="324.5" y="558.0" type="line"/>
      <point x="320.5" y="533.5" type="line"/>
      <point x="300.0" y="551.0"/>
      <point x="272.5" y="560.0"/>
      <point x="239.5" y="560.0" type="curve" smooth="yes"/>
      <point x="98.5" y="560.0"/>
      <point x="9.0" y="396.0"/>
      <point x="9.0" y="166.0" type="curve" smooth="yes"/>
      <point x="9.0" y="54.0"/>
      <point x="59.0" y="-10.0"/>
    </contour>
    <contour>
      <point x="229.0" y="140.5" type="curve" smooth="yes"/>
      <point x="214.0" y="140.5"/>
      <point x="199.5" y="149.5"/>
      <point x="199.5" y="195.5" type="curve" smooth="yes"/>
      <point x="199.5" y="298.5"/>
      <point x="237.0" y="402.0"/>
      <point x="273.0" y="402.0" type="curve" smooth="yes"/>
      <point x="282.0" y="402.0"/>
      <point x="290.0" y="400.5"/>
      <point x="296.5" y="397.5" type="curve"/>
      <point x="259.0" y="148.0" type="line"/>
      <point x="248.5" y="143.0"/>
      <point x="239.0" y="140.5"/>
    </contour>
  </outline>
</glyph>
<glyph name="eth" format="2">
  <advance width="483.5"/>
  <unicode hex="00F0"/>
  <outline>
    <contour>
      <point x="316.0" y="379.0" type="curve"/>
      <point x="344.5" y="510.0" type="line"/>
      <point x="316.0" y="523.0"/>
      <point x="276.5" y="530.5"/>
      <point x="243.5" y="530.5" type="curve" smooth="yes"/>
      <point x="82.5" y="530.5"/>
      <point x="3.5" y="368.0"/>
      <point x="3.5" y="198.0" type="curve" smooth="yes"/>
      <point x="3.5" y="52.0"/>
      <point x="87.5" y="-9.5"/>
      <point x="203.0" y="-9.5" type="curve" smooth="yes"/>
      <point x="364.0" y="-9.5"/>
      <point x="436.0" y="76.0"/>
      <point x="477.5" y="332.0" type="curve" smooth="yes"/>
      <point x="485.0" y="378.0"/>
      <point x="488.5" y="421.0"/>
      <point x="488.5" y="459.0" type="curve" smooth="yes"/>
      <point x="488.5" y="656.0"/>
      <point x="385.0" y="756.0"/>
      <point x="197.5" y="756.0" type="curve" smooth="yes"/>
      <point x="142.0" y="756.0"/>
      <point x="100.0" y="745.5"/>
      <point x="65.5" y="736.0" type="curve"/>
      <point x="67.5" y="615.0" type="line"/>
      <point x="91.0" y="619.0"/>
      <point x="113.5" y="625.5"/>
      <point x="153.0" y="625.5" type="curve" smooth="yes"/>
      <point x="264.5" y="625.5"/>
      <point x="303.5" y="590.0"/>
      <point x="303.5" y="501.0" type="curve" smooth="yes"/>
      <point x="303.5" y="468.0"/>
      <point x="299.5" y="426.0"/>
      <point x="291.0" y="373.0" type="curve" smooth="yes"/>
      <point x="257.5" y="158.5"/>
      <point x="240.5" y="129.0"/>
      <point x="213.0" y="129.0" type="curve" smooth="yes"/>
      <point x="194.0" y="129.0"/>
      <point x="188.0" y="144.0"/>
      <point x="188.0" y="171.0" type="curve" smooth="yes"/>
      <point x="188.0" y="246.0"/>
      <point x="221.5" y="390.5"/>
      <point x="273.5" y="390.5" type="curve" smooth="yes"/>
      <point x="287.5" y="390.5"/>
      <point x="302.0" y="384.5"/>
    </contour>
    <contour>
      <point x="193.0" y="549.0" type="line"/>
      <point x="341.5" y="631.0" type="line"/>
      <point x="339.0" y="635.0" type="line"/>
      <point x="547.0" y="752.5" type="line"/>
      <point x="403.5" y="753.5" type="line"/>
      <point x="285.5" y="688.0" type="line"/>
      <point x="285.5" y="682.0" type="line"/>
      <point x="49.5" y="549.5" type="line"/>
    </contour>
  </outline>
</glyph>
<glyph name="divide" format="2">
  <advance width="458.20000000000005"/>
  <unicode hex="00F7"/>
  <outline>
    <contour>
      <point x="113.4" y="95.0" type="curve" smooth="yes"/>
      <point x="113.4" y="52.4"/>
      <point x="137.4" y="29.999999999999996"/>
      <point x="190.39999999999998" y="29.999999999999996" type="curve" smooth="yes"/>
      <point x="253.4" y="29.999999999999996"/>
      <point x="293.8" y="66.8"/>
      <point x="293.8" y="142.8" type="curve" smooth="yes"/>
      <point x="293.8" y="185.4"/>
      <point x="270.0" y="206.8"/>
      <point x="218.6" y="206.8" type="curve" smooth="yes"/>
      <point x="150.60000000000002" y="206.8"/>
      <point x="113.4" y="157.0"/>
    </contour>
    <contour>
      <point x="180.8" y="513.0" type="curve" smooth="yes"/>
      <point x="180.8" y="470.6"/>
      <point x="203.6" y="449.0"/>
      <point x="256.8" y="449.0" type="curve" smooth="yes"/>
      <point x="320.0" y="449.0"/>
      <point x="360.8" y="486.2"/>
      <point x="360.8" y="561.2" type="curve" smooth="yes"/>
      <point x="360.8" y="604.6"/>
      <point x="336.40000000000003" y="625.8000000000001"/>
      <point x="284.8" y="625.8000000000001" type="curve" smooth="yes"/>
      <point x="214.0" y="625.8000000000001"/>
      <point x="180.8" y="572.0"/>
    </contour>
    <contour>
      <point x="41.4" y="244.0" type="line"/>
      <point x="407.0" y="244.0" type="line"/>
      <point x="434.0" y="413.0" type="line"/>
      <point x="68.4" y="413.0" type="line"/>
    </contour>
  </outline>
</glyph>
<glyph name="oslash" format="2">
  <advance width="481.0"/>
  <unicode hex="00F8"/>
  <anchor x="271.0" y="550.0" name="top"/>
  <outline>
    <contour>
      <point x="425.0" y="561.0" type="line"/>
      <point x="347.0" y="463.5" type="line"/>
      <point x="342.0" y="466.0" type="line"/>
      <point x="116.0" y="172.5" type="line"/>
      <point x="112.5" y="175.5" type="line"/>
      <point x="-36.5" y="-10.0" type="line"/>
      <point x="51.5" y="-10.0" type="line"/>
      <point x="129.5" y="87.0" type="line"/>
      <point x="134.5" y="84.5" type="line"/>
      <point x="372.0" y="390.5" type="line"/>
      <point x="375.5" y="387.5" type="line"/>
      <point x="514.5" y="561.0" type="line"/>
    </contour>
    <contour>
      <point x="218.5" y="-10.0" type="curve" smooth="yes"/>
      <point x="397.5" y="-10.0"/>
      <point x="466.0" y="151.5"/>
      <point x="466.0" y="357.5" type="curve" smooth="yes"/>
      <point x="466.0" y="490.5"/>
      <point x="400.0" y="561.0"/>
      <point x="264.0" y="561.0" type="curve" smooth="yes"/>
      <point x="81.0" y="561.0"/>
      <point x="12.0" y="400.0"/>
      <point x="12.0" y="193.5" type="curve" smooth="yes"/>
      <point x="12.0" y="60.5"/>
      <point x="78.0" y="-10.0"/>
    </contour>
    <contour>
      <point x="223.5" y="144.5" type="curve" smooth="yes"/>
      <point x="201.5" y="144.0"/>
      <point x="188.0" y="157.5"/>
      <point x="187.0" y="181.0" type="curve" smooth="yes"/>
      <point x="183.5" y="256.0"/>
      <point x="212.5" y="405.5"/>
      <point x="254.5" y="406.5" type="curve" smooth="yes"/>
      <point x="276.0" y="407.0"/>
      <point x="290.0" y="393.5"/>
      <point x="291.0" y="370.0" type="curve" smooth="yes"/>
      <point x="294.5" y="295.0"/>
      <point x="265.5" y="145.0"/>
    </contour>
  </outline>
</glyph>
<glyph name="thorn" format="2">
  <advance width="489.5"/>
  <unicode hex="00FE"/>
  <outline>
    <contour>
      <point x="-49.00000000000001" y="-210.0" type="line"/>
      <point x="136.49999999999997" y="-210.0" type="line"/>
      <point x="169.5" y="-2.0" type="line"/>
      <point x="184.5" y="-5.0"/>
      <point x="206.5" y="-8.5"/>
      <point x="235.5" y="-8.5" type="curve" smooth="yes"/>
      <point x="404.0" y="-8.5"/>
      <point x="480.99999999999994" y="169.0"/>
      <point x="480.99999999999994" y="370.50000000000006" type="curve" smooth="yes"/>
      <point x="480.99999999999994" y="500.0"/>
      <point x="446.0" y="560.0"/>
      <point x="364.0" y="560.0" type="curve" smooth="yes"/>
      <point x="308.5" y="560.0"/>
      <point x="276.0" y="536.5"/>
      <point x="251.5" y="514.5" type="curve"/>
      <point x="286.5" y="740.0" type="line"/>
      <point x="101.00000000000001" y="740.0" type="line"/>
    </contour>
    <contour>
      <point x="217.5" y="147.99999999999997" type="curve" smooth="yes"/>
      <point x="210.0" y="147.99999999999997"/>
      <point x="202.0" y="149.0"/>
      <point x="194.5" y="151.5" type="curve"/>
      <point x="230.5" y="377.0" type="line"/>
      <point x="238.5" y="380.50000000000006"/>
      <point x="250.50000000000003" y="384.0"/>
      <point x="262.5" y="384.0" type="curve" smooth="yes"/>
      <point x="282.0" y="384.0"/>
      <point x="290.5" y="374.0"/>
      <point x="290.5" y="336.5" type="curve" smooth="yes"/>
      <point x="290.5" y="253.0"/>
      <point x="265.0" y="147.99999999999997"/>
    </contour>
  </outline>
</glyph>
<glyph name="Dcroat" format="2">
  <advance width="556.8"/>
  <unicode hex="0110"/>
  <outline>
    <contour>
      <point x="7.199999999999999" y="267.0" type="line"/>
      <point x="289.6" y="267.0" type="line"/>
      <point x="317.8" y="434.4" type="line"/>
      <point x="34.8" y="434.4" type="line"/>
    </contour>
    <component base="D" xOffset="11.6"/>
  </outline>
</glyph>
<glyph name="dcroat" format="2">
  <advance width="504.59999999999997"/>
  <unicode hex="0111"/>
  <outline>
    <contour>
      <point x="226.0" y="609.6" type="line"/>
      <point x="551.6" y="609.6" type="line"/>
      <point x="566.8" y="707.6" type="line"/>
      <point x="241.99999999999997" y="707.6" type="line"/>
    </contour>
    <component base="d"/>
  </outline>
</glyph>
<glyph name="Hbar" format="2">
  <advance width="548.0"/>
  <unicode hex="0126"/>
  <outline>
    <contour>
      <point x="36.0" y="499.0" type="line"/>
      <point x="583.8" y="499.0" type="line"/>
      <point x="608.4000000000001" y="650.8000000000001" type="line"/>
      <point x="60.6" y="650.8000000000001" type="line"/>
    </contour>
    <component base="H" xOffset="4.2"/>
  </outline>
</glyph>
<glyph name="hbar" format="2">
  <advance width="491.2"/>
  <unicode hex="0127"/>
  <outline>
    <contour>
      <point x="49.0" y="609.6" type="line"/>
      <point x="350.4" y="609.6" type="line"/>
      <point x="365.59999999999997" y="707.6" type="line"/>
      <point x="64.2" y="707.6" type="line"/>
    </contour>
    <component base="h" xOffset="5.199999999999999"/>
  </outline>
</glyph>
<glyph name="Idotaccent" format="2">
  <advance width="254.4"/>
  <unicode hex="0130"/>
  <outline>
    <contour>
      <point x="233.79999999999998" y="940.0" type="curve" smooth="yes"/>
      <point x="144.4" y="940.0"/>
      <point x="107.19999999999999" y="873.4"/>
      <point x="107.2" y="801.0" type="curve" smooth="yes"/>
      <point x="107.2" y="747.0"/>
      <point x="137.0" y="719.2"/>
      <point x="197.6" y="719.2" type="curve" smooth="yes"/>
      <point x="282.2" y="719.2"/>
      <point x="324.0" y="784.6"/>
      <point x="324.0" y="859.2" type="curve" smooth="yes"/>
      <point x="324.0" y="913.0"/>
      <point x="293.4" y="940.0"/>
    </contour>
    <component base="I"/>
  </outline>
</glyph>
<glyph name="dotlessi" format="2">
  <advance width="241.20000000000002"/>
  <unicode hex="0131"/>
  <anchor x="77.0888" y="0.0" name="bottom"/>
  <anchor x="170.4" y="0.0" name="ogonek"/>
  <anchor x="164.1112" y="550.0" name="top"/>
  <outline>
    <contour>
      <point x="170.4" y="0.0" type="line"/>
      <point x="257.2" y="550.0" type="line"/>
      <point x="71.0" y="550.0" type="line"/>
      <point x="-16.2" y="0.2" type="line"/>
    </contour>
  </outline>
</glyph>
<glyph name="Ldot" format="2">
  <advance width="436.0"/>
  <unicode hex="013F"/>
  <outline>
    <contour>
      <point x="286.9984" y="383.3696" type="curve" smooth="yes"/>
      <point x="286.9984" y="343.4416"/>
      <point x="307.3296" y="323.1112"/>
      <point x="352.724" y="323.1112" type="curve" smooth="yes"/>
      <point x="418.2488" y="323.1112"/>
      <point x="444.8464" y="381.9672"/>
      <point x="444.8464" y="434.6272" type="curve" smooth="yes"/>
      <point x="444.8464" y="473.8888"/>
      <point x="424.5152" y="494.2192"/>
      <point x="379.8536" y="494.2192" type="curve" smooth="yes"/>
      <point x="315.0624" y="494.2192"/>
      <point x="286.9984" y="435.22959999999995"/>
    </contour>
    <component base="L"/>
  </outline>
</glyph>
<glyph name="ldot" format="2">
  <advance width="365.40000000000003"/>
  <unicode hex="0140"/>
  <outline>
    <contour>
      <point x="256.637" y="362.45200000000006" type="curve" smooth="yes"/>
      <point x="256.637" y="326.83840000000004"/>
      <point x="273.02979999999997" y="308.9484"/>
      <point x="310.0382" y="308.9484" type="curve" smooth="yes"/>
      <point x="365.9176" y="308.9484"/>
      <point x="386.33" y="364.4762"/>
      <point x="386.33" y="410.8548" type="curve" smooth="yes"/>
      <point x="386.33" y="445.6874"/>
      <point x="369.93719999999996" y="463.5774"/>
      <point x="333.565" y="463.5774" type="curve" smooth="yes"/>
      <point x="278.32079999999996" y="463.5774"/>
      <point x="256.637" y="408.2892"/>
    </contour>
    <component base="l"/>
  </outline>
</glyph>
<glyph name="Lslash" format="2">
  <advance width="453.8"/>
  <unicode hex="0141"/>
  <outline>
    <contour>
      <point x="5.800000000000001" y="0.0" type="line"/>
      <point x="394.6" y="0.0" type="line"/>
      <point x="422.6" y="171.4" type="line"/>
      <point x="222.20000000000002" y="171.4" type="line"/>
      <point x="246.4" y="325.40000000000003" type="line"/>
      <point x="368.0" y="380.40000000000003" type="line"/>
      <point x="398.59999999999997" y="562.0" type="line"/>
      <point x="275.40000000000003" y="506.2" type="line"/>
      <point x="307.2" y="700.0" type="line"/>
      <point x="118.4" y="700.0" type="line"/>
      <point x="71.6" y="412.79999999999995" type="line"/>
      <point x="22.0" y="389.4" type="line"/>
      <point x="-5.800000000000001" y="208.8" type="line"/>
      <point x="42.599999999999994" y="232.0" type="line"/>
    </contour>
  </outline>
</glyph>
<glyph name="lslash" format="2">
  <advance width="296.2"/>
  <unicode hex="0142"/>
  <outline>
    <contour>
      <point x="-6.0" y="215.0" type="line"/>
      <point x="300.8" y="392.2" type="line"/>
      <point x="326.0" y="549.4" type="line"/>
      <point x="18.2" y="372.2" type="line"/>
    </contour>
    <component base="l" xOffset="16.0"/>
  </outline>
</glyph>
<glyph name="Eng" format="2">
  <advance width="539.5"/>
  <unicode hex="014A"/>
  <outline>
    <contour>
      <point x="-12.0" y="0.0" type="line"/>
      <point x="156.0" y="0.0" type="line"/>
      <point x="207.5" y="309.5" type="line"/>
      <point x="280.0" y="-5.5" type="line"/>
      <point x="277.0" y="-27.5"/>
      <point x="264.5" y="-34.0"/>
      <point x="249.0" y="-34.0" type="curve" smooth="yes"/>
      <point x="238.5" y="-34.0"/>
      <point x="230.5" y="-33.0"/>
      <point x="223.0" y="-30.0" type="curve"/>
      <point x="192.5" y="-213.5" type="line"/>
      <point x="212.0" y="-219.0"/>
      <point x="238.5" y="-219.0"/>
      <point x="255.5" y="-219.0" type="curve" smooth="yes"/>
      <point x="362.0" y="-214.5"/>
      <point x="438.0" y="-158.0"/>
      <point x="460.5" y="-14.5" type="curve" smooth="yes"/>
      <point x="574.5" y="700.0" type="line"/>
      <point x="405.5" y="700.0" type="line"/>
      <point x="349.0" y="361.5" type="line"/>
      <point x="281.5" y="700.0" type="line"/>
      <point x="100.0" y="700.0" type="line"/>
    </contour>
  </outline>
</glyph>
<glyph name="eng" format="2">
  <advance width="480.2"/>
  <unicode hex="014B"/>
  <outline>
    <contour>
      <point x="410.2" y="30.200000000000003" type="curve" smooth="yes"/>
      <point x="412.0" y="42.599999999999994"/>
      <point x="480.79999999999995" y="433.4"/>
      <point x="480.79999999999995" y="457.59999999999997" type="curve" smooth="yes"/>
      <point x="480.79999999999995" y="521.2"/>
      <point x="442.59999999999997" y="560.0"/>
      <point x="372.2" y="560.0" type="curve" smooth="yes"/>
      <point x="328.0" y="560.0"/>
      <point x="286.6" y="548.0"/>
      <point x="231.2" y="508.40000000000003" type="curve"/>
      <point x="237.20000000000002" y="550.0" type="line"/>
      <point x="70.80000000000001" y="550.0" type="line"/>
      <point x="-16.2" y="0.0" type="line"/>
      <point x="169.0" y="0.0" type="line"/>
      <point x="230.6" y="378.0" type="line"/>
      <point x="243.2" y="384.6"/>
      <point x="253.4" y="388.0"/>
      <point x="263.8" y="388.0" type="curve" smooth="yes"/>
      <point x="277.0" y="388.0"/>
      <point x="284.8" y="381.59999999999997"/>
      <point x="283.2" y="367.59999999999997" type="curve" smooth="yes"/>
      <point x="280.8" y="350.0"/>
      <point x="276.8" y="326.0"/>
      <point x="228.0" y="26.8" type="curve" smooth="yes"/>
      <point x="223.20000000000002" y="-2.8"/>
      <point x="211.79999999999998" y="-21.799999999999997"/>
      <point x="193.20000000000002" y="-21.799999999999997" type="curve" smooth="yes"/>
      <point x="191.40000000000003" y="-21.799999999999997"/>
      <point x="187.20000000000002" y="-21.8"/>
      <point x="183.8" y="-20.2" type="curve"/>
      <point x="143.2" y="-213.39999999999998" type="line"/>
      <point x="160.79999999999998" y="-217.0"/>
      <point x="186.4" y="-220.0"/>
      <point x="215.8" y="-220.0" type="curve" smooth="yes"/>
      <point x="304.0" y="-220.0"/>
      <point x="384.0" y="-165.8"/>
    </contour>
  </outline>
</glyph>
<glyph name="OE" format="2">
  <advance width="746.5"/>
  <unicode hex="0152"/>
  <outline>
    <contour>
      <point x="686.0" y="0.0" type="line"/>
      <point x="713.0" y="167.5" type="line"/>
      <point x="490.5" y="167.5" type="line"/>
      <point x="507.0" y="271.5" type="line"/>
      <point x="693.4999999999999" y="271.5" type="line"/>
      <point x="718.5" y="426.0" type="line"/>
      <point x="531.9999999999999" y="426.0" type="line"/>
      <point x="548.0" y="528.5" type="line"/>
      <point x="758.0" y="528.5" type="line"/>
      <point x="786.0" y="700.0" type="line"/>
      <point x="575.0" y="700.0" type="line"/>
      <point x="512.9999999999999" y="705.0"/>
      <point x="436.5" y="710.0"/>
      <point x="364.0" y="710.0" type="curve" smooth="yes"/>
      <point x="122.5" y="710.0"/>
      <point x="19.0" y="416.50000000000006"/>
      <point x="19.0" y="222.99999999999997" type="curve" smooth="yes"/>
      <point x="19.0" y="75.0"/>
      <point x="83.0" y="-10.0"/>
      <point x="258.49999999999994" y="-10.0" type="curve" smooth="yes"/>
      <point x="317.0" y="-10.0"/>
      <point x="374.49999999999994" y="-6.999999999999999"/>
      <point x="452.0" y="0.0" type="curve"/>
    </contour>
    <contour>
      <point x="302.0" y="159.0" type="line"/>
      <point x="291.00000000000006" y="157.0"/>
      <point x="275.5" y="155.99999999999997"/>
      <point x="257.0" y="155.99999999999997" type="curve" smooth="yes"/>
      <point x="227.0" y="155.99999999999997"/>
      <point x="206.5" y="190.0"/>
      <point x="206.5" y="234.50000000000003" type="curve" smooth="yes"/>
      <point x="206.5" y="336.0"/>
      <point x="259.0" y="538.5"/>
      <point x="325.0" y="538.5" type="curve" smooth="yes"/>
      <point x="341.5" y="538.5"/>
      <point x="352.5" y="537.0"/>
      <point x="363.0" y="536.5" type="curve"/>
    </contour>
  </outline>
</glyph>
<glyph name="oe" format="2">
  <advance width="722.5"/>
  <unicode hex="0153"/>
  <outline>
    <contour>
      <point x="216.5" y="-10.0" type="curve" smooth="yes"/>
      <point x="274.5" y="-10.0"/>
      <point x="317.5" y="6.5"/>
      <point x="354.5" y="38.5" type="curve"/>
      <point x="388.5" y="6.0"/>
      <point x="435.0" y="-10.0"/>
      <point x="493.0" y="-10.0" type="curve" smooth="yes"/>
      <point x="552.0" y="-10.0"/>
      <point x="617.0" y="2.0"/>
      <point x="673.0" y="26.5" type="curve"/>
      <point x="646.5" y="185.5" type="line"/>
      <point x="597.0" y="166.5"/>
      <point x="551.5" y="159.0"/>
      <point x="524.0" y="159.0" type="curve" smooth="yes"/>
      <point x="477.5" y="159.0"/>
      <point x="456.5" y="170.0"/>
      <point x="456.5" y="235.0" type="curve" smooth="yes"/>
      <point x="456.5" y="341.5"/>
      <point x="491.5" y="405.0"/>
      <point x="528.0" y="405.0" type="curve" smooth="yes"/>
      <point x="539.0" y="405.0"/>
      <point x="548.5" y="400.5"/>
      <point x="548.5" y="382.5" type="curve" smooth="yes"/>
      <point x="548.5" y="350.0"/>
      <point x="524.0" y="308.0"/>
      <point x="480.0" y="294.0" type="curve" smooth="yes"/>
      <point x="462.0" y="288.0"/>
      <point x="443.0" y="284.5"/>
      <point x="422.0" y="286.5" type="curve"/>
      <point x="401.5" y="183.0" type="line"/>
      <point x="442.5" y="180.0"/>
      <point x="484.0" y="184.5"/>
      <point x="528.0" y="195.0" type="curve" smooth="yes"/>
      <point x="650.0" y="224.0"/>
      <point x="726.0" y="307.0"/>
      <point x="726.0" y="415.0" type="curve" smooth="yes"/>
      <point x="726.0" y="501.0"/>
      <point x="667.5" y="560.0"/>
      <point x="554.0" y="560.0" type="curve" smooth="yes"/>
      <point x="495.5" y="560.0"/>
      <point x="445.5" y="543.5"/>
      <point x="406.5" y="509.0" type="curve"/>
      <point x="373.0" y="545.0"/>
      <point x="326.5" y="561.0"/>
      <point x="265.5" y="561.0" type="curve" smooth="yes"/>
      <point x="82.5" y="561.0"/>
      <point x="13.5" y="400.0"/>
      <point x="13.5" y="193.5" type="curve" smooth="yes"/>
      <point x="13.5" y="60.5"/>
      <point x="81.0" y="-10.0"/>
    </contour>
    <contour>
      <point x="224.5" y="149.5" type="curve" smooth="yes"/>
      <point x="210.0" y="149.0"/>
      <point x="198.0" y="155.5"/>
      <point x="197.0" y="176.0" type="curve" smooth="yes"/>
      <point x="195.0" y="234.5"/>
      <point x="217.0" y="400.5"/>
      <point x="256.5" y="401.5" type="curve" smooth="yes"/>
      <point x="270.5" y="402.0"/>
      <point x="282.5" y="395.5"/>
      <point x="283.5" y="376.0" type="curve" smooth="yes"/>
      <point x="285.5" y="310.5"/>
      <point x="263.5" y="150.5"/>
    </contour>
  </outline>
</glyph>
<glyph name="uni0162" format="2">
  <advance width="484.8"/>
  <unicode hex="0162"/>
  <anchor x="198.7912" y="0.0" name="_bottom"/>
  <anchor x="130.0" y="-220.0" name="bottom"/>
  <outline>
    <contour>
      <point x="59.400000000000006" y="-208.8" type="line"/>
      <point x="81.80000000000001" y="-216.0"/>
      <point x="102.80000000000001" y="-220.0"/>
      <point x="130.0" y="-220.0" type="curve" smooth="yes"/>
      <point x="216.20000000000002" y="-220.0"/>
      <point x="281.0" y="-161.6"/>
      <point x="281.0" y="-65.4" type="curve" smooth="yes"/>
      <point x="281.0" y="-38.2"/>
      <point x="277.8" y="-12.6"/>
      <point x="269.4" y="8.4" type="curve"/>
      <point x="148.0" y="7.6" type="line"/>
      <point x="154.4" y="-7.800000000000001"/>
      <point x="157.60000000000002" y="-18.400000000000002"/>
      <point x="157.60000000000002" y="-39.4" type="curve" smooth="yes"/>
      <point x="157.60000000000002" y="-76.0"/>
      <point x="134.8" y="-88.39999999999999"/>
      <point x="107.0" y="-88.39999999999999" type="curve" smooth="yes"/>
      <point x="97.60000000000001" y="-88.39999999999999"/>
      <point x="90.0" y="-87.39999999999999"/>
      <point x="81.4" y="-84.8" type="curve"/>
    </contour>
    <component base="T"/>
  </outline>
</glyph>
<glyph name="Tbar" format="2">
  <advance width="488.79999999999995"/>
  <unicode hex="0166"/>
  <outline>
    <contour>
      <point x="517.6" y="536.4" type="line"/>
      <point x="545.4" y="700.0" type="line"/>
      <point x="79.6" y="700.0" type="line"/>
      <point x="51.6" y="536.4" type="line"/>
      <point x="191.20000000000002" y="536.4" type="line"/>
      <point x="168.79999999999998" y="399.0" type="line"/>
      <point x="88.8" y="399.0" type="line"/>
      <point x="59.6" y="230.60000000000002" type="line"/>
      <point x="142.20000000000002" y="230.60000000000002" type="line"/>
      <point x="105.4" y="0.0" type="line"/>
      <point x="293.4" y="0.0" type="line"/>
      <point x="330.2" y="230.60000000000002" type="line"/>
      <point x="411.8" y="230.60000000000002" type="line"/>
      <point x="441.0" y="399.0" type="line"/>
      <point x="356.79999999999995" y="399.0" type="line"/>
      <point x="379.0" y="536.4" type="line"/>
    </contour>
  </outline>
</glyph>
<glyph name="tbar" format="2">
  <advance width="321.20000000000005"/>
  <unicode hex="0167"/>
  <outline>
    <contour>
      <point x="-2.5999999999999996" y="242.60000000000002" type="line"/>
      <point x="296.8" y="242.60000000000002" type="line"/>
      <point x="318.4" y="366.6" type="line"/>
      <point x="18.0" y="366.6" type="line"/>
    </contour>
    <contour>
      <point x="286.40000000000003" y="170.0" type="line"/>
      <point x="268.6" y="166.4"/>
      <point x="258.4" y="164.2"/>
      <point x="248.79999999999998" y="164.2" type="curve" smooth="yes"/>
      <point x="227.2" y="164.2"/>
      <point x="220.0" y="176.6"/>
      <point x="220.0" y="194.39999999999998" type="curve" smooth="yes"/>
      <point x="220.0" y="201.0"/>
      <point x="220.8" y="208.4"/>
      <point x="221.79999999999998" y="216.8" type="curve" smooth="yes"/>
      <point x="252.8" y="402.2" type="line"/>
      <point x="325.8" y="402.2" type="line"/>
      <point x="351.4" y="550.0" type="line"/>
      <point x="277.8" y="550.0" type="line"/>
      <point x="294.4" y="656.2" type="line"/>
      <point x="132.20000000000002" y="656.2" type="line"/>
      <point x="93.2" y="550.0" type="line"/>
      <point x="44.4" y="541.2" type="line"/>
      <point x="20.2" y="403.0" type="line"/>
      <point x="67.0" y="403.0" type="line"/>
      <point x="33.800000000000004" y="198.20000000000002" type="line" smooth="yes"/>
      <point x="28.800000000000004" y="167.39999999999998"/>
      <point x="24.4" y="127.0"/>
      <point x="24.4" y="103.8" type="curve" smooth="yes"/>
      <point x="24.4" y="11.2"/>
      <point x="84.6" y="-10.0"/>
      <point x="141.8" y="-10.0" type="curve" smooth="yes"/>
      <point x="190.20000000000002" y="-10.0"/>
      <point x="230.8" y="-1.0"/>
      <point x="269.0" y="16.4" type="curve"/>
    </contour>
  </outline>
</glyph>
<glyph name="uogonek" format="2">
  <advance width="485.20000000000005"/>
  <unicode hex="0173"/>
  <outline>
    <contour>
      <point x="361.4" y="-202.8" type="curve" smooth="yes"/>
      <point x="385.2" y="-202.8"/>
      <point x="408.20000000000005" y="-197.20000000000002"/>
      <point x="430.6" y="-189.20000000000002" type="curve"/>
      <point x="445.59999999999997" y="-53.8" type="line"/>
      <point x="444.0" y="-54.0"/>
      <point x="437.0" y="-55.8"/>
      <point x="429.20000000000005" y="-55.8" type="curve" smooth="yes"/>
      <point x="415.8" y="-55.8"/>
      <point x="409.0" y="-48.400000000000006"/>
      <point x="409.0" y="-37.199999999999996" type="curve" smooth="yes"/>
      <point x="409.0" y="-16.0"/>
      <point x="423.4" y="6.800000000000001"/>
      <point x="443.0" y="19.4" type="curve"/>
      <point x="460.20000000000005" y="164.6" type="line"/>
      <point x="455.2" y="163.0"/>
      <point x="450.8" y="163.0"/>
      <point x="448.59999999999997" y="163.0" type="curve" smooth="yes"/>
      <point x="441.0" y="163.0"/>
      <point x="436.6" y="168.20000000000002"/>
      <point x="436.6" y="180.4" type="curve" smooth="yes"/>
      <point x="436.6" y="185.20000000000002"/>
      <point x="437.59999999999997" y="193.2"/>
      <point x="495.6" y="550.0" type="curve"/>
      <point x="311.40000000000003" y="550.0" type="line"/>
      <point x="249.8" y="170.8" type="line"/>
      <point x="239.8" y="164.4"/>
      <point x="228.0" y="160.20000000000002"/>
      <point x="216.20000000000002" y="160.20000000000002" type="curve" smooth="yes"/>
      <point x="202.6" y="160.20000000000002"/>
      <point x="195.2" y="168.2"/>
      <point x="196.79999999999998" y="183.8" type="curve" smooth="yes"/>
      <point x="211.2" y="282.2"/>
      <point x="230.8" y="401.59999999999997"/>
      <point x="255.20000000000002" y="550.0" type="curve"/>
      <point x="70.2" y="550.0" type="line"/>
      <point x="22.2" y="254.79999999999998"/>
      <point x="1.1999999999999993" y="153.39999999999998"/>
      <point x="1.1999999999999993" y="97.8" type="curve" smooth="yes"/>
      <point x="1.1999999999999993" y="34.8"/>
      <point x="40.60000000000001" y="-10.0"/>
      <point x="118.4" y="-10.0" type="curve" smooth="yes"/>
      <point x="165.20000000000002" y="-10.0"/>
      <point x="205.0" y="9.2"/>
      <point x="249.2" y="50.4" type="curve"/>
      <point x="262.0" y="18.0"/>
      <point x="298.59999999999997" y="-9.6"/>
      <point x="346.6" y="-9.6" type="curve" smooth="yes"/>
      <point x="369.6" y="-9.6"/>
      <point x="387.8" y="21.4"/>
      <point x="356.0" y="41.4" type="curve"/>
      <point x="296.0" y="5.2"/>
      <point x="250.0" y="-45.0"/>
      <point x="250.0" y="-105.60000000000001" type="curve" smooth="yes"/>
      <point x="250.0" y="-166.20000000000002"/>
      <point x="291.8" y="-202.8"/>
    </contour>
  </outline>
</glyph>
<glyph name="longs" format="2">
  <advance width="309.0"/>
  <unicode hex="017F"/>
  <outline>
    <contour>
      <point x="-2.599999999999998" y="-220.0" type="curve" smooth="yes"/>
      <point x="114.2" y="-220.0"/>
      <point x="176.0" y="-147.8"/>
      <point x="199.6" y="0.0" type="curve" smooth="yes"/>
      <point x="281.2" y="514.0" type="line" smooth="yes"/>
      <point x="289.0" y="565.4"/>
      <point x="304.6" y="575.0"/>
      <point x="332.6" y="575.0" type="curve" smooth="yes"/>
      <point x="349.0" y="575.0"/>
      <point x="370.8" y="570.8"/>
      <point x="386.8" y="565.0" type="curve"/>
      <point x="437.6" y="720.0" type="line"/>
      <point x="402.6" y="737.0"/>
      <point x="361.59999999999997" y="750.0"/>
      <point x="306.6" y="750.0" type="curve" smooth="yes"/>
      <point x="196.4" y="750.0"/>
      <point x="116.80000000000001" y="671.1999999999999"/>
      <point x="95.8" y="520.0" type="curve"/>
      <point x="45.0" y="510.40000000000003" type="line"/>
      <point x="20.599999999999998" y="364.2" type="line"/>
      <point x="70.8" y="364.2" type="line"/>
      <point x="18.4" y="29.6" type="line" smooth="yes"/>
      <point x="11.799999999999999" y="-10.8"/>
      <point x="-3.6" y="-24.6"/>
      <point x="-24.0" y="-24.6" type="curve" smooth="yes"/>
      <point x="-32.0" y="-24.6"/>
      <point x="-40.4" y="-24.2"/>
      <point x="-53.6" y="-19.6" type="curve"/>
      <point x="-105.60000000000001" y="-200.20000000000002" type="line"/>
      <point x="-71.4" y="-213.60000000000002"/>
      <point x="-38.599999999999994" y="-220.0"/>
    </contour>
  </outline>
</glyph>
<glyph name="uni018F" format="2">
  <advance width="542.5"/>
  <unicode hex="018F"/>
  <outline>
    <contour>
      <point x="202.0" y="-10.0" type="curve" smooth="yes"/>
      <point x="413.0" y="-10.0"/>
      <point x="535.0" y="141.0"/>
      <point x="535.0" y="442.5" type="curve" smooth="yes"/>
      <point x="535.0" y="607.0"/>
      <point x="457.0" y="710.0"/>
      <point x="303.5" y="710.0" type="curve" smooth="yes"/>
      <point x="208.0" y="710.0"/>
      <point x="130.5" y="692.0"/>
      <point x="55.0" y="652.5" type="curve"/>
      <point x="90.0" y="490.5" type="line"/>
      <point x="145.0" y="522.0"/>
      <point x="206.0" y="534.0"/>
      <point x="261.0" y="534.0" type="curve" smooth="yes"/>
      <point x="329.0" y="534.0"/>
      <point x="374.0" y="511.0"/>
      <point x="374.0" y="399.0" type="curve" smooth="yes"/>
      <point x="374.0" y="306.5"/>
      <point x="311.5" y="164.0"/>
      <point x="233.0" y="164.0" type="curve" smooth="yes"/>
      <point x="187.0" y="164.0"/>
      <point x="164.5" y="191.0"/>
      <point x="164.5" y="227.0" type="curve" smooth="yes"/>
      <point x="164.5" y="287.5"/>
      <point x="225.5" y="346.0"/>
      <point x="294.5" y="346.0" type="curve" smooth="yes"/>
      <point x="323.5" y="346.0"/>
      <point x="354.5" y="343.5"/>
      <point x="379.5" y="339.0" type="curve"/>
      <point x="387.0" y="459.5" type="line"/>
      <point x="359.5" y="463.0"/>
      <point x="327.0" y="466.0"/>
      <point x="300.0" y="466.0" type="curve" smooth="yes"/>
      <point x="114.5" y="466.0"/>
      <point x="6.5" y="376.5"/>
      <point x="6.5" y="190.5" type="curve" smooth="yes"/>
      <point x="6.5" y="74.5"/>
      <point x="76.5" y="-10.0"/>
    </contour>
  </outline>
</glyph>
<glyph name="florin" format="2">
  <advance width="546.0"/>
  <unicode hex="0192"/>
  <outline>
    <contour>
      <point x="340.2" y="254.0" type="line"/>
      <point x="428.8" y="254.0" type="line"/>
      <point x="453.6" y="409.79999999999995" type="line"/>
      <point x="365.2" y="409.79999999999995" type="line"/>
      <point x="374.40000000000003" y="467.59999999999997" type="line" smooth="yes"/>
      <point x="381.2" y="505.4"/>
      <point x="393.0" y="521.2"/>
      <point x="422.59999999999997" y="521.2" type="curve" smooth="yes"/>
      <point x="445.4" y="521.2"/>
      <point x="462.4" y="517.2"/>
      <point x="486.79999999999995" y="508.59999999999997" type="curve"/>
      <point x="544.0" y="677.2" type="line"/>
      <point x="505.40000000000003" y="697.8000000000001"/>
      <point x="455.8" y="710.0"/>
      <point x="400.2" y="710.0" type="curve" smooth="yes"/>
      <point x="298.0" y="710.0"/>
      <point x="212.0" y="637.2"/>
      <point x="188.4" y="495.2" type="curve" smooth="yes"/>
      <point x="174.8" y="409.79999999999995" type="line"/>
      <point x="120.2" y="400.2" type="line"/>
      <point x="96.0" y="254.0" type="line"/>
      <point x="149.8" y="254.0" type="line"/>
      <point x="75.60000000000001" y="-210.0" type="line"/>
      <point x="266.2" y="-210.0" type="line"/>
    </contour>
  </outline>
</glyph>
<glyph name="uni0237" format="2">
  <advance width="248.0"/>
  <unicode hex="0237"/>
  <anchor x="-11.2" y="-212.0" name="bottom"/>
  <anchor x="170.4" y="550.0" name="top"/>
  <outline>
    <contour>
      <point x="265.2" y="550.0" type="line"/>
      <point x="78.0" y="550.0" type="line"/>
      <point x="-4.199999999999999" y="34.0" type="line" smooth="yes"/>
      <point x="-11.0" y="-7.799999999999999"/>
      <point x="-24.4" y="-26.2"/>
      <point x="-46.8" y="-26.2" type="curve" smooth="yes"/>
      <point x="-54.8" y="-26.2"/>
      <point x="-63.2" y="-26.0"/>
      <point x="-75.2" y="-21.6" type="curve"/>
      <point x="-124.60000000000001" y="-205.0" type="line"/>
      <point x="-90.2" y="-216.0"/>
      <point x="-51.2" y="-220.0"/>
      <point x="-27.200000000000003" y="-220.0" type="curve" smooth="yes"/>
      <point x="101.60000000000001" y="-220.0"/>
      <point x="153.79999999999998" y="-144.2"/>
      <point x="179.79999999999998" y="19.6" type="curve" smooth="yes"/>
    </contour>
  </outline>
</glyph>
<glyph name="uni0259" format="2">
  <advance width="474.0"/>
  <unicode hex="0259"/>
  <outline>
    <contour>
      <point x="335.0" y="263.0" type="curve"/>
      <point x="366.0" y="368.5" type="line"/>
      <point x="311.0" y="375.0"/>
      <point x="259.0" y="371.0"/>
      <point x="217.0" y="362.5" type="curve" smooth="yes"/>
      <point x="84.5" y="336.0"/>
      <point x="3.5" y="250.5"/>
      <point x="3.5" y="138.0" type="curve" smooth="yes"/>
      <point x="3.5" y="50.5"/>
      <point x="57.5" y="-10.0"/>
      <point x="166.5" y="-10.0" type="curve" smooth="yes"/>
      <point x="369.5" y="-10.0"/>
      <point x="456.0" y="161.5"/>
      <point x="456.0" y="337.0" type="curve" smooth="yes"/>
      <point x="456.0" y="471.0"/>
      <point x="394.0" y="560.0"/>
      <point x="251.5" y="560.0" type="curve" smooth="yes"/>
      <point x="180.5" y="560.0"/>
      <point x="111.5" y="544.5"/>
      <point x="49.5" y="513.5" type="curve"/>
      <point x="77.5" y="359.0" type="line"/>
      <point x="130.5" y="384.0"/>
      <point x="181.0" y="393.0"/>
      <point x="223.0" y="393.0" type="curve" smooth="yes"/>
      <point x="277.0" y="393.0"/>
      <point x="299.5" y="370.0"/>
      <point x="299.5" y="306.0" type="curve" smooth="yes"/>
      <point x="299.5" y="192.5"/>
      <point x="256.0" y="139.5"/>
      <point x="194.5" y="139.5" type="curve" smooth="yes"/>
      <point x="170.0" y="139.5"/>
      <point x="153.0" y="150.5"/>
      <point x="153.0" y="174.0" type="curve" smooth="yes"/>
      <point x="153.0" y="213.0"/>
      <point x="185.0" y="256.0"/>
      <point x="250.0" y="266.5" type="curve" smooth="yes"/>
      <point x="271.0" y="269.5"/>
      <point x="301.5" y="269.5"/>
    </contour>
  </outline>
</glyph>
<glyph name="gravecomb" format="2">
  <unicode hex="0300"/>
  <anchor x="-208.0" y="550.0" name="_top"/>
  <anchor x="-201.0" y="789.2" name="top"/>
  <outline>
    <contour>
      <point x="-252.6" y="595.2" type="line"/>
      <point x="-112.20000000000002" y="595.2" type="line"/>
      <point x="-141.20000000000002" y="789.2" type="line"/>
      <point x="-319.8" y="789.2" type="line"/>
    </contour>
  </outline>
</glyph>
<glyph name="acutecomb" format="2">
  <unicode hex="0301"/>
  <anchor x="-208.0" y="550.0" name="_top"/>
  <anchor x="-137.2" y="789.2" name="top"/>
  <outline>
    <contour>
      <point x="-286.2" y="595.2" type="line"/>
      <point x="-144.0" y="595.2" type="line"/>
      <point x="-20.0" y="789.2" type="line"/>
      <point x="-207.0" y="789.2" type="line"/>
    </contour>
  </outline>
</glyph>
<glyph name="uni0302" format="2">
  <unicode hex="0302"/>
  <anchor x="-208.0" y="550.0" name="_top"/>
  <anchor x="-171.0" y="782.8" name="top"/>
  <anchor x="33.6" y="653.0" name="top_viet"/>
  <outline>
    <contour>
      <point x="-370.6" y="595.2" type="line"/>
      <point x="-221.2" y="595.2" type="line"/>
      <point x="-184.6" y="698.6" type="line"/>
      <point x="-180.6" y="595.2" type="line"/>
      <point x="-31.200000000000003" y="595.2" type="line"/>
      <point x="-66.20000000000002" y="789.2" type="line"/>
      <point x="-269.79999999999995" y="789.2" type="line"/>
    </contour>
  </outline>
</glyph>
<glyph name="tildecomb" format="2">
  <unicode hex="0303"/>
  <anchor x="-208.0" y="550.0" name="_top"/>
  <anchor x="-173.20000000000002" y="772.8000000000001" name="top"/>
  <outline>
    <contour>
      <point x="-366.6" y="595.2" type="curve"/>
      <point x="-268.40000000000003" y="595.2" type="line"/>
      <point x="-268.40000000000003" y="595.1999999999999"/>
      <point x="-267.4" y="600.1999999999999"/>
      <point x="-267.4" y="600.1999999999999" type="curve" smooth="yes"/>
      <point x="-265.2" y="614.0"/>
      <point x="-255.6" y="630.6"/>
      <point x="-241.59999999999997" y="630.6" type="curve" smooth="yes"/>
      <point x="-211.20000000000002" y="630.6"/>
      <point x="-184.4" y="600.8000000000001"/>
      <point x="-138.60000000000002" y="600.8000000000001" type="curve" smooth="yes"/>
      <point x="-68.20000000000002" y="600.8000000000001"/>
      <point x="-27.199999999999996" y="638.8000000000001"/>
      <point x="-11.399999999999999" y="732.8000000000001" type="curve" smooth="yes"/>
      <point x="-9.400000000000002" y="747.8"/>
      <point x="-7.399999999999999" y="764.8000000000001"/>
      <point x="-5.799999999999999" y="782.8" type="curve"/>
      <point x="-104.2" y="782.8" type="line"/>
      <point x="-104.2" y="782.8"/>
      <point x="-105.2" y="777.8"/>
      <point x="-105.20000000000002" y="777.8" type="curve" smooth="yes"/>
      <point x="-107.4" y="764.0"/>
      <point x="-116.8" y="747.4"/>
      <point x="-130.8" y="747.4" type="curve" smooth="yes"/>
      <point x="-160.8" y="747.4"/>
      <point x="-189.2" y="777.1999999999999"/>
      <point x="-233.99999999999997" y="777.1999999999999" type="curve" smooth="yes"/>
      <point x="-304.4" y="777.1999999999999"/>
      <point x="-345.20000000000005" y="739.2"/>
      <point x="-361.0" y="645.1999999999999" type="curve" smooth="yes"/>
      <point x="-363.0" y="630.2"/>
      <point x="-365.0" y="613.2"/>
    </contour>
  </outline>
</glyph>
<glyph name="uni0304" format="2">
  <unicode hex="0304"/>
  <anchor x="-208.0" y="550.0" name="_top"/>
  <anchor x="-175.20000000000002" y="759.2" name="top"/>
  <outline>
    <contour>
      <point x="-334.59999999999997" y="601.2" type="line"/>
      <point x="-65.80000000000001" y="601.2" type="line"/>
      <point x="-44.4" y="743.2" type="line"/>
      <point x="-312.4" y="743.2" type="line"/>
    </contour>
  </outline>
</glyph>
<glyph name="uni0306" format="2">
  <unicode hex="0306"/>
  <anchor x="-208.0" y="550.0" name="_top"/>
  <anchor x="-175.2" y="764.0" name="top"/>
  <outline>
    <contour>
      <point x="-201.79999999999998" y="599.2" type="curve" smooth="yes"/>
      <point x="-78.6" y="599.2"/>
      <point x="-24.8" y="638.4"/>
      <point x="-11.400000000000002" y="777.2" type="curve"/>
      <point x="-112.0" y="777.1999999999999" type="line"/>
      <point x="-116.00000000000001" y="753.1999999999999"/>
      <point x="-121.79999999999998" y="729.1999999999999"/>
      <point x="-181.0" y="729.1999999999999" type="curve" smooth="yes"/>
      <point x="-218.40000000000003" y="729.1999999999999"/>
      <point x="-239.59999999999997" y="742.2"/>
      <point x="-239.60000000000002" y="761.6" type="curve" smooth="yes"/>
      <point x="-239.60000000000002" y="765.0"/>
      <point x="-239.4" y="768.6"/>
      <point x="-237.6" y="777.1999999999999" type="curve"/>
      <point x="-338.0" y="777.2" type="line"/>
      <point x="-344.2" y="749.0"/>
      <point x="-347.4" y="723.4000000000001"/>
      <point x="-347.4" y="702.4" type="curve" smooth="yes"/>
      <point x="-347.4" y="615.2"/>
      <point x="-291.8" y="599.2"/>
    </contour>
  </outline>
</glyph>
<glyph name="uni0307" format="2">
  <unicode hex="0307"/>
  <anchor x="-208.0" y="550.0" name="_top"/>
  <anchor x="-171.0" y="760.8" name="top"/>
  <outline>
    <contour>
      <point x="-201.6" y="590.0" type="curve" smooth="yes"/>
      <point x="-132.2" y="590.0"/>
      <point x="-109.2" y="653.4"/>
      <point x="-109.2" y="712.0" type="curve" smooth="yes"/>
      <point x="-109.2" y="757.2"/>
      <point x="-133.8" y="772.0"/>
      <point x="-173.4" y="772.0" type="curve" smooth="yes"/>
      <point x="-241.6" y="772.0"/>
      <point x="-266.0" y="706.0"/>
      <point x="-266.0" y="649.2" type="curve" smooth="yes"/>
      <point x="-266.0" y="604.0"/>
      <point x="-241.4" y="590.0"/>
    </contour>
  </outline>
</glyph>
<glyph name="uni0308" format="2">
  <unicode hex="0308"/>
  <anchor x="-208.0" y="550.0" name="_top"/>
  <anchor x="-176.4" y="757.2" name="top"/>
  <outline>
    <contour>
      <point x="-114.00000000000001" y="591.2" type="curve" smooth="yes"/>
      <point x="-64.8" y="591.2"/>
      <point x="-32.60000000000001" y="614.4000000000001"/>
      <point x="-23.800000000000004" y="687.4" type="curve" smooth="yes"/>
      <point x="-14.200000000000005" y="754.4000000000001"/>
      <point x="-39.0" y="773.2"/>
      <point x="-84.00000000000001" y="773.2" type="curve" smooth="yes"/>
      <point x="-132.4" y="773.2"/>
      <point x="-165.6" y="749.2"/>
      <point x="-175.20000000000002" y="675.2" type="curve" smooth="yes"/>
      <point x="-184.0" y="609.2"/>
      <point x="-156.8" y="591.2"/>
    </contour>
    <contour>
      <point x="-290.2" y="591.2" type="curve" smooth="yes"/>
      <point x="-241.00000000000003" y="591.2"/>
      <point x="-207.8" y="613.2"/>
      <point x="-199.0" y="687.4" type="curve" smooth="yes"/>
      <point x="-189.4" y="754.4000000000001"/>
      <point x="-216.6" y="773.2"/>
      <point x="-260.2" y="773.2" type="curve" smooth="yes"/>
      <point x="-308.4" y="773.2"/>
      <point x="-340.8" y="749.0"/>
      <point x="-350.4" y="674.2" type="curve" smooth="yes"/>
      <point x="-359.2" y="609.2"/>
      <point x="-334.40000000000003" y="591.2"/>
    </contour>
  </outline>
</glyph>
<glyph name="hookabovecomb" format="2">
  <unicode hex="0309"/>
  <anchor x="-208.0" y="550.0" name="_top"/>
  <anchor x="-181.5" y="806.5" name="top"/>
  <outline>
    <contour>
      <point x="-249.99999999999997" y="587.4999999999999" type="line"/>
      <point x="-127.5" y="601.0"/>
      <point x="-73.0" y="645.4999999999999"/>
      <point x="-73.0" y="718.0" type="curve" smooth="yes"/>
      <point x="-73.0" y="779.9999999999999"/>
      <point x="-122.5" y="807.5"/>
      <point x="-195.0" y="807.5" type="curve" smooth="yes"/>
      <point x="-224.0" y="807.5"/>
      <point x="-258.0" y="801.0"/>
      <point x="-276.0" y="795.4999999999999" type="curve"/>
      <point x="-290.5" y="699.0000000000001" type="line"/>
      <point x="-274.0" y="702.0000000000001"/>
      <point x="-261.5" y="704.0"/>
      <point x="-244.0" y="704.0" type="curve" smooth="yes"/>
      <point x="-217.5" y="704.0"/>
      <point x="-205.5" y="696.0"/>
      <point x="-205.5" y="683.0" type="curve" smooth="yes"/>
      <point x="-205.5" y="664.9999999999999"/>
      <point x="-221.5" y="657.9999999999999"/>
      <point x="-251.0" y="656.4999999999999" type="curve"/>
    </contour>
  </outline>
</glyph>
<glyph name="uni030A" format="2">
  <unicode hex="030A"/>
  <anchor x="-208.0" y="550.0" name="_top"/>
  <anchor x="-170.2" y="788.2" name="top"/>
  <outline>
    <contour>
      <point x="-191.20000000000002" y="586.8" type="curve" smooth="yes"/>
      <point x="-111.0" y="586.8"/>
      <point x="-70.8" y="633.4"/>
      <point x="-70.8" y="705.8000000000001" type="curve" smooth="yes"/>
      <point x="-70.8" y="762.8"/>
      <point x="-110.80000000000001" y="800.8"/>
      <point x="-178.79999999999998" y="800.8" type="curve" smooth="yes"/>
      <point x="-259.0" y="800.8"/>
      <point x="-299.2" y="754.2"/>
      <point x="-299.2" y="681.8000000000001" type="curve" smooth="yes"/>
      <point x="-299.2" y="624.8000000000001"/>
      <point x="-259.2" y="586.8"/>
    </contour>
    <contour>
      <point x="-187.0" y="671.6" type="curve" smooth="yes"/>
      <point x="-200.4" y="671.6"/>
      <point x="-206.40000000000003" y="679.6"/>
      <point x="-206.40000000000003" y="690.4" type="curve" smooth="yes"/>
      <point x="-206.40000000000003" y="706.4"/>
      <point x="-198.4" y="716.0"/>
      <point x="-183.0" y="716.0" type="curve" smooth="yes"/>
      <point x="-169.6" y="716.0"/>
      <point x="-163.6" y="708.0"/>
      <point x="-163.6" y="697.2" type="curve" smooth="yes"/>
      <point x="-163.6" y="681.2"/>
      <point x="-171.4" y="671.6"/>
    </contour>
  </outline>
</glyph>
